SplineFontDB: 3.2
FontName: Samim-Medium
FullName: Samim Medium
FamilyName: Samim Medium
Weight: Medium
Copyright: Copyright (c) 2003 by Bitstream, Inc. All Rights Reserved.\nDejaVu changes are in public domain\nCopyright (c) 2015 by Saber Rastikerdar. All Rights Reserved.\nNon-Arabic(Latin) glyphs and data are imported from Open Sans font under the Apache License, Version 2.0.
Version: 4.0.5
ItalicAngle: 0
UnderlinePosition: -500
UnderlineWidth: 100
Ascent: 1638
Descent: 410
InvalidEm: 0
LayerCount: 2
Layer: 0 0 "Back" 1
Layer: 1 0 "Fore" 0
PreferredKerning: 4
XUID: [1021 502 1027637223 6742228]
UniqueID: 4115130
UseUniqueID: 1
FSType: 0
OS2Version: 1
OS2_WeightWidthSlopeOnly: 0
OS2_UseTypoMetrics: 1
CreationTime: 1431850356
ModificationTime: 1586863123
PfmFamily: 33
TTFWeight: 500
TTFWidth: 5
LineGap: 0
VLineGap: 0
Panose: 2 11 6 3 3 8 4 2 2 4
OS2TypoAscent: 2150
OS2TypoAOffset: 0
OS2TypoDescent: -1050
OS2TypoDOffset: 0
OS2TypoLinegap: 0
OS2WinAscent: 2150
OS2WinAOffset: 0
OS2WinDescent: 1050
OS2WinDOffset: 0
HheadAscent: 2150
HheadAOffset: 0
HheadDescent: -1050
HheadDOffset: 0
OS2SubXSize: 1331
OS2SubYSize: 1433
OS2SubXOff: 0
OS2SubYOff: 286
OS2SupXSize: 1331
OS2SupYSize: 1433
OS2SupXOff: 0
OS2SupYOff: 983
OS2StrikeYSize: 102
OS2StrikeYPos: 530
OS2CapHeight: 1638
OS2XHeight: 1082
OS2Vendor: '    '
OS2CodePages: 00000041.20080000
OS2UnicodeRanges: 80002003.80000000.00000008.00000000
Lookup: 1 9 0 "Single Substitution 1" { "Single Substitution 1 subtable"  } []
Lookup: 1 9 0 "'fina' Terminal Forms in Arabic lookup 9" { "'fina' Terminal Forms in Arabic lookup 9 subtable"  } ['fina' ('DFLT' <'dflt' > 'arab' <'FAR ' 'KUR ' 'URD ' 'dflt' > ) ]
Lookup: 1 9 0 "'medi' Medial Forms in Arabic lookup 11" { "'medi' Medial Forms in Arabic lookup 11 subtable"  } ['medi' ('DFLT' <'dflt' > 'arab' <'FAR ' 'KUR ' 'URD ' 'dflt' > ) ]

StartChar: exclam
Encoding: 33 33 1
GlifName: exclam
Width: 560
VWidth: 2170
GlyphClass: 2
Flags: HW
LayerCount: 2
Fore
SplineSet
130 150 m 0
 130 233.020507812 196.977539062 300 280 300 c 0
 363.020507812 300 430 233.022460938 430 150 c 0
 430 66.9794921875 363.022460938 0 280 0 c 0
 196.979492188 0 130 66.9775390625 130 150 c 0
189 1380 m 1
 371 1380 l 1
 391.703125 1380 l 1
 358.3203125 444 l 5
 339 444 l 5
 221 444 l 5
 201.6796875 444 l 5
 168.296875 1380 l 1
 189 1380 l 1
EndSplineSet
EndChar

StartChar: period
Encoding: 46 46 2
GlifName: period
Width: 560
VWidth: 2170
GlyphClass: 2
Flags: HW
LayerCount: 2
Fore
SplineSet
130 150 m 0
 130 233.020507812 196.977539062 300 280 300 c 0
 363.020507812 300 430 233.022460938 430 150 c 0
 430 66.9794921875 363.022460938 0 280 0 c 0
 196.979492188 0 130 66.9775390625 130 150 c 0
EndSplineSet
EndChar

StartChar: colon
Encoding: 58 58 3
GlifName: colon
Width: 560
VWidth: 2170
GlyphClass: 2
Flags: HW
LayerCount: 2
Fore
SplineSet
130 750 m 0
 130 833.020507812 196.977539062 900 280 900 c 0
 363.020507812 900 430 833.022460938 430 750 c 0
 430 666.979492188 363.022460938 600 280 600 c 0
 196.979492188 600 130 666.977539062 130 750 c 0
130 150 m 0
 130 233.020507812 196.977539062 300 280 300 c 0
 363.020507812 300 430 233.022460938 430 150 c 0
 430 66.9794921875 363.022460938 0 280 0 c 0
 196.979492188 0 130 66.9775390625 130 150 c 0
EndSplineSet
EndChar

StartChar: uni060C
Encoding: 1548 1548 5
GlifName: afii57388
Width: 543
VWidth: 2177
GlyphClass: 2
Flags: HW
LayerCount: 2
Fore
SplineSet
280 0 m 2
 185.213867188 0 130 47.943359375 130 137 c 2
 130 208 l 2
 130 381.60546875 208.958007812 528.90234375 362.831054688 646.872070312 c 2
 372.756835938 654.482421875 l 1
 383.944335938 648.888671875 l 1
 451.944335938 614.888671875 l 1
 475.53515625 603.092773438 l 1
 457.811523438 583.560546875 l 2
 368.4453125 485.075195312 321.095703125 391.801757812 313.118164062 304.930664062 c 1
 386.901367188 302.80859375 426 253.1484375 426 173 c 2
 426 136 l 2
 426 50.2041015625 379.02734375 0 294 0 c 2
 280 0 l 2
EndSplineSet
EndChar

StartChar: uni0615
Encoding: 1557 1557 6
GlifName: uni0615
Width: 6
VWidth: 2317
GlyphClass: 4
Flags: HW
AnchorPoint: "Anchor-10" 565.891 1423.75 mark 0
AnchorPoint: "Anchor-9" 565.891 1423.75 mark 0
AnchorPoint: "Anchor-1" 451.891 2048.68 basemark 0
AnchorPoint: "Anchor-1" 565.891 1423.75 mark 0
LayerCount: 2
Fore
SplineSet
615 1545 m 2
 716.774702329 1545 769.200195312 1561.9679523 769.200195312 1629.60839844 c 0
 769.200195312 1666.07454211 749.688409486 1697.49609375 704.821289062 1697.49609375 c 0
 653.871080556 1697.49609375 567.750469838 1611.43993692 512.483428298 1545 c 1
 615 1545 l 2
490 1631.36903732 m 1
 537.249498675 1690.36796597 615.501469839 1790.015625 711.350585938 1790.015625 c 0
 801.483561126 1790.015625 853 1716.5592772 853 1634 c 0
 853 1510.20132628 769.929271976 1453 613 1453 c 2
 320 1453 l 1
 316.840565115 1453 l 1
 316.108775141 1456.07351789 l 1
 296.108775141 1540.07351789 l 1
 294.93580321 1545 l 1
 300 1545 l 1
 407 1545 l 1
 407 1983 l 1
 407 1986.07311325 l 1
 409.969349398 1986.86493976 l 1
 484.969349398 2006.86493976 l 1
 490 2008.20644659 l 1
 490 2003 l 1
 490 1631.36903732 l 1
EndSplineSet
EndChar

StartChar: uni061B
Encoding: 1563 1563 7
GlifName: uni061B_
Width: 561
VWidth: 2177
GlyphClass: 2
Flags: HW
LayerCount: 2
Fore
SplineSet
280 440 m 6
 185.213867188 440 130 487.943359375 130 577 c 6
 130 648 l 6
 130 821.60546875 208.958007812 968.90234375 362.831054688 1086.87207031 c 6
 372.756835938 1094.48242188 l 5
 383.944335938 1088.88867188 l 5
 451.944335938 1054.88867188 l 5
 475.53515625 1043.09277344 l 5
 457.811523438 1023.56054688 l 6
 368.4453125 925.075195312 321.095703125 831.801757812 313.118164062 744.930664062 c 5
 386.901367188 742.80859375 426 693.1484375 426 613 c 6
 426 576 l 6
 426 490.204101562 379.02734375 440 294 440 c 6
 280 440 l 6
130 150 m 0
 130 233.020507812 196.977539062 300 280 300 c 0
 363.020507812 300 430 233.022460938 430 150 c 0
 430 66.9794921875 363.022460938 0 280 0 c 0
 196.979492188 0 130 66.9775390625 130 150 c 0
EndSplineSet
EndChar

StartChar: uni061F
Encoding: 1567 1567 8
GlifName: uni061F_
Width: 845
VWidth: 2170
GlyphClass: 2
Flags: HW
LayerCount: 2
Fore
SplineSet
518 3 m 0
 436.334960938 3 368 68.66796875 368 150 c 0
 368 228.578125 434.329101562 298 514 298 c 0
 597.103515625 298 663 231.400390625 663 150 c 0
 663 72.0244140625 597.495117188 3 518 3 c 0
414 465 m 1
 414 480 l 2
 414 841.594726562 69.9951171875 691.865234375 69.9951171875 1013.06152344 c 4
 69.9951171875 1213.21386719 230.442382812 1380 460 1380 c 4
 577.358398438 1380 664.826171875 1345.54589844 775.5390625 1267.33496094 c 6
 789.15234375 1257.71875 l 5
 782.1484375 1242.59570312 l 5
 713.1484375 1093.59570312 l 5
 703.475585938 1072.70800781 l 5
 684.143554688 1085.203125 l 6
 602.91015625 1137.70703125 551.387695312 1162 465 1162 c 4
 355.995117188 1162 287 1092.65234375 287 1007 c 4
 287 852.635742188 621 924.319335938 621 480 c 2
 621 465 l 1
 621 445 l 1
 601 445 l 1
 434 445 l 1
 414 445 l 1
 414 465 l 1
EndSplineSet
EndChar

StartChar: uni0621
Encoding: 1569 1569 9
GlifName: uni0621
Width: 778
VWidth: 2311
GlyphClass: 2
Flags: HW
AnchorPoint: "Anchor-7" 416.54 -39.7598 basechar 0
AnchorPoint: "Anchor-10" 370.19 1041.23 basechar 0
LayerCount: 2
Fore
SplineSet
499.263671875 328.745117188 m 0
 538.852539062 328.745117188 580.443359375 345.036132812 680.416992188 379.885742188 c 2
 707 389.15234375 l 1
 707 361 l 1
 707 209 l 1
 707 194.953125 l 1
 693.787109375 190.186523438 l 1
 97.787109375 -24.8134765625 l 1
 71 -34.4765625 l 1
 71 -6 l 1
 71 141 l 1
 71 154.684570312 l 1
 83.7548828125 159.641601562 l 1
 244.659179688 222.172851562 l 1
 149.616210938 264.787109375 74.9580078125 351.890625 74.9580078125 475.19921875 c 0
 74.9580078125 670.994140625 226.84375 808.407226562 437.138671875 808.407226562 c 0
 475.265625 808.407226562 536.923828125 801.26953125 602.358398438 771.169921875 c 2
 614 765.814453125 l 1
 614 753 l 1
 614 600 l 1
 614 573.751953125 l 1
 588.692382812 580.716796875 l 2
 536.073242188 595.19921875 478.76171875 602.5 438.625 602.5 c 0
 343.577148438 602.5 271.974609375 538.202148438 271.974609375 474.392578125 c 0
 271.974609375 414.290039062 320.25390625 355.014648438 438.295898438 333.728515625 c 0
 458.491210938 330.62109375 478.749023438 328.745117188 499.263671875 328.745117188 c 0
EndSplineSet
EndChar

StartChar: uni0627
Encoding: 1575 1575 15
GlifName: uni0627
Width: 448
VWidth: 2311
GlyphClass: 2
Flags: HW
AnchorPoint: "Anchor-10" 224.19 1473.38 basechar 0
AnchorPoint: "Anchor-7" 246.61 -190.79 basechar 0
LayerCount: 2
Fore
SplineSet
117.525390625 1326.47753906 m 5
 331 1394.34472656 l 5
 331 2 l 1
 161.631835938 2 l 1
 117.525390625 1326.47753906 l 5
EndSplineSet
Substitution2: "'fina' Terminal Forms in Arabic lookup 9 subtable" uniFE8E
EndChar

StartChar: uni062D
Encoding: 1581 1581 21
GlifName: uni062D_
Width: 1293
VWidth: 2311
GlyphClass: 2
Flags: HW
AnchorPoint: "Anchor-10" 561.59 1147.96 basechar 0
AnchorPoint: "Anchor-7" 674.525 -793.648 basechar 0
LayerCount: 2
Fore
SplineSet
794.7109375 584.19921875 m 1
 768.2890625 594.453125 741.388671875 604.859375 691.686523438 624.384765625 c 0
 542.157226562 683.12890625 484 707 428 707 c 0
 364.216796875 707 290.7578125 659.359375 210.946289062 553.928710938 c 2
 198.745117188 537.811523438 l 1
 182.759765625 550.18359375 l 1
 67.759765625 639.18359375 l 1
 52.5537109375 650.951171875 l 1
 63.7138671875 666.608398438 l 2
 168.72265625 813.93359375 277.80078125 923 435 923 c 0
 553.380859375 923 667.33984375 862.868164062 794.375 804.288085938 c 0
 917.748046875 747.396484375 1066.96679688 669.919921875 1133.98242188 669.919921875 c 0
 1145.47558594 669.919921875 1157.0703125 670.267578125 1168.81542969 670.96484375 c 2
 1193.14648438 672.409179688 l 1
 1189.81152344 648.263671875 l 1
 1164.81152344 467.263671875 l 1
 1162.75 452.337890625 l 1
 1147.83496094 450.202148438 l 2
 733.344726562 390.845703125 285 239.65234375 285 -120 c 0
 285 -303.702148438 485.860351562 -420 777 -420 c 0
 907.387695312 -420 1029.45019531 -404.208984375 1145.46289062 -370.782226562 c 2
 1164.75683594 -365.22265625 l 1
 1170.24023438 -384.538085938 l 1
 1214.24023438 -539.538085938 l 1
 1219.57519531 -558.333007812 l 1
 1200.91113281 -564.106445312 l 2
 1060.09375 -607.668945312 920.021484375 -629 779 -629 c 0
 399.633789062 -629 76 -452.979492188 76 -123 c 0
 76 255.251953125 408.850585938 489.471679688 794.7109375 584.19921875 c 1
EndSplineSet
Substitution2: "'fina' Terminal Forms in Arabic lookup 9 subtable" uniFEA2
Substitution2: "'medi' Medial Forms in Arabic lookup 11 subtable" uniFEA4
Substitution2: "'init' Initial Forms in Arabic lookup 13 subtable" uniFEA3
EndChar

StartChar: uni062F
Encoding: 1583 1583 23
GlifName: uni062F_
Width: 982
VWidth: 2311
GlyphClass: 2
Flags: HW
AnchorPoint: "Anchor-10" 444.149 1209.65 basechar 0
AnchorPoint: "Anchor-7" 435.442 -196.688 basechar 0
LayerCount: 2
Fore
SplineSet
104.2578125 238.99609375 m 2
 186.42578125 211.928710938 294.022460938 198 382 198 c 0
 535.233398438 198 599.704101562 213.510742188 662.13671875 260.102539062 c 0
 692.392578125 282.106445312 713 315.186523438 713 336 c 0
 713 395.388671875 677.045898438 476.250976562 601.153320312 575.797851562 c 0
 539.619140625 654.913085938 455.735351562 735.962890625 351.87890625 815.091796875 c 2
 337.0625 826.379882812 l 1
 347.270507812 841.9609375 l 1
 442.270507812 986.9609375 l 1
 453.950195312 1004.78710938 l 1
 471 992 l 2
 604.124023438 892.157226562 707.719726562 791.815429688 780.27734375 689.62109375 c 0
 865.909179688 570.34765625 910 452.217773438 910 337 c 0
 910 221.172851562 846.142578125 121.76171875 741.317382812 58.8662109375 c 0
 644.125976562 0.3427734375 544.91015625 -17 369 -17 c 0
 277.955078125 -17 171.451171875 -2.9755859375 90.2431640625 26.17578125 c 2
 76.919921875 30.958984375 l 1
 77 45.1142578125 l 1
 78 220.114257812 l 1
 78.1572265625 247.59375 l 1
 104.2578125 238.99609375 l 2
EndSplineSet
Substitution2: "'fina' Terminal Forms in Arabic lookup 9 subtable" uniFEAA
EndChar

StartChar: uni0631
Encoding: 1585 1585 25
GlifName: uni0631
Width: 797
VWidth: 2317
GlyphClass: 2
Flags: HW
AnchorPoint: "Anchor-7" 256.38 -618.85 basechar 0
AnchorPoint: "Anchor-10" 533.618 877.71 basechar 0
LayerCount: 2
Fore
SplineSet
12.458984375 -501.498046875 m 1
 -42.541015625 -365.498046875 l 1
 -52.845703125 -340.018554688 l 1
 294.728515625 -315.08203125 516 -162.231685922 516 135 c 0
 516 193.892578125 494.490234375 306.53515625 450.68359375 469.817382812 c 2
 446.498046875 485.416992188 l 1
 460.866210938 492.79296875 l 1
 610.866210938 569.79296875 l 1
 631.23828125 580.25 l 1
 638.859375 558.65625 l 2
 693.35546875 404.251953125 721 270.247070312 721 157 c 0
 721 -242.610351562 449.46484375 -512.265625 21.0810546875 -514 c 2
 17.537109375 -514.0546875 l 1
 12.458984375 -501.498046875 l 1
EndSplineSet
PairPos2: "'kern' Horizontal Kerning lookup 15-2" uniFB7C dx=-110 dy=0 dh=-110 dv=0 dx=0 dy=0 dh=0 dv=0
PairPos2: "'kern' Horizontal Kerning lookup 15-1" uniFEE7 dx=-178 dy=0 dh=-178 dv=0 dx=0 dy=0 dh=0 dv=0
PairPos2: "'kern' Horizontal Kerning lookup 15-2" uniFE8B dx=-178 dy=0 dh=-178 dv=0 dx=0 dy=0 dh=0 dv=0
PairPos2: "'kern' Horizontal Kerning lookup 15-2" uni0640 dx=-178 dy=0 dh=-178 dv=0 dx=0 dy=0 dh=0 dv=0
PairPos2: "'kern' Horizontal Kerning lookup 15-2" uni067E dx=-178 dy=0 dh=-178 dv=0 dx=0 dy=0 dh=0 dv=0
PairPos2: "'kern' Horizontal Kerning lookup 15-2" uni06AF dx=-226 dy=0 dh=-226 dv=0 dx=0 dy=0 dh=0 dv=0
PairPos2: "'kern' Horizontal Kerning lookup 15-2" uniFB92 dx=-226 dy=0 dh=-226 dv=0 dx=0 dy=0 dh=0 dv=0
PairPos2: "'kern' Horizontal Kerning lookup 15-2" uniFB94 dx=-226 dy=0 dh=-226 dv=0 dx=0 dy=0 dh=0 dv=0
PairPos2: "'kern' Horizontal Kerning lookup 15-2" uni0621 dx=-178 dy=0 dh=-178 dv=0 dx=0 dy=0 dh=0 dv=0
PairPos2: "'kern' Horizontal Kerning lookup 15-2" uni0622 dx=-143 dy=0 dh=-143 dv=0 dx=0 dy=0 dh=0 dv=0
PairPos2: "'kern' Horizontal Kerning lookup 15-2" uni0623 dx=-143 dy=0 dh=-143 dv=0 dx=0 dy=0 dh=0 dv=0
PairPos2: "'kern' Horizontal Kerning lookup 15-2" uni0627 dx=-143 dy=0 dh=-143 dv=0 dx=0 dy=0 dh=0 dv=0
PairPos2: "'kern' Horizontal Kerning lookup 15-2" uni0628 dx=-178 dy=0 dh=-178 dv=0 dx=0 dy=0 dh=0 dv=0
PairPos2: "'kern' Horizontal Kerning lookup 15-2" uni0629 dx=-178 dy=0 dh=-178 dv=0 dx=0 dy=0 dh=0 dv=0
PairPos2: "'kern' Horizontal Kerning lookup 15-2" uni062A dx=-178 dy=0 dh=-178 dv=0 dx=0 dy=0 dh=0 dv=0
PairPos2: "'kern' Horizontal Kerning lookup 15-2" uniFE97 dx=-178 dy=0 dh=-178 dv=0 dx=0 dy=0 dh=0 dv=0
PairPos2: "'kern' Horizontal Kerning lookup 15-2" uni062B dx=-178 dy=0 dh=-178 dv=0 dx=0 dy=0 dh=0 dv=0
PairPos2: "'kern' Horizontal Kerning lookup 15-2" uniFE9B dx=-178 dy=0 dh=-178 dv=0 dx=0 dy=0 dh=0 dv=0
PairPos2: "'kern' Horizontal Kerning lookup 15-2" uniFE9F dx=-178 dy=0 dh=-178 dv=0 dx=0 dy=0 dh=0 dv=0
PairPos2: "'kern' Horizontal Kerning lookup 15-2" uniFEA3 dx=-178 dy=0 dh=-178 dv=0 dx=0 dy=0 dh=0 dv=0
PairPos2: "'kern' Horizontal Kerning lookup 15-2" uniFEA7 dx=-178 dy=0 dh=-178 dv=0 dx=0 dy=0 dh=0 dv=0
PairPos2: "'kern' Horizontal Kerning lookup 15-2" uni062F dx=-178 dy=0 dh=-178 dv=0 dx=0 dy=0 dh=0 dv=0
PairPos2: "'kern' Horizontal Kerning lookup 15-2" uni0630 dx=-178 dy=0 dh=-178 dv=0 dx=0 dy=0 dh=0 dv=0
PairPos2: "'kern' Horizontal Kerning lookup 15-2" uni0633 dx=-178 dy=0 dh=-178 dv=0 dx=0 dy=0 dh=0 dv=0
PairPos2: "'kern' Horizontal Kerning lookup 15-2" uniFEB3 dx=-178 dy=0 dh=-178 dv=0 dx=0 dy=0 dh=0 dv=0
PairPos2: "'kern' Horizontal Kerning lookup 15-2" uni0634 dx=-178 dy=0 dh=-178 dv=0 dx=0 dy=0 dh=0 dv=0
PairPos2: "'kern' Horizontal Kerning lookup 15-2" uniFEB7 dx=-178 dy=0 dh=-178 dv=0 dx=0 dy=0 dh=0 dv=0
PairPos2: "'kern' Horizontal Kerning lookup 15-2" uni0635 dx=-178 dy=0 dh=-178 dv=0 dx=0 dy=0 dh=0 dv=0
PairPos2: "'kern' Horizontal Kerning lookup 15-2" uniFEBB dx=-178 dy=0 dh=-178 dv=0 dx=0 dy=0 dh=0 dv=0
PairPos2: "'kern' Horizontal Kerning lookup 15-2" uni0636 dx=-178 dy=0 dh=-178 dv=0 dx=0 dy=0 dh=0 dv=0
PairPos2: "'kern' Horizontal Kerning lookup 15-2" uniFEBF dx=-178 dy=0 dh=-178 dv=0 dx=0 dy=0 dh=0 dv=0
PairPos2: "'kern' Horizontal Kerning lookup 15-2" uni0637 dx=-178 dy=0 dh=-178 dv=0 dx=0 dy=0 dh=0 dv=0
PairPos2: "'kern' Horizontal Kerning lookup 15-2" uniFEC3 dx=-178 dy=0 dh=-178 dv=0 dx=0 dy=0 dh=0 dv=0
PairPos2: "'kern' Horizontal Kerning lookup 15-2" uni0638 dx=-178 dy=0 dh=-178 dv=0 dx=0 dy=0 dh=0 dv=0
PairPos2: "'kern' Horizontal Kerning lookup 15-2" uniFEC7 dx=-178 dy=0 dh=-178 dv=0 dx=0 dy=0 dh=0 dv=0
PairPos2: "'kern' Horizontal Kerning lookup 15-2" uniFECB dx=-178 dy=0 dh=-178 dv=0 dx=0 dy=0 dh=0 dv=0
PairPos2: "'kern' Horizontal Kerning lookup 15-2" uniFECF dx=-178 dy=0 dh=-178 dv=0 dx=0 dy=0 dh=0 dv=0
PairPos2: "'kern' Horizontal Kerning lookup 15-2" uni0641 dx=-178 dy=0 dh=-178 dv=0 dx=0 dy=0 dh=0 dv=0
PairPos2: "'kern' Horizontal Kerning lookup 15-2" uniFED3 dx=-178 dy=0 dh=-178 dv=0 dx=0 dy=0 dh=0 dv=0
PairPos2: "'kern' Horizontal Kerning lookup 15-2" uni0642 dx=-60 dy=0 dh=-60 dv=0 dx=0 dy=0 dh=0 dv=0
PairPos2: "'kern' Horizontal Kerning lookup 15-2" uniFED7 dx=-178 dy=0 dh=-178 dv=0 dx=0 dy=0 dh=0 dv=0
PairPos2: "'kern' Horizontal Kerning lookup 15-2" uni0643 dx=-143 dy=0 dh=-143 dv=0 dx=0 dy=0 dh=0 dv=0
PairPos2: "'kern' Horizontal Kerning lookup 15-2" uniFEDB dx=-226 dy=0 dh=-226 dv=0 dx=0 dy=0 dh=0 dv=0
PairPos2: "'kern' Horizontal Kerning lookup 15-2" uni0644 dx=-60 dy=0 dh=-60 dv=0 dx=0 dy=0 dh=0 dv=0
PairPos2: "'kern' Horizontal Kerning lookup 15-2" uniFEDF dx=-143 dy=0 dh=-143 dv=0 dx=0 dy=0 dh=0 dv=0
PairPos2: "'kern' Horizontal Kerning lookup 15-2" uniFEFB dx=-143 dy=0 dh=-143 dv=0 dx=0 dy=0 dh=0 dv=0
PairPos2: "'kern' Horizontal Kerning lookup 15-2" uni0645 dx=-178 dy=0 dh=-178 dv=0 dx=0 dy=0 dh=0 dv=0
PairPos2: "'kern' Horizontal Kerning lookup 15-2" uniFEE3 dx=-178 dy=0 dh=-178 dv=0 dx=0 dy=0 dh=0 dv=0
PairPos2: "'kern' Horizontal Kerning lookup 15-2" uni0646 dx=-60 dy=0 dh=-60 dv=0 dx=0 dy=0 dh=0 dv=0
PairPos2: "'kern' Horizontal Kerning lookup 15-2" uni0647 dx=-178 dy=0 dh=-178 dv=0 dx=0 dy=0 dh=0 dv=0
PairPos2: "'kern' Horizontal Kerning lookup 15-2" uniFEEB dx=-178 dy=0 dh=-178 dv=0 dx=0 dy=0 dh=0 dv=0
PairPos2: "'kern' Horizontal Kerning lookup 15-2" uni0649 dx=-60 dy=0 dh=-60 dv=0 dx=0 dy=0 dh=0 dv=0
PairPos2: "'kern' Horizontal Kerning lookup 15-2" uni0626 dx=-60 dy=0 dh=-60 dv=0 dx=0 dy=0 dh=0 dv=0
PairPos2: "'kern' Horizontal Kerning lookup 15-2" uni064A dx=-60 dy=0 dh=-60 dv=0 dx=0 dy=0 dh=0 dv=0
PairPos2: "'kern' Horizontal Kerning lookup 15-2" uni06A9 dx=-226 dy=0 dh=-226 dv=0 dx=0 dy=0 dh=0 dv=0
PairPos2: "'kern' Horizontal Kerning lookup 15-2" uniFB8E dx=-226 dy=0 dh=-226 dv=0 dx=0 dy=0 dh=0 dv=0
PairPos2: "'kern' Horizontal Kerning lookup 15-2" uniFB90 dx=-226 dy=0 dh=-226 dv=0 dx=0 dy=0 dh=0 dv=0
PairPos2: "'kern' Horizontal Kerning lookup 15-2" uniFBFE dx=30 dy=0 dh=30 dv=0 dx=0 dy=0 dh=0 dv=0
PairPos2: "'kern' Horizontal Kerning lookup 15-2" uni0631 dx=-30 dy=0 dh=-30 dv=0 dx=0 dy=0 dh=0 dv=0
PairPos2: "'kern' Horizontal Kerning lookup 15-2" uni0632 dx=-30 dy=0 dh=-30 dv=0 dx=0 dy=0 dh=0 dv=0
PairPos2: "'kern' Horizontal Kerning lookup 15-2" uni0624 dx=-30 dy=0 dh=-30 dv=0 dx=0 dy=0 dh=0 dv=0
PairPos2: "'kern' Horizontal Kerning lookup 15-2" uni0648 dx=-30 dy=0 dh=-30 dv=0 dx=0 dy=0 dh=0 dv=0
PairPos2: "'kern' Horizontal Kerning lookup 15-2" uni0698 dx=-40 dy=0 dh=-40 dv=0 dx=0 dy=0 dh=0 dv=0
PairPos2: "'kern' Horizontal Kerning lookup 15-5" uni06C0 dx=-178 dy=0 dh=-178 dv=0 dx=0 dy=0 dh=0 dv=0
Substitution2: "'fina' Terminal Forms in Arabic lookup 9 subtable" uniFEAE
EndChar

StartChar: uni0633
Encoding: 1587 1587 27
GlifName: uni0633
Width: 2391
VWidth: 2311
GlyphClass: 2
Flags: HW
AnchorPoint: "Anchor-7" 686.95 -714.09 basechar 0
AnchorPoint: "Anchor-10" 1693.64 1026.47 basechar 0
LayerCount: 2
Fore
SplineSet
1707.7578125 128.890625 m 1
 1652.95996094 44.1484375 1573.57617188 0 1474 0 c 0
 1419.96582031 0 1367.58105469 12.9736328125 1318.28710938 37.4970703125 c 1
 1304.14941406 -330.154296875 1087.67285156 -518 686 -518 c 0
 315.28515625 -518 78 -330.810546875 78 37 c 0
 78 178.911132812 108.70703125 319.828125 171.712890625 462.098632812 c 2
 179.314453125 479.263671875 l 1
 196.92578125 472.762695312 l 1
 345.92578125 417.762695312 l 1
 365.328125 410.600585938 l 1
 357.51953125 391.44921875 l 2
 305.163085938 263.026367188 279 150.375976562 279 55 c 0
 279 -186.625 410.465820312 -305 690 -305 c 0
 990.866210938 -305 1132 -180.31640625 1132 74 c 0
 1132 163.000976562 1097.37109375 279.557617188 1027.06152344 422.155273438 c 2
 1018.64550781 439.225585938 l 1
 1035.27734375 448.477539062 l 1
 1186.27734375 532.477539062 l 1
 1206.39453125 543.668945312 l 1
 1214.66503906 522.185546875 l 1
 1296.58203125 309.401367188 l 2
 1320.54785156 251.198242188 1373.40429688 220 1469 220 c 0
 1550.77734375 220 1598.55859375 271.55078125 1611.09960938 395.990234375 c 2
 1630.09960938 585.990234375 l 1
 1631.90039062 604 l 1
 1650 604 l 1
 1768 604 l 1
 1785.56445312 604 l 1
 1787.83300781 586.58203125 l 1
 1812.83300781 394.58203125 l 2
 1828.72460938 272.528320312 1884.671875 221.98828125 1974.32324219 221.98828125 c 0
 2071.01660156 221.98828125 2110 249.69140625 2110 404 c 0
 2110 477.96875 2077.33398438 634.600585938 2063.16503906 674.2734375 c 2
 2056.20117188 693.7734375 l 1
 2075.93066406 700.056640625 l 1
 2232.93066406 750.056640625 l 1
 2251.39453125 755.9375 l 1
 2257.85546875 737.66796875 l 2
 2292.67871094 639.204101562 2313 544.513671875 2313 416 c 0
 2313 160.916992188 2208.71386719 1 1982 1 c 0
 1857.25097656 1 1763.20703125 43.9658203125 1707.7578125 128.890625 c 1
EndSplineSet
Substitution2: "'fina' Terminal Forms in Arabic lookup 9 subtable" uniFEB2
Substitution2: "'medi' Medial Forms in Arabic lookup 11 subtable" uniFEB4
Substitution2: "'init' Initial Forms in Arabic lookup 13 subtable" uniFEB3
EndChar

StartChar: uni0635
Encoding: 1589 1589 29
GlifName: uni0635
Width: 2504
VWidth: 2311
GlyphClass: 2
Flags: HW
AnchorPoint: "Anchor-7" 686.95 -694.09 basechar 0
AnchorPoint: "Anchor-10" 1955.64 1104.47 basechar 0
LayerCount: 2
Fore
SplineSet
2219 431 m 0
 2219 525.030273438 2155.45605469 578 2060.04296875 578 c 0
 1882.68164062 577.239257812 1645.85351562 314.6015625 1568.43457031 220 c 1
 1710 220 l 2
 1985.88378906 220 2219 264 2219 431 c 0
688.024414062 -518 m 0
 315.328125 -518 78 -331.8203125 78 38 c 0
 78 178.921875 108.689453125 320.8046875 171.734375 462.147460938 c 2
 179.361328125 479.24609375 l 1
 196.92578125 472.762695312 l 1
 345.92578125 417.762695312 l 1
 365.328125 410.600585938 l 1
 357.51953125 391.44921875 l 2
 305.163085938 263.026367188 279 150.375976562 279 55 c 0
 279 -187.595703125 410.38671875 -305 691 -305 c 0
 990.860351562 -305 1132 -180.30078125 1132 73 c 0
 1132 162.017578125 1097.3515625 279.595703125 1027.06152344 422.155273438 c 2
 1018.64550781 439.225585938 l 1
 1035.27734375 448.477539062 l 1
 1186.27734375 532.477539062 l 1
 1206.47753906 543.71484375 l 1
 1214.69433594 522.109375 l 1
 1295.61621094 309.3125 l 2
 1307.42675781 280.180664062 1320.97265625 256.740234375 1333.84082031 249.131835938 c 1
 1390.04199219 327.671875 1734.45117188 798 2060 798 c 0
 2285.29589844 798 2426 652.967773438 2426 431 c 0
 2426 115.986328125 2120.83886719 0 1697 0 c 2
 1531 0 l 2
 1450.44238281 0 1378.68457031 13.439453125 1318.36328125 39.51171875 c 1
 1304.93652344 -329.5 1089.41894531 -517.008789062 688.024414062 -518 c 0
EndSplineSet
Substitution2: "'fina' Terminal Forms in Arabic lookup 9 subtable" uniFEBA
Substitution2: "'medi' Medial Forms in Arabic lookup 11 subtable" uniFEBC
Substitution2: "'init' Initial Forms in Arabic lookup 13 subtable" uniFEBB
EndChar

StartChar: uni0637
Encoding: 1591 1591 31
GlifName: uni0637
Width: 1564
VWidth: 2311
GlyphClass: 2
Flags: HW
AnchorPoint: "Anchor-10" 345.043 1476.92 basechar 0
AnchorPoint: "Anchor-7" 705.363 -214.3 basechar 0
LayerCount: 2
Fore
SplineSet
1281 431 m 0
 1281 525.030273438 1217.45605469 578 1122.04296875 578 c 0
 944.681640625 577.239257812 707.853515625 314.6015625 630.434570312 220 c 1
 772 220 l 2
 1047.88378906 220 1281 264 1281 431 c 0
1122 798 m 0
 1347.29589844 798 1488 652.967773438 1488 431 c 0
 1488 115.986328125 1182.83886719 0 759 0 c 2
 653 0 l 2
 355.494140625 0 179.71484375 10.896484375 64.345703125 32.3369140625 c 2
 48.1123046875 35.353515625 l 1
 48 51.865234375 l 1
 47 199.865234375 l 1
 46.8642578125 220 l 1
 67 220 l 1
 273.426757812 220 l 1
 240.56640625 1333.04785156 l 5
 255.607421875 1337.25976562 l 5
 430.607421875 1386.25976562 l 5
 456 1393.36914062 l 5
 456 1367 l 5
 456 312.204101562 l 1
 553.33203125 445.049804688 833.981445312 798 1122 798 c 0
EndSplineSet
Substitution2: "'fina' Terminal Forms in Arabic lookup 9 subtable" uniFEC2
Substitution2: "'medi' Medial Forms in Arabic lookup 11 subtable" uniFEC4
Substitution2: "'init' Initial Forms in Arabic lookup 13 subtable" uniFEC3
EndChar

StartChar: uni0639
Encoding: 1593 1593 33
GlifName: uni0639
Width: 1232
VWidth: 2311
GlyphClass: 2
Flags: HW
AnchorPoint: "Anchor-7" 680.525 -749.648 basechar 0
AnchorPoint: "Anchor-10" 624.59 1338.96 basechar 0
LayerCount: 2
Fore
SplineSet
76 -122.953125 m 0
 76.998046875 91.55859375 202.708007812 273.276367188 378.44140625 374.01953125 c 1
 280.928710938 479.8359375 249 586.836914062 249 692 c 0
 249 923.587890625 418.137695312 1083 627 1083 c 0
 771.822265625 1083 889.685546875 1023.58789062 974.206054688 906.720703125 c 2
 983.163085938 894.334960938 l 1
 973.563476562 882.439453125 l 1
 881.563476562 768.439453125 l 1
 867.3828125 750.8671875 l 1
 851.651367188 767.067382812 l 2
 787.728515625 832.8984375 717.349609375 864 637 864 c 0
 545.34375 864 451 800.336914062 451 703 c 0
 451 652.43359375 451.452148438 620.672851562 506.295898438 543.594726562 c 0
 541.876953125 493.58984375 597.015625 457.454101562 607.881835938 456.9609375 c 0
 789.556640625 492.022460938 855.969726562 497.973632812 1005.06152344 504.977539062 c 2
 1026 505.961914062 l 1
 1026 485 l 1
 1026 318 l 1
 1026 299.426757812 l 1
 1007.47753906 298.0546875 l 2
 926.783203125 292.077148438 856.145507812 285.1015625 794.904296875 276.211914062 c 0
 615.265625 249.5625 484.490234375 195.453125 398.750976562 114.477539062 c 0
 322.265625 41.865234375 285.9375 -27.333984375 285 -120.100585938 c 0
 285 -303.6171875 485.860351562 -420 777 -420 c 0
 878.385742188 -420 972.81640625 -415.103515625 1088.46289062 -381.782226562 c 2
 1107.75683594 -376.22265625 l 1
 1113.24023438 -395.538085938 l 1
 1157.24023438 -550.538085938 l 1
 1162.57519531 -569.333007812 l 1
 1143.91113281 -575.106445312 l 2
 1002.60546875 -618.819335938 879.360351562 -629 779 -629 c 0
 399.633789062 -629 76 -452.943359375 76 -122.953125 c 0
EndSplineSet
Substitution2: "'fina' Terminal Forms in Arabic lookup 9 subtable" uniFECA
Substitution2: "'medi' Medial Forms in Arabic lookup 11 subtable" uniFECC
Substitution2: "'init' Initial Forms in Arabic lookup 13 subtable" uniFECB
EndChar

StartChar: uni0640
Encoding: 1600 1600 35
GlifName: afii57440
Width: 260
VWidth: 2311
GlyphClass: 2
Flags: HW
AnchorPoint: "Anchor-7" 130.44 -156.31 basechar 0
AnchorPoint: "Anchor-10" 136.44 817.15 basechar 0
LayerCount: 2
Fore
SplineSet
267 0 m 6
 -4 0 l 2
 -35.38671875 0 -42 48.0888671875 -42 94 c 2
 -42 128 l 2
 -42 173.405273438 -35.123046875 220 -4 220 c 2
 267 220 l 6
 276.665039062 220 285 166.653320312 285 128 c 6
 285 94 l 6
 285 54.642578125 276.991210938 -1.22357044948e-15 267 0 c 6
EndSplineSet
EndChar

StartChar: uni0643
Encoding: 1603 1603 38
GlifName: uni0643
Width: 1876
VWidth: 2311
GlyphClass: 2
Flags: HW
AnchorPoint: "Anchor-7" 885.06 -181.16 basechar 0
AnchorPoint: "Anchor-10" 958.52 1322.01 basechar 0
LayerCount: 2
Fore
SplineSet
921 220 m 0
 985.713867188 220 1053.18847656 220.181640625 1119.21191406 223.00390625 c 0
 1375.16308594 233.944335938 1586.6640625 283.493164062 1578.01855469 485.143554688 c 2
 1540.33300781 1334.11816406 l 5
 1555.765625 1338.30273438 l 5
 1732.765625 1386.30273438 l 5
 1758 1393.14648438 l 5
 1758 1367 l 5
 1758 454 l 2
 1758 437.220703125 1756.94726562 417.53515625 1754.94042969 393.447265625 c 0
 1743.17675781 230.900390625 1625.89648438 116.150390625 1415.94335938 49.9033203125 c 0
 1310.68945312 17.59765625 1140.80957031 0.974609375 907.041992188 0 c 0
 431.73046875 0 77.34375 99.2978515625 77.34375 546.849609375 c 0
 77.34375 620.329101562 88.73046875 697.252929688 111.776367188 777.51953125 c 2
 117.197265625 796.397460938 l 1
 136.169921875 791.3203125 l 1
 278.169921875 753.3203125 l 1
 295.411132812 748.706054688 l 1
 292.782226562 731.053710938 l 2
 280.612304688 649.346679688 274.625 586.85546875 274.625 544.671875 c 0
 274.625 257.734375 548.19140625 220 921 220 c 0
717.208984375 726.877929688 m 2
 765.551757812 721.505859375 816.72265625 716 860 716 c 0
 947.068359375 716 1024 752.556640625 1024 789 c 0
 1024 811.971679688 999.923828125 823.657226562 952.903320312 831.241210938 c 0
 869.983398438 843.859375 795.9375 897.034179688 795.9375 991.533203125 c 0
 795.9375 1167.31835938 975.767578125 1205.96191406 1128.82519531 1214.96582031 c 2
 1150 1216.2109375 l 1
 1150 1195 l 1
 1150 1102 l 1
 1150 1083.2890625 l 1
 1131.33007812 1082.04394531 l 2
 1028.734375 1075.20410156 932 1043.06835938 932 1000 c 0
 932 964.33984375 963.654296875 955.952148438 1026.8203125 947.801757812 c 0
 1112.15820312 934.502929688 1160 882.157226562 1160 797 c 0
 1160 722.962890625 1115.54589844 662.711914062 1036.921875 617.634765625 c 0
 985.463867188 588.33203125 922.434570312 574.331054688 848.161132812 574.331054688 c 0
 806.2265625 574.331054688 757.4765625 580.229492188 711.958984375 587.232421875 c 2
 695 589.841796875 l 1
 695 607 l 1
 695 707 l 1
 695 729.345703125 l 1
 717.208984375 726.877929688 l 2
EndSplineSet
Substitution2: "'fina' Terminal Forms in Arabic lookup 9 subtable" uniFEDA
Substitution2: "'medi' Medial Forms in Arabic lookup 11 subtable" uniFEDC
Substitution2: "'init' Initial Forms in Arabic lookup 13 subtable" uniFEDB
EndChar

StartChar: uni0644
Encoding: 1604 1604 39
GlifName: uni0644
Width: 1377
VWidth: 2311
GlyphClass: 2
Flags: HW
AnchorPoint: "Anchor-7" 682.95 -632.09 basechar 0
AnchorPoint: "Anchor-10" 632.91 1055.85 basechar 0
LayerCount: 2
Fore
SplineSet
671 -275 m 0
 946.571457544 -275 1077.10190886 -134.956023856 1071.00390625 161.6015625 c 2
 1046.70019531 1329.84179688 l 5
 1061.31445312 1334.17480469 l 5
 1233.31445312 1385.17480469 l 5
 1259 1392.79101562 l 5
 1259 1366 l 5
 1259 122 l 2
 1259 -279 1059.97167969 -488 668 -488 c 0
 307.965820312 -488 78 -278.744140625 78 68 c 0
 78 193.719726562 112.922851562 335.296875 181.684570312 492.03515625 c 2
 189.252929688 509.286132812 l 1
 206.92578125 502.762695312 l 1
 355.92578125 447.762695312 l 1
 375.328125 440.600585938 l 1
 367.51953125 421.44921875 l 2
 315.163085938 293.026367188 289 180.375976562 289 85 c 0
 289 -142.021484375 424.84375 -275 671 -275 c 0
EndSplineSet
Substitution2: "'fina' Terminal Forms in Arabic lookup 9 subtable" uniFEDE
Substitution2: "'medi' Medial Forms in Arabic lookup 11 subtable" uniFEE0
Substitution2: "'init' Initial Forms in Arabic lookup 13 subtable" uniFEDF
EndChar

StartChar: uni0645
Encoding: 1605 1605 40
GlifName: uni0645
Width: 1166
VWidth: 2311
GlyphClass: 2
Flags: HW
AnchorPoint: "Anchor-10" 605.79 1041.87 basechar 0
AnchorPoint: "Anchor-7" 692.148 -202.569 basechar 0
LayerCount: 2
Fore
SplineSet
501.432617188 217 m 1
 510 217 l 1
 654 217 l 1
 735 217 l 2
 825.770507812 217 844.869140625 221.913085938 859.375 232.274414062 c 2
 859.810546875 232.5859375 l 1
 860.262695312 232.873046875 l 2
 874.44140625 241.896484375 901 285.625976562 901 318 c 0
 901 384.631835938 744.875976562 503 626 503 c 0
 505.65625 503 504.735351562 385.448242188 501.432617188 217 c 1
736 0 m 2
 413 0 l 2
 306.55078125 0 255 -53.7109375 255 -209 c 0
 255 -220.225585938 254.985351562 -231.995117188 255.962890625 -243.721679688 c 2
 276.98046875 -713.10546875 l 1
 277.611328125 -727.19921875 l 1
 264.545898438 -732.521484375 l 1
 102.545898438 -798.521484375 l 1
 75 -809.744140625 l 1
 75 -780 l 1
 75 -196 l 2
 75 2.474609375 157.266601562 168.817382812 308.193359375 207.856445312 c 1
 307.462890625 221.440429688 307 229.372070312 307 245 c 0
 307 514.094726562 398.3359375 731 636 731 c 0
 822.916992188 731 1098 521.919921875 1098 350 c 0
 1098 270.890625 1047.4140625 141.646484375 995.791992188 84.9189453125 c 0
 942.528320312 26.38671875 873.522460938 0 736 0 c 2
EndSplineSet
Substitution2: "'init' Initial Forms in Arabic lookup 13 subtable" uniFEE3
Substitution2: "'medi' Medial Forms in Arabic lookup 11 subtable" uniFEE4
Substitution2: "'fina' Terminal Forms in Arabic lookup 9 subtable" uniFEE2
EndChar

StartChar: uni0647
Encoding: 1607 1607 42
GlifName: uni0647
Width: 895
VWidth: 2311
GlyphClass: 2
Flags: HW
AnchorPoint: "Anchor-10" 397.3 1136.62 basechar 0
AnchorPoint: "Anchor-7" 453.016 -179.273 basechar 0
LayerCount: 2
Fore
SplineSet
448 221 m 0
 579.712890625 221 624 267.598632812 624 343 c 0
 624 433.020507812 572.41796875 481.103515625 438.517578125 594.375 c 1
 320.068359375 485.844726562 271 432.661132812 271 343 c 0
 271 262.26953125 319.376953125 221 448 221 c 0
394.426757812 918.670898438 m 2
 679.00390625 693.006835938 821 540.176757812 821 340 c 0
 821 127.3046875 679.05859375 4 448 4 c 0
 225.5234375 4 78 115.98828125 78 340 c 0
 78 472.975585938 146.1171875 574.40625 289.215820312 729.392578125 c 1
 268.94921875 746.844726562 l 1
 255.15625 758.72265625 l 1
 265.686523438 773.5703125 l 1
 365.686523438 914.5703125 l 1
 377.893554688 931.78125 l 1
 394.426757812 918.670898438 l 2
EndSplineSet
Substitution2: "'fina' Terminal Forms in Arabic lookup 9 subtable" uniFEEA
Substitution2: "'medi' Medial Forms in Arabic lookup 11 subtable" uniFEEC
Substitution2: "'init' Initial Forms in Arabic lookup 13 subtable" uniFEEB
EndChar

StartChar: uni0648
Encoding: 1608 1608 43
GlifName: uni0648
Width: 878
VWidth: 2311
GlyphClass: 2
Flags: HW
AnchorPoint: "Anchor-7" 316.38 -618.85 basechar 0
AnchorPoint: "Anchor-10" 424.959 1041.28 basechar 0
LayerCount: 2
Fore
SplineSet
436.716796875 543.08203125 m 0
 348.05859375 543.08203125 271.232421875 437.622070312 271.232421875 315.719726562 c 0
 271.232421875 238.48046875 308.196289062 200.989257812 425.666992188 200.989257812 c 0
 525.564453125 200.989257812 582.075195312 232.95703125 599.948242188 245.001953125 c 1
 597.91796875 432.196289062 543.063476562 543.08203125 436.716796875 543.08203125 c 0
436.065429688 755.01171875 m 0
 661.930664062 755.01171875 800.034179688 548.216796875 800.034179688 191.911132812 c 4
 800.034179688 -264.083984375 519.119140625 -514 101 -514 c 6
 97.5146484375 -514 l 5
 92.458984375 -501.498046875 l 5
 37.458984375 -365.498046875 l 5
 27.0458984375 -339.75 l 5
 382.011370367 -308.356609053 536.274060229 -195.137053067 586.223632812 24.9013671875 c 5
 551.645507812 11.203125 494.260742188 -5 416 -5 c 0
 203.350585938 -5 78.9853515625 107.791015625 78.9853515625 292.520507812 c 0
 78.9853515625 535.060546875 221.80078125 755.01171875 436.065429688 755.01171875 c 0
EndSplineSet
Substitution2: "'fina' Terminal Forms in Arabic lookup 9 subtable" uniFEEE
EndChar

StartChar: uni0649
Encoding: 1609 1609 44
GlifName: uni0649
Width: 1490
VWidth: 2311
GlyphClass: 2
Flags: HW
AnchorPoint: "Anchor-10" 628 805 basechar 0
AnchorPoint: "Anchor-7" 706 -627 basechar 0
LayerCount: 2
Fore
SplineSet
1364 491 m 1
 1326 503 1277 513 1240 513 c 0
 1063 513 955 362 955 244 c 0
 955 228 973 213 1045 213 c 2
 1160 213 l 2
 1333 213 1413 154 1413 21 c 0
 1413 -309 1093 -482 708 -482 c 0
 315 -482 77 -294 77 79 c 0
 77 219 122 391 206 570 c 1
 265 544 325 518 387 495 c 1
 378 476 l 1
 314 331 283 206 283 81 c 0
 283 -152 418 -266 709 -266 c 0
 975 -266 1221 -165 1221 -14 c 0
 1221 -5 1217 -9.55224503335e-15 1139 0 c 2
 1028 0 l 1
 851 1 752 75 752 222 c 0
 754 467 966 733 1240 733 c 4
 1303 733 1373 716 1428 688 c 1
 1406 623 1385 557 1364 491 c 1
EndSplineSet
Substitution2: "'fina' Terminal Forms in Arabic lookup 9 subtable" uniFEF0
Substitution2: "'medi' Medial Forms in Arabic lookup 11 subtable" uniFBE9
Substitution2: "'init' Initial Forms in Arabic lookup 13 subtable" uniFBE8
EndChar

StartChar: uni064B
Encoding: 1611 1611 46
GlifName: uni064B_
Width: -26
VWidth: 2316
GlyphClass: 4
Flags: HW
AnchorPoint: "Anchor-10" 583.551 1123.65 mark 0
AnchorPoint: "Anchor-9" 583.551 1123.65 mark 0
AnchorPoint: "Anchor-1" 553.285 1596.25 basemark 0
AnchorPoint: "Anchor-1" 583.551 1123.65 mark 0
LayerCount: 2
Fore
SplineSet
323 1076 m 1
 323 1180 l 1
 323 1182.68615025 l 1
 325.486419246 1183.70257658 l 1
 780.486419246 1369.70257658 l 1
 786 1371.95647992 l 1
 786 1366 l 1
 786 1263 l 1
 786 1260.31930675 l 1
 783.520545075 1259.30027803 l 1
 328.520545075 1072.30027803 l 1
 323 1070.03139467 l 1
 323 1076 l 1
323 1288 m 1
 323 1392 l 1
 323 1394.68615025 l 1
 325.486419246 1395.70257658 l 1
 780.486419246 1581.70257658 l 1
 786 1583.95647992 l 1
 786 1578 l 1
 786 1475 l 1
 786 1472.31930675 l 1
 783.520545075 1471.30027803 l 1
 328.520545075 1284.30027803 l 1
 323 1282.03139467 l 1
 323 1288 l 1
EndSplineSet
EndChar

StartChar: uni064C
Encoding: 1612 1612 47
GlifName: uni064C_
Width: -26
VWidth: 2316
GlyphClass: 4
Flags: HW
AnchorPoint: "Anchor-10" 680.906 1278.67 mark 0
AnchorPoint: "Anchor-9" 680.906 1278.67 mark 0
AnchorPoint: "Anchor-1" 637.739 1852.46 basemark 0
AnchorPoint: "Anchor-1" 680.906 1278.67 mark 0
LayerCount: 2
Fore
SplineSet
485 1629 m 0
 485 1728.51263055 555.545790989 1795 652 1795 c 0
 748.990369361 1795 818 1729.37118855 818 1628 c 0
 818 1589.98169181 807.99391678 1547.62668886 792.634038929 1510.11313989 c 1
 808.902689423 1507.60166065 819.961166485 1507 830 1507 c 2
 834 1507 l 1
 834 1503 l 1
 834 1427 l 1
 834 1422.79500312 l 1
 829.800249532 1423.00499064 l 2
 810.424513337 1423.97377745 786.198102144 1426.08494601 756.432933458 1431.48199753 c 1
 692.706092718 1281.85562169 598.679322604 1206.99202128 471.867219481 1206.99202128 c 0
 336.389530925 1206.99202128 266.998237961 1303.07775026 264.000514642 1489.93583713 c 2
 263.945840379 1493.34386623 l 1
 267.302014706 1493.9386313 l 1
 346.302014706 1507.9386313 l 1
 350.9018307 1508.75378857 l 1
 350.999132227 1504.08331525 l 2
 353.995480269 1360.25860922 395.527051964 1293 473 1293 c 0
 544.053094241 1293 609.601580854 1345.14611673 667.165772788 1445.81694353 c 1
 562.646228821 1483.11091619 485 1532.52928783 485 1629 c 0
706.676506469 1527.75973611 m 1
 720.418494855 1560.46433846 732 1596.50138536 732 1627 c 0
 732 1672.97203515 697.342062923 1707 656 1707 c 0
 607.744759853 1707 573 1674.92386464 573 1625 c 0
 573 1572.51488075 642.500425722 1545.06455309 706.676506469 1527.75973611 c 1
EndSplineSet
EndChar

StartChar: uni064D
Encoding: 1613 1613 48
GlifName: uni064D_
Width: -26
VWidth: 2316
GlyphClass: 4
Flags: HW
AnchorPoint: "Anchor-7" 542.278 32.7109 mark 0
AnchorPoint: "Anchor-6" 542.278 32.7109 mark 0
AnchorPoint: "Anchor-0" 592.022 -407.025 basemark 0
AnchorPoint: "Anchor-0" 542.278 32.7109 mark 0
LayerCount: 2
Fore
SplineSet
328 -446 m 1
 328 -342 l 1
 328 -339.311619473 l 1
 330.48926458 -338.296261552 l 1
 786.48926458 -152.296261552 l 1
 792 -150.048461578 l 1
 792 -156 l 1
 792 -260 l 1
 792 -262.688380527 l 1
 789.51073542 -263.703738448 l 1
 333.51073542 -449.703738448 l 1
 328 -451.951538422 l 1
 328 -446 l 1
328 -234 m 1
 328 -130 l 1
 328 -127.311619473 l 1
 330.48926458 -126.296261552 l 1
 786.48926458 59.7037384481 l 1
 792 61.9515384219 l 1
 792 56 l 1
 792 -48 l 1
 792 -50.6883805272 l 1
 789.51073542 -51.7037384481 l 1
 333.51073542 -237.703738448 l 1
 328 -239.951538422 l 1
 328 -234 l 1
EndSplineSet
EndChar

StartChar: uni064E
Encoding: 1614 1614 49
GlifName: uni064E_
Width: -26
VWidth: 2316
GlyphClass: 4
Flags: HW
AnchorPoint: "Anchor-10" 545.66 1397.63 mark 0
AnchorPoint: "Anchor-9" 545.66 1397.63 mark 0
AnchorPoint: "Anchor-1" 541.396 1651.77 basemark 0
AnchorPoint: "Anchor-1" 545.66 1397.63 mark 0
LayerCount: 2
Fore
SplineSet
292 1349 m 1
 292 1453 l 1
 292 1455.68838053 l 1
 294.48926458 1456.70373845 l 1
 750.48926458 1642.70373845 l 1
 756 1644.95153842 l 1
 756 1639 l 1
 756 1535 l 1
 756 1532.31161947 l 1
 753.51073542 1531.29626155 l 1
 297.51073542 1345.29626155 l 1
 292 1343.04846158 l 1
 292 1349 l 1
EndSplineSet
EndChar

StartChar: uni064F
Encoding: 1615 1615 50
GlifName: uni064F_
Width: -26
VWidth: 2316
GlyphClass: 4
Flags: HW
AnchorPoint: "Anchor-10" 588.295 1344.37 mark 0
AnchorPoint: "Anchor-9" 588.295 1344.37 mark 0
AnchorPoint: "Anchor-1" 542.134 1865.4 basemark 0
AnchorPoint: "Anchor-1" 588.295 1344.37 mark 0
LayerCount: 2
Fore
SplineSet
723 1423 m 2
 695.626859691 1423 669.574063257 1425.01334499 644.815523806 1428.67911679 c 1
 577.212459687 1336.58916366 443.474513178 1283.96514364 280.219182398 1275.00600963 c 2
 276 1274.77446913 l 1
 276 1279 l 1
 276 1357 l 1
 276 1360.65033497 l 1
 279.635115483 1360.98332264 l 2
 405.770492911 1372.53770836 509.78102673 1406.89677221 557.880419986 1452.50353472 c 1
 466.76343293 1471.63720366 376 1532.20007143 376 1626 c 0
 376 1725.94170165 446.765041572 1792 543 1792 c 0
 639.528714366 1792 710 1725.45059939 710 1625 c 0
 710 1586.83201503 701.111685336 1547.88809596 685.625258701 1509.19964256 c 1
 698.327839722 1507.3570391 710.072536166 1506 723 1506 c 2
 727 1506 l 1
 727 1502 l 1
 727 1427 l 1
 727 1423 l 1
 723 1423 l 2
597.676506469 1524.75973611 m 1
 611.418494855 1557.46433846 623 1593.50138536 623 1624 c 0
 623 1670.4296613 589.20134082 1703 547 1703 c 0
 498.271950074 1703 464 1672.20496061 464 1622 c 0
 464 1569.51488075 533.500425722 1542.06455309 597.676506469 1524.75973611 c 1
EndSplineSet
EndChar

StartChar: uni0650
Encoding: 1616 1616 51
GlifName: uni0650
Width: -26
VWidth: 2316
GlyphClass: 4
Flags: HW
AnchorPoint: "Anchor-7" 571.144 -44.8242 mark 0
AnchorPoint: "Anchor-6" 571.144 -44.8242 mark 0
AnchorPoint: "Anchor-0" 619.091 -324.624 basemark 0
AnchorPoint: "Anchor-0" 571.144 -44.8242 mark 0
LayerCount: 2
Fore
SplineSet
339 -346 m 1
 339 -242 l 1
 339 -239.313849753 l 1
 341.486419246 -238.297423424 l 1
 796.486419246 -52.2974234241 l 1
 802 -50.0435200828 l 1
 802 -56 l 1
 802 -159 l 1
 802 -161.680693245 l 1
 799.520545075 -162.699721973 l 1
 344.520545075 -349.699721973 l 1
 339 -351.968605333 l 1
 339 -346 l 1
EndSplineSet
EndChar

StartChar: uni0651
Encoding: 1617 1617 52
GlifName: uni0651
Width: -26
VWidth: 2393
GlyphClass: 4
Flags: HW
AnchorPoint: "Anchor-10" 598.801 1453.71 mark 0
AnchorPoint: "Anchor-9" 598.801 1453.71 mark 0
AnchorPoint: "Anchor-1" 570.087 1839.1 basemark 0
AnchorPoint: "Anchor-1" 598.801 1453.71 mark 0
LayerCount: 2
Fore
SplineSet
611.997451417 1758.14276612 m 2
 613.000776889 1730.0496529 613.003669714 1703.09840435 614.989072416 1676.29546787 c 0
 619.477770525 1615.69415203 640.477087136 1578 681 1578 c 0
 724.842523048 1578 744 1608.50887679 744 1675 c 0
 744 1699.40977804 738.057408721 1739.31267638 727.08346465 1792.18713417 c 2
 726.23157559 1796.29169055 l 1
 730.371539805 1796.95032123 l 1
 818.371539805 1810.95032123 l 1
 821.849662623 1811.50365895 l 1
 822.838949628 1808.12359501 l 2
 834.939852325 1766.77884413 841 1725.40032159 841 1685 c 0
 841 1549.08647693 790.87391003 1479.02911737 690.020407632 1478 c 0
 648.830005199 1478 603.924528416 1496.68740359 582.247561797 1528.88117043 c 1
 558.313370297 1455.16886445 491.301518249 1434 432 1434 c 0
 335.647138108 1434 289.873817788 1497.84835739 289.873817788 1616.0779836 c 0
 289.873817788 1652.5870795 294.809529551 1686.50394736 303.140944715 1717.05246962 c 2
 304.092044179 1720.53983432 l 1
 307.657595949 1719.9455757 l 1
 385.657595949 1706.9455757 l 1
 389.834452242 1706.24943298 l 1
 388.901764008 1702.11895651 l 2
 381.979794033 1671.46451805 380 1643.77734912 380 1620 c 0
 380 1565.24370508 401.534903277 1540 444 1540 c 0
 524.882500697 1540 527.4140625 1596.23305366 527.4140625 1719.33203125 c 0
 527.4140625 1731.62808674 527.293231064 1744.47179508 527.000945392 1757.91303882 c 2
 526.91207265 1762 l 1
 531 1762 l 1
 608 1762 l 1
 611.859693065 1762 l 1
 611.997451417 1758.14276612 l 2
EndSplineSet
EndChar

StartChar: uni0652
Encoding: 1618 1618 53
GlifName: uni0652
Width: -26
VWidth: 2316
GlyphClass: 4
Flags: HW
AnchorPoint: "Anchor-10" 605.219 1271.43 mark 0
AnchorPoint: "Anchor-9" 605.219 1271.43 mark 0
AnchorPoint: "Anchor-1" 589.537 1682.66 basemark 0
AnchorPoint: "Anchor-1" 605.219 1271.43 mark 0
LayerCount: 2
Fore
SplineSet
417 1462 m 0
 417 1560.20107993 495.798759594 1639 594 1639 c 0
 692.179126478 1639 772 1560.23228202 772 1462 c 0
 772 1363.78984348 692.210299451 1284 594 1284 c 0
 495.76791599 1284 417 1363.8207581 417 1462 c 0
597 1371 m 0
 646.737184459 1371 687 1412.16562709 687 1462 c 0
 687 1511.75337584 646.851691288 1551 597 1551 c 0
 547.780953213 1551 506.982421875 1510.69824458 506.982421875 1461.77734375 c 0
 506.982421875 1410.27250062 545.586406111 1371 597 1371 c 0
EndSplineSet
EndChar

StartChar: uni0653
Encoding: 1619 1619 54
GlifName: uni0653
Width: 0
VWidth: 2317
GlyphClass: 4
Flags: HW
AnchorPoint: "Anchor-10" 431.25 1353.11 mark 0
AnchorPoint: "Anchor-9" 431.25 1353.11 mark 0
AnchorPoint: "Anchor-1" 469.41 1743.53 basemark 0
AnchorPoint: "Anchor-1" 431.25 1353.11 mark 0
LayerCount: 2
Fore
SplineSet
163 1323 m 1
 78.4404296875 1444.08007812 l 5
 148.9609375 1556.92871094 233.407226562 1604.7890625 331.780273438 1587.66015625 c 6
 466.400390625 1564.21972656 l 6
 518.133789062 1555.40625 583.146484375 1574.48632812 661.440429688 1621.45996094 c 5
 726.099609375 1486.12011719 l 1
 657.366536458 1423.3733724 574.286783854 1397.10677083 476.860351562 1407.3203125 c 2
 330.719726562 1422.51953125 l 2
 268.239908854 1428.83984375 212.333333333 1395.66666667 163 1323 c 1
EndSplineSet
EndChar

StartChar: uni0657
Encoding: 1623 1623 57
GlifName: uni0657
Width: -26
VWidth: 2316
GlyphClass: 4
Flags: HW
AnchorPoint: "Anchor-10" 513.285 1400.55 mark 0
AnchorPoint: "Anchor-9" 513.285 1400.55 mark 0
AnchorPoint: "Anchor-1" 537.285 2069.85 basemark 0
AnchorPoint: "Anchor-1" 513.285 1400.55 mark 0
LayerCount: 2
Fore
SplineSet
265.099968765 1808.99875059 m 2
 304.276776673 1808.01933039 348.962202707 1804.87329279 393.358604103 1800.19617665 c 1
 494.904840007 1943.53716867 623.830185591 2021.90786957 784.626637165 2036.9825369 c 2
 789 2037.39253967 l 1
 789 2033 l 1
 789 1955 l 1
 789 1951.5978729 l 1
 785.641975186 1951.0518526 l 2
 665.317907197 1931.4869635 566.966239414 1873.62643003 492.766272256 1780.14546335 c 1
 579.226644688 1753.39367165 662 1697.80853313 662 1599 c 0
 662 1505.70149683 595.324879344 1434 501 1434 c 0
 406.724006887 1434 328 1500.21142115 328 1603 c 0
 328 1631.54505302 335.149011417 1671.9216014 349.66068142 1718.38232684 c 1
 323.335022951 1720.30378253 296.843983587 1722 265 1722 c 2
 261 1722 l 1
 261 1726 l 1
 261 1805 l 1
 261 1809.1012498 l 1
 265.099968765 1808.99875059 l 2
501 1520 m 0
 546.708898961 1520 573 1550.64515837 573 1597 c 0
 573 1653.93161795 503.859861727 1688.30786923 439.381091995 1704.30674057 c 1
 422.131314124 1662.4193876 414 1630.60849814 414 1605 c 0
 414 1555.17028699 453.292896476 1520 501 1520 c 0
EndSplineSet
EndChar

StartChar: uni065A
Encoding: 1626 1626 58
GlifName: uni065A_
Width: 1135
VWidth: 2316
GlyphClass: 4
Flags: HW
AnchorPoint: "Anchor-10" 573.285 1350.55 mark 0
AnchorPoint: "Anchor-9" 573.285 1350.55 mark 0
AnchorPoint: "Anchor-1" 571.012 1862.38 basemark 0
AnchorPoint: "Anchor-1" 573.285 1350.55 mark 0
LayerCount: 2
Fore
SplineSet
498.563494603 1441.95294586 m 1
 305.563494603 1765.95294586 l 1
 301.961391365 1772 l 1
 309 1772 l 1
 433 1772 l 1
 435.29748133 1772 l 1
 436.455115604 1770.0154841 l 1
 573.012284656 1535.91748001 l 1
 710.551155414 1770.02619619 l 1
 711.710765149 1772 l 1
 714 1772 l 1
 838 1772 l 1
 845.057284448 1772 l 1
 841.431839482 1765.94513315 l 1
 647.431839482 1441.94513315 l 1
 646.267160991 1440 l 1
 644 1440 l 1
 502 1440 l 1
 499.726823463 1440 l 1
 498.563494603 1441.95294586 l 1
EndSplineSet
EndChar

StartChar: uni0660
Encoding: 1632 1632 59
GlifName: afii57392
Width: 866
VWidth: 2311
GlyphClass: 2
Flags: HW
LayerCount: 2
Fore
SplineSet
433 616.40625 m 4
 364.66015625 616.40625 307.688476562 558.650390625 307.688476562 489.90625 c 4
 307.688476562 421.330078125 364.423828125 364.59375 433 364.59375 c 4
 501.576171875 364.59375 558.311523438 421.330078125 558.311523438 489.90625 c 4
 558.311523438 558.650390625 501.33984375 616.40625 433 616.40625 c 4
433 189 m 4
 266.703125 189 130 328.026367188 130 494 c 4
 130 660.041015625 266.796875 798 433 798 c 4
 599.203125 798 736 660.041015625 736 494 c 4
 736 328.026367188 599.296875 189 433 189 c 4
EndSplineSet
EndChar

StartChar: uni0661
Encoding: 1633 1633 60
GlifName: afii57393
Width: 756
VWidth: 2311
GlyphClass: 2
Flags: HW
LayerCount: 2
Fore
SplineSet
338 23 m 2
 338 530.901367188 259.137695312 913.891601562 106.862304688 1241.57128906 c 6
 98.54296875 1259.47558594 l 5
 116.337890625 1268.02636719 l 5
 270.337890625 1342.02636719 l 5
 289.166992188 1351.07519531 l 5
 297.38671875 1331.86914062 l 6
 486.95703125 888.913085938 541 558.95703125 541 20 c 2
 541 0 l 1
 521 0 l 1
 358 0 l 1
 338 0 l 1
 338 20 l 1
 338 23 l 2
EndSplineSet
EndChar

StartChar: uni0662
Encoding: 1634 1634 61
GlifName: afii57394
Width: 1126
VWidth: 2170
GlyphClass: 2
Flags: HW
LayerCount: 2
Fore
SplineSet
338 23 m 2
 338 530.901367188 259.137695312 913.891601562 106.862304688 1241.57128906 c 6
 98.54296875 1259.47558594 l 5
 116.337890625 1268.02636719 l 5
 270.337890625 1342.02636719 l 5
 290.283203125 1351.61035156 l 5
 297.807617188 1330.80175781 l 5
 395.791992188 1059.84667969 l 6
 420.82421875 991.655273438 485.624023438 954 608 954 c 4
 769.833984375 954 813.196289062 1113.12988281 842.18359375 1325.70214844 c 6
 845.243164062 1348.13769531 l 5
 867.12890625 1342.33105469 l 5
 1014.12890625 1303.33105469 l 5
 1030.12890625 1299.0859375 l 5
 1028.94921875 1282.57519531 l 6
 1008.33789062 994.013671875 894.931640625 732.990234375 613.014648438 732.990234375 c 4
 566.244140625 732.990234375 520.159179688 739.145507812 476.3203125 750.670898438 c 5
 519.056640625 503.767578125 541 319.244140625 541 20 c 2
 541 0 l 1
 521 0 l 1
 358 0 l 1
 338 0 l 1
 338 20 l 1
 338 23 l 2
EndSplineSet
EndChar

StartChar: uni0663
Encoding: 1635 1635 62
GlifName: afii57395
Width: 1335
VWidth: 2170
GlyphClass: 2
Flags: HW
LayerCount: 2
Fore
SplineSet
963 740 m 4
 876.39453125 740 806.658203125 769.21875 756.80078125 827.104492188 c 5
 710.53125 767.810546875 644.209960938 737.944335938 561.11328125 737 c 4
 532.772460938 737 504.307617188 741.763671875 476.771484375 749.528320312 c 5
 518.081054688 519.663085938 540.04296875 332.883789062 541 20.0615234375 c 2
 541.061523438 0 l 1
 521 0 l 1
 358 0 l 1
 338 0 l 1
 338 20 l 1
 338 23 l 2
 338 534.034179688 260.123046875 912.309570312 106.868164062 1241.56054688 c 6
 98.53125 1259.47070312 l 5
 116.337890625 1268.02636719 l 5
 270.337890625 1342.02636719 l 5
 290.31640625 1351.62695312 l 5
 297.819335938 1330.76953125 l 5
 397.82421875 1052.75683594 l 6
 423.169921875 982.150390625 471.208007812 949 549 949 c 4
 656.938476562 949 666 1122.7109375 666 1275 c 6
 666 1295.15527344 l 5
 686.155273438 1294.99902344 l 5
 815.155273438 1293.99902344 l 5
 833.90234375 1293.85449219 l 5
 834.967773438 1275.13671875 l 6
 841.966796875 1152.15039062 845.209960938 1070.53710938 851.708984375 1033.40136719 c 4
 858.696289062 992.34765625 884.784179688 949.15234375 950.764648438 949.999023438 c 4
 1022.90136719 950.774414062 1047 1013.95898438 1047 1192 c 4
 1047 1228.28125 1045.03027344 1268.88671875 1042.04394531 1313.66992188 c 6
 1040.60351562 1335.28320312 l 5
 1062.26269531 1334.99804688 l 5
 1214.26269531 1332.99804688 l 5
 1232.66992188 1332.75585938 l 5
 1233.95117188 1314.39160156 l 6
 1236.98828125 1270.86230469 1238 1231.35058594 1238 1193 c 4
 1238 902.702148438 1151.3984375 740 963 740 c 4
EndSplineSet
EndChar

StartChar: uni0664
Encoding: 1636 1636 63
GlifName: afii57396
Width: 990
VWidth: 2442
GlyphClass: 2
Flags: HW
LayerCount: 2
Fore
SplineSet
734.088867188 681.708984375 m 6
 429.673828125 547.083007812 292 464.169921875 292 363 c 0
 292 260.852539062 388.396484375 220 578 220 c 2
 891 220 l 1
 910.669921875 220 l 1
 910.997070312 200.333007812 l 1
 913.997070312 20.3330078125 l 1
 914.3359375 0 l 1
 894 0 l 1
 538 0 l 2
 239.395507812 0 76 113.783203125 76 344 c 0
 76 493.2421875 185.129882812 581.805664062 387.203125 724.047851562 c 5
 234.852539062 771.685546875 154 858.692382812 154 1001 c 4
 154 1234.44433594 343.564453125 1327.87597656 688.55078125 1352.94726562 c 6
 710 1354.50585938 l 5
 710 1333 l 5
 710 1144 l 5
 710 1125.07519531 l 5
 691.104492188 1124.03027344 l 6
 471.020507812 1111.86035156 385 1070.76757812 385 1002 c 4
 385 898.267578125 482.685546875 863.064453125 724.501953125 856.994140625 c 6
 743.717773438 856.51171875 l 5
 743.998046875 837.291992188 l 5
 745.998046875 700.291992188 l 5
 746.19140625 687.060546875 l 5
 734.088867188 681.708984375 l 6
EndSplineSet
EndChar

StartChar: uni0665
Encoding: 1637 1637 64
GlifName: afii57397
Width: 1174
VWidth: 2311
GlyphClass: 2
Flags: HW
LayerCount: 2
Fore
SplineSet
602.552734375 221 m 0
 794.491210938 221 874.583984375 257.672851562 874.583984375 429.301757812 c 0
 874.583984375 631.530273438 771.6484375 786.208984375 567.360351562 982.676757812 c 5
 384.748046875 785.377929688 297.552734375 628.120117188 297.552734375 454 c 0
 297.552734375 265.607421875 388.796875 221 602.552734375 221 c 0
601.583984375 1 m 0
 259.92578125 1 74.447265625 115.250976562 74.447265625 442.244140625 c 0
 74.447265625 687.65625 181.91796875 883.936523438 395.9453125 1109.15234375 c 5
 348.006835938 1153.28613281 l 5
 334.546875 1165.67773438 l 5
 345.693359375 1180.18457031 l 5
 471.693359375 1344.18457031 l 5
 483.844726562 1360.00097656 l 5
 499.694335938 1347.89257812 l 6
 896.470703125 1044.77246094 1099.55273438 765.580078125 1099.55273438 431 c 0
 1099.55273438 112.919921875 926.078125 2.017578125 601.583984375 1 c 0
EndSplineSet
EndChar

StartChar: uni0666
Encoding: 1638 1638 65
GlifName: afii57398
Width: 1175
VWidth: 2311
GlyphClass: 2
Flags: HW
LayerCount: 2
Fore
SplineSet
947 1324.04589844 m 6
 948.993164062 893.639648438 1019.50878906 329.349609375 1097.37597656 24.95703125 c 2
 1103.76074219 0 l 1
 1078 0 l 1
 889 0 l 1
 873.51953125 0 l 1
 869.638671875 14.9853515625 l 2
 825.489257812 185.44921875 746.106445312 819.259765625 736.685546875 1101.94335938 c 5
 654.397460938 1080.828125 561.3203125 1071 454 1071 c 4
 334.944335938 1071 213.076171875 1089.31933594 89.484375 1124.77539062 c 6
 75 1128.93066406 l 5
 75 1144 l 5
 75 1328 l 5
 75 1353.95410156 l 5
 100.09765625 1347.33984375 l 6
 227.3828125 1313.79101562 359.633789062 1297 496.75 1297 c 4
 633.864257812 1297 775.852539062 1313.79785156 922.522460938 1347.4921875 c 6
 947 1353.11523438 l 5
 947 1328 l 5
 947 1324.04589844 l 6
EndSplineSet
EndChar

StartChar: uni0667
Encoding: 1639 1639 66
GlifName: afii57399
Width: 1260
VWidth: 2311
GlyphClass: 2
Flags: HW
LayerCount: 2
Fore
SplineSet
531.206054688 17.1376953125 m 2
 472.568359375 422.629882812 337.532226562 766.100585938 87.4169921875 1227.46777344 c 6
 77.9990234375 1244.84179688 l 5
 95.2587890625 1254.46679688 l 5
 251.258789062 1341.46679688 l 5
 269.724609375 1351.765625 l 5
 278.981445312 1332.75585938 l 6
 433.831054688 1014.76074219 557.737304688 729.947265625 635.306640625 407.245117188 c 1
 713.62109375 724.524414062 834.515625 1008.44238281 980.7734375 1332.23339844 c 6
 989.7578125 1352.12304688 l 5
 1008.7890625 1341.44042969 l 5
 1163.7890625 1254.44042969 l 5
 1180.47167969 1245.07714844 l 5
 1171.85839844 1227.99511719 l 6
 936.565429688 761.397460938 802.322265625 417.461914062 729.6796875 16.435546875 c 2
 726.703125 -0 l 1
 710 0 l 1
 551 0 l 1
 533.684570312 0 l 1
 531.206054688 17.1376953125 l 2
EndSplineSet
EndChar

StartChar: uni0668
Encoding: 1640 1640 67
GlifName: afii57400
Width: 1260
VWidth: 2311
GlyphClass: 2
Flags: HW
LayerCount: 2
Fore
SplineSet
551 1324 m 5
 710 1324 l 5
 726.703125 1324 l 5
 729.6796875 1307.56445312 l 6
 802.322265625 906.538085938 936.565429688 562.602539062 1171.85839844 96.0048828125 c 2
 1180.47167969 78.9228515625 l 1
 1163.7890625 69.5595703125 l 1
 1008.7890625 -17.4404296875 l 1
 989.7578125 -28.123046875 l 1
 980.7734375 -8.2333984375 l 2
 834.610351562 315.34765625 713.168945312 601.310546875 635.306640625 916.754882812 c 5
 557.296875 592.224609375 433.927734375 309.436523438 278.981445312 -8.755859375 c 2
 269.724609375 -27.765625 l 1
 251.258789062 -17.466796875 l 1
 95.2587890625 69.533203125 l 1
 77.9990234375 79.158203125 l 1
 87.4169921875 96.5322265625 l 2
 337.532226562 557.899414062 472.568359375 901.370117188 531.206054688 1306.86230469 c 6
 533.684570312 1324 l 5
 551 1324 l 5
EndSplineSet
EndChar

StartChar: uni0669
Encoding: 1641 1641 68
GlifName: afii57401
Width: 1129
VWidth: 2311
GlyphClass: 2
Flags: HW
LayerCount: 2
Fore
SplineSet
94 931 m 4
 94 1109.51367188 238.186523438 1347.02050781 474.052734375 1347.02050781 c 4
 728.463867188 1347.02050781 840.798828125 1189.99902344 857.963867188 898.19921875 c 4
 879.302734375 550.390625 899.033203125 326.853515625 975.318359375 42.1767578125 c 2
 980.279296875 23.6630859375 l 1
 961.993164062 17.9189453125 l 1
 805.993164062 -31.0810546875 l 1
 787.198242188 -36.984375 l 1
 781.01171875 -18.2802734375 l 2
 737.981445312 111.8125 705.34375 260.756835938 680.569335938 577.861328125 c 5
 648.8046875 576.12890625 619.057617188 575.286132812 589.811523438 575.286132812 c 4
 291.889648438 575.286132812 94 648.3828125 94 931 c 4
470.965820312 1137.0078125 m 4
 365.154296875 1137.0078125 302 1022.98046875 302 937 c 4
 302 811.591796875 376.434570312 785.73046875 548.484375 785.73046875 c 4
 582.278320312 785.73046875 621.106445312 787.661132812 659.846679688 791.091796875 c 5
 645.436523438 1017.38476562 621.401367188 1137.0078125 470.965820312 1137.0078125 c 4
EndSplineSet
EndChar

StartChar: uni066A
Encoding: 1642 1642 69
GlifName: afii57381
Width: 1033
VWidth: 4036
GlyphClass: 2
Flags: HW
LayerCount: 2
Fore
SplineSet
750 1330 m 5
 882 1270 l 5
 900 1262 l 5
 302 -21 l 5
 284 -13 l 5
 152 47 l 5
 133 55 l 5
 732 1338 l 5
 750 1330 l 5
617 193 m 4
 617 277 686 347 770 347 c 4
 854 347 923 277 923 193 c 4
 923 109 854 40 770 40 c 4
 685 40 617 106 617 193 c 4
110 1119 m 4
 110 1203 179 1273 263 1273 c 4
 347 1273 416 1203 416 1119 c 4
 416 1035 347 966 263 966 c 4
 178 966 110 1032 110 1119 c 4
EndSplineSet
EndChar

StartChar: uni066B
Encoding: 1643 1643 70
GlifName: uni066B_
Width: 772
VWidth: 2950
GlyphClass: 2
Flags: HW
LayerCount: 2
Fore
SplineSet
542.322479075 731.186157979 m 1
 660.322479075 677.186157979 l 1
 678.186855447 669.010934894 l 1
 670.331818938 651.003474853 l 1
 205.331818938 -414.996525147 l 1
 197.13418571 -433.789378955 l 1
 178.550701655 -425.127585539 l 1
 60.5507016554 -370.127585539 l 1
 42.8617434839 -361.882732154 l 1
 50.6709334179 -343.997168112 l 1
 515.670933418 721.002831888 l 1
 523.815113111 739.655630539 l 1
 542.322479075 731.186157979 l 1
EndSplineSet
PairPos2: "'kern' Horizontal Kerning lookup 15-4" uni06F2 dx=-130 dy=0 dh=-130 dv=0 dx=0 dy=0 dh=0 dv=0
PairPos2: "'kern' Horizontal Kerning lookup 15-4" uni06F3 dx=-130 dy=0 dh=-130 dv=0 dx=0 dy=0 dh=0 dv=0
PairPos2: "'kern' Horizontal Kerning lookup 15-4" uni06F4 dx=-110 dy=0 dh=-110 dv=0 dx=0 dy=0 dh=0 dv=0
EndChar

StartChar: uni066C
Encoding: 1644 1644 71
GlifName: uni066C_
Width: 567
VWidth: 2442
GlyphClass: 2
Flags: HW
LayerCount: 2
Fore
SplineSet
259 258 m 4
 368.48046875 258 397 214.103515625 397 108 c 4
 397 -50.650390625 271.748046875 -219.834960938 176.04296875 -302.162109375 c 6
 163.399414062 -313.038085938 l 5
 150.428710938 -302.5546875 l 5
 77.4287109375 -243.5546875 l 5
 62.0068359375 -231.090820312 l 5
 74.337890625 -215.5625 l 6
 125.391601562 -151.272460938 161.125 -102.6171875 186.079101562 -39.912109375 c 5
 131.8203125 24.5751953125 117 58.8935546875 117 115 c 4
 117 216.831054688 163.981445312 258 259 258 c 4
EndSplineSet
EndChar

StartChar: uni066D
Encoding: 1645 1645 72
GlifName: afii63167
Width: 1436
VWidth: 2948
GlyphClass: 2
Flags: HW
LayerCount: 2
Fore
SplineSet
151 1079 m 1
 568.517578125 1079 l 1
 698.999023438 1476.24121094 l 1
 718 1534.08984375 l 1
 737.000976562 1476.24121094 l 1
 867.482421875 1079 l 1
 1285 1079 l 1
 1346.08007812 1079 l 1
 1296.82910156 1042.87304688 l 1
 959.510742188 795.442382812 l 1
 1089.01074219 399.212890625 l 1
 1108.08300781 340.856445312 l 1
 1058.296875 376.78125 l 1
 718 622.336914062 l 1
 377.703125 376.78125 l 1
 327.916992188 340.856445312 l 1
 346.989257812 399.212890625 l 1
 476.489257812 795.442382812 l 1
 139.170898438 1042.87304688 l 1
 89.919921875 1079 l 1
 151 1079 l 1
EndSplineSet
EndChar

StartChar: uni066E
Encoding: 1646 1646 73
GlifName: uni066E_
Width: 1832
VWidth: 2311
GlyphClass: 2
Flags: HW
AnchorPoint: "Anchor-7" 885.06 -181.16 basechar 0
AnchorPoint: "Anchor-10" 932.894 1011.77 basechar 0
LayerCount: 2
Fore
SplineSet
921 220 m 0
 1220.64160156 220 1553 276.204101562 1553 356 c 0
 1553 483.34375 1537.20507812 610.856445312 1508.49414062 737.581054688 c 2
 1504.35644531 755.845703125 l 1
 1522.30957031 761.173828125 l 1
 1677.30957031 807.173828125 l 1
 1697.44140625 813.1484375 l 1
 1702.42773438 792.749023438 l 2
 1735.68164062 656.7109375 1755 531.532226562 1755 432 c 0
 1755 353.690429688 1741.67089844 287.96875 1717.1796875 233.663085938 c 0
 1641.09570312 70.46875 1344.63964844 0 907 0 c 4
 431.765625 0 77.34375 99.2978515625 77.34375 546.849609375 c 0
 77.34375 620.328125 88.7294921875 697.252929688 111.776367188 777.51953125 c 2
 117.197265625 796.397460938 l 1
 136.182617188 791.317382812 l 1
 278.169921875 753.3203125 l 1
 295.411132812 748.706054688 l 1
 292.782226562 731.053710938 l 2
 280.612304688 649.346679688 274.625 586.85546875 274.625 544.671875 c 0
 274.625 257.733398438 548.19140625 220 921 220 c 0
EndSplineSet
Substitution2: "'fina' Terminal Forms in Arabic lookup 9 subtable" uni066E.fina
EndChar

StartChar: uni066F
Encoding: 1647 1647 74
GlifName: uni066F_
Width: 1412
VWidth: 2311
GlyphClass: 2
Flags: HW
AnchorPoint: "Anchor-10" 127.36 1101.41 basechar 0
AnchorPoint: "Anchor-7" 258.8 -646 basechar 0
LayerCount: 2
Fore
SplineSet
1334.00683594 192.309570312 m 0
 1334.00683594 -271.233398438 1156.91308594 -468 721 -468 c 0
 304.02734375 -468 78 -282.920898438 78 88 c 0
 78 228.921875 108.689453125 370.8046875 171.734375 512.147460938 c 2
 179.361328125 529.24609375 l 1
 196.92578125 522.762695312 l 1
 345.92578125 467.762695312 l 1
 365.328125 460.600585938 l 1
 357.51953125 441.44921875 l 2
 305.163085938 313.026367188 279 200.375976562 279 105 c 0
 279 -136.421875 398.548828125 -255 725 -255 c 0
 1035.375 -255 1123.67285156 -125.522460938 1135.7890625 77.8017578125 c 1
 1098.74804688 62.41015625 1032.38867188 41 947 41 c 0
 774.240234375 41 622 139.051757812 622 324 c 0
 622 556.481445312 756.857421875 773 968 773 c 0
 1157.28515625 773 1266.109375 613.5390625 1310.015625 438.875976562 c 0
 1326.66699219 372.631835938 1334.00683594 256.91796875 1334.00683594 192.309570312 c 0
811 338 m 0
 811 281.661132812 852.135742188 251 959 251 c 0
 1048.40625 251 1112.67089844 285.443359375 1133.89160156 298.624023438 c 1
 1130.84667969 444.211914062 1069.16601562 561 969 561 c 0
 888.786132812 561 811 471.9375 811 338 c 0
EndSplineSet
Substitution2: "'fina' Terminal Forms in Arabic lookup 9 subtable" uni066F.fina
EndChar

StartChar: uni0670
Encoding: 1648 1648 75
GlifName: uni0670
Width: 6
VWidth: 2317
GlyphClass: 4
Flags: HW
AnchorPoint: "Anchor-10" 593.891 1359.45 mark 0
AnchorPoint: "Anchor-9" 593.891 1359.45 mark 0
AnchorPoint: "Anchor-1" 583.891 1876.62 basemark 0
AnchorPoint: "Anchor-1" 593.891 1359.45 mark 0
LayerCount: 2
Fore
SplineSet
553.722908262 1407.1956009 m 1
 528.022712949 1769.6487259 l 1
 527.847425516 1772.12082687 l 1
 529.982960406 1773.37840377 l 1
 633.642140094 1834.42137253 l 1
 639.671875 1837.97217161 l 1
 639.671875 1830.97460938 l 1
 639.671875 1407.47851562 l 1
 639.671875 1403.47851562 l 1
 635.671875 1403.47851562 l 1
 557.712890625 1403.47851562 l 1
 553.986472875 1403.47851562 l 1
 553.722908262 1407.1956009 l 1
EndSplineSet
EndChar

StartChar: uni0674
Encoding: 1652 1652 76
GlifName: uni0674
Width: 683
VWidth: 2317
GlyphClass: 2
Flags: HW
LayerCount: 2
Fore
SplineSet
217.393921923 1650.59996216 m 1
 170.532935951 1688.12620015 145 1732.12950661 145 1794 c 0
 145 1916.44504417 231.499194397 2003 364 2003 c 0
 414.010990229 2003 462.877852148 1988.90200985 505.056665838 1963.61674274 c 2
 507 1962.45175684 l 1
 507 1960.18598107 l 1
 507 1844.82214691 l 1
 507 1838.56329939 l 1
 501.319968105 1841.19206525 l 2
 463.427218615 1858.72914397 421.181395352 1878 372 1878 c 0
 316.832509531 1878 263 1854.81242936 263 1794 c 0
 263 1750.41200908 294.053754488 1718.14470437 358.098884512 1699.84609579 c 0
 364.435887808 1698.03552342 370.464423554 1698 379 1698 c 0
 406.138993151 1698 464.015483942 1712.31853737 525.36981835 1722.1068705 c 2
 530 1722.84555932 l 1
 530 1718.15682353 l 1
 530 1598.00180214 l 1
 530 1594.79900297 l 1
 526.87471923 1594.09861546 l 2
 399.422217807 1565.53601701 272.261470763 1540.35512803 147.963214392 1509.5161899 c 2
 143 1508.28479482 l 1
 143 1513.39848536 l 1
 143 1630.08609104 l 1
 143 1633.22531747 l 1
 146.049264189 1633.97146122 l 2
 169.691321248 1639.75658574 194.359396064 1645.03328305 217.393921923 1650.59996216 c 1
EndSplineSet
EndChar

StartChar: uni06A1
Encoding: 1697 1697 80
GlifName: uni06A_1
Width: 1825
VWidth: 2311
GlyphClass: 2
Flags: HW
AnchorPoint: "Anchor-10" 534.823 1321.98 basechar 0
AnchorPoint: "Anchor-7" 648.243 -138.873 basechar 0
LayerCount: 2
Fore
SplineSet
907 0 m 2
 432.099609375 0 77 99.314453125 77 547 c 0
 77 620.071289062 88.3271484375 696.974609375 111.796875 777.590820312 c 2
 117.267578125 796.37890625 l 1
 136.169921875 791.3203125 l 1
 278.169921875 753.3203125 l 1
 295.3671875 748.717773438 l 1
 292.7890625 731.104492188 l 2
 280.8671875 649.639648438 275 587.250976562 275 545 c 0
 275 258.235351562 548.595703125 220 921 220 c 2
 1210 220 l 2
 1312.85351562 220 1435.7734375 238.93359375 1464.64453125 261.7265625 c 0
 1507.01855469 294.856445312 1531.84765625 338.147460938 1540.73632812 394.189453125 c 1
 1503.62304688 378.5234375 1442.10253906 359 1360 359 c 0
 1187.24023438 359 1035 457.051757812 1035 642 c 0
 1035 874.399414062 1168.8046875 1091 1380 1091 c 0
 1639.88964844 1091 1747 805.71484375 1747 557 c 0
 1747 314.575195312 1686.55371094 148.756835938 1558.78417969 67.15625 c 0
 1485.88085938 20.3681640625 1367.3671875 0 1204 0 c 2
 907 0 l 2
1224 656 m 0
 1224 599.495117188 1264.25195312 569 1371 569 c 0
 1460.49609375 569 1525.57714844 603.583984375 1546.890625 616.692382812 c 1
 1543.84765625 762.155273438 1482.16601562 879 1382 879 c 0
 1301.78613281 879 1224 789.9375 1224 656 c 0
EndSplineSet
Substitution2: "'init' Initial Forms in Arabic lookup 13 subtable" uni06A1.init
Substitution2: "'medi' Medial Forms in Arabic lookup 11 subtable" uni06A1.medi
Substitution2: "'fina' Terminal Forms in Arabic lookup 9 subtable" uni06A1.fina
EndChar

StartChar: uni06A9
Encoding: 1705 1705 81
GlifName: uni06A_9
Width: 1916
VWidth: 2311
GlyphClass: 2
Flags: HW
AnchorPoint: "Anchor-7" 885.06 -181.16 basechar 0
AnchorPoint: "Anchor-10" 1196.9 1381.66 basechar 0
LayerCount: 2
Fore
SplineSet
1289.54980469 1016.60253906 m 5
 1617.82226562 653.427734375 l 2
 1689 574 1726 485.23046875 1726 389 c 0
 1726 130.624023438 1563.43652344 0 1259 0 c 2
 907 0 l 2
 432.099609375 0 77 99.314453125 77 547 c 0
 77 620.071289062 88.3271484375 696.974609375 111.796875 777.590820312 c 2
 117.267578125 796.37890625 l 1
 136.169921875 791.3203125 l 1
 278.169921875 753.3203125 l 1
 295.3671875 748.717773438 l 1
 292.7890625 731.104492188 l 2
 280.8671875 649.639648438 275 587.250976562 275 545 c 0
 275 265.22265625 547.884765625 220 921 220 c 2
 1293 220 l 2
 1461.32128906 220 1532 275.202148438 1532 378 c 0
 1532 416.086914062 1513.35449219 457.63671875 1470.046875 506.717773438 c 2
 1081.09179688 941.66796875 l 1
 1075.50097656 947.919921875 l 5
 1075.50097656 947.919921875 1080.6328125 1155.64257812 1132.72363281 1175.20703125 c 6
 1853 1445.73144531 l 5
 1853 1416.85742188 l 5
 1853 1241.85742188 l 5
 1853 1228 l 5
 1289.54980469 1016.60253906 l 5
EndSplineSet
Substitution2: "'init' Initial Forms in Arabic lookup 13 subtable" uniFB90
Substitution2: "'medi' Medial Forms in Arabic lookup 11 subtable" uniFB91
Substitution2: "'fina' Terminal Forms in Arabic lookup 9 subtable" uniFB8F
EndChar

StartChar: uni06BA
Encoding: 1722 1722 83
GlifName: afii57514
Width: 1403
VWidth: 2317
GlyphClass: 2
Flags: HW
AnchorPoint: "Anchor-10" 632.479 998.46 basechar 0
AnchorPoint: "Anchor-7" 575.075 -535.182 basechar 0
LayerCount: 2
Fore
SplineSet
690 -448 m 0
 317.045898438 -448 80 -262.260742188 80 108 c 0
 80 248.921875 110.689453125 390.8046875 173.734375 532.147460938 c 2
 181.361328125 549.24609375 l 1
 198.92578125 542.762695312 l 1
 347.92578125 487.762695312 l 1
 367.328125 480.600585938 l 1
 359.51953125 461.44921875 l 2
 307.163085938 333.026367188 281 220.375976562 281 125 c 0
 281 -117.595703125 412.38671875 -235 693 -235 c 0
 992.860351562 -235 1134 -110.30078125 1134 143 c 0
 1134 232.017578125 1099.3515625 349.595703125 1029.06152344 492.155273438 c 2
 1020.59472656 509.329101562 l 1
 1037.38378906 518.536132812 l 1
 1192.38378906 603.536132812 l 1
 1210.5078125 613.475585938 l 1
 1219.84375 595.033203125 l 2
 1301.99804688 432.75390625 1335 290.208984375 1335 149 c 0
 1335 -247.098632812 1098.07617188 -448 690 -448 c 0
EndSplineSet
Substitution2: "'fina' Terminal Forms in Arabic lookup 9 subtable" uniFB9F
EndChar

StartChar: uni06F4
Encoding: 1780 1780 90
GlifName: uni06F_4
Width: 1122
VWidth: 2311
GlyphClass: 2
Flags: HW
LayerCount: 2
Fore
SplineSet
338 23 m 2
 338 536.955078125 260.314453125 911.358398438 106.862304688 1241.57128906 c 6
 98.54296875 1259.47558594 l 5
 116.337890625 1268.02636719 l 5
 270.337890625 1342.02636719 l 5
 290.704101562 1351.81347656 l 5
 297.9453125 1330.40917969 l 5
 385.935546875 1070.33203125 l 5
 422.045898438 1185.56835938 533.078125 1341 751 1341 c 4
 804.830078125 1341 890.079101562 1333.32128906 956.944335938 1299.88867188 c 6
 968 1294.36035156 l 5
 968 1282 l 5
 968 1120 l 5
 968 1093.35839844 l 5
 942.416992188 1100.79492188 l 6
 858.046875 1125.32128906 801.923828125 1130 772 1130 c 4
 631.72265625 1130 522.202148438 1036.77539062 522.202148438 929.071289062 c 4
 522.202148438 864.171875 603.54296875 828.963867188 773.056640625 828 c 4
 840.056640625 828 915.85546875 842.41015625 1002.16503906 873.795898438 c 6
 1028.50488281 883.374023438 l 5
 1028.99707031 855.350585938 l 5
 1031.99707031 684.350585938 l 5
 1032.26855469 668.873046875 l 5
 1017.35253906 664.729492188 l 6
 925.853515625 639.313476562 840.15234375 627 764 627 c 4
 661.913085938 627 552.37890625 654.646484375 482.978515625 700.69140625 c 5
 518.233398438 496.204101562 540.083007812 319.79296875 541 20.0615234375 c 2
 541.061523438 0 l 1
 521 0 l 1
 358 0 l 1
 338 0 l 1
 338 20 l 1
 338 23 l 2
EndSplineSet
PairPos2: "'kern' Horizontal Kerning lookup 15-4" uni06F0 dx=-64 dy=0 dh=-64 dv=0 dx=0 dy=0 dh=0 dv=0
PairPos2: "'kern' Horizontal Kerning lookup 15-4" uni06F5 dx=-40 dy=0 dh=-40 dv=0 dx=0 dy=0 dh=0 dv=0
PairPos2: "'kern' Horizontal Kerning lookup 15-4" uni06F8 dx=-64 dy=0 dh=-64 dv=0 dx=0 dy=0 dh=0 dv=0
PairPos2: "'kern' Horizontal Kerning lookup 15-4" uni06F1 dx=-64 dy=0 dh=-64 dv=0 dx=0 dy=0 dh=0 dv=0
PairPos2: "'kern' Horizontal Kerning lookup 15-4" uni06F9 dx=-64 dy=0 dh=-64 dv=0 dx=0 dy=0 dh=0 dv=0
EndChar

StartChar: uni06F5
Encoding: 1781 1781 91
GlifName: uni06F_5
Width: 1241
VWidth: 2170
GlyphClass: 2
Flags: HW
LayerCount: 2
Fore
SplineSet
414 214 m 4
 476.34375 214 516.315429688 245.977539062 530.122070312 372.208984375 c 6
 537.125976562 434.244140625 l 5
 539.130859375 452 l 5
 557 452 l 5
 682 452 l 5
 699.869140625 452 l 5
 701.874023438 434.244140625 l 5
 708.877929688 372.208984375 l 6
 722.684570312 245.977539062 762.657226562 214 825 214 c 4
 898.518554688 214 937 261.375976562 937 372 c 4
 937 569.2109375 804.704101562 747.109375 596.205078125 990.049804688 c 5
 410.633789062 737.52734375 301.994140625 563.614257812 301.994140625 374.55078125 c 4
 301.994140625 262.30859375 339.919921875 214 414 214 c 4
1147 351 m 4
 1147 155.958984375 1039.453125 0 838.909179688 0 c 4
 737.232421875 0.9248046875 663.049804688 49.4072265625 619.234375 129.99609375 c 5
 575.291015625 47.591796875 500.44921875 0 404 0 c 4
 200.376953125 0 94 147.504882812 94 342 c 4
 94 612.537109375 225.795898438 816.62890625 443.287109375 1126.79785156 c 5
 408.830078125 1156.94824219 l 5
 395.159179688 1168.91113281 l 5
 405.754882812 1183.66601562 l 5
 512.754882812 1332.66601562 l 5
 526.193359375 1351.37988281 l 5
 542.833007812 1335.44433594 l 6
 922.296875 972.04296875 1147 665.326171875 1147 351 c 4
EndSplineSet
PairPos2: "'kern' Horizontal Kerning lookup 15-4" uni06F2 dx=-100 dy=0 dh=-100 dv=0 dx=0 dy=0 dh=0 dv=0
PairPos2: "'kern' Horizontal Kerning lookup 15-4" uni06F3 dx=-100 dy=0 dh=-100 dv=0 dx=0 dy=0 dh=0 dv=0
PairPos2: "'kern' Horizontal Kerning lookup 15-4" uni06F4 dx=-42 dy=0 dh=-42 dv=0 dx=0 dy=0 dh=0 dv=0
PairPos2: "'kern' Horizontal Kerning lookup 15-4" uni06F6 dx=-42 dy=0 dh=-42 dv=0 dx=0 dy=0 dh=0 dv=0
PairPos2: "'kern' Horizontal Kerning lookup 15-4" uni06F7 dx=-100 dy=0 dh=-100 dv=0 dx=0 dy=0 dh=0 dv=0
PairPos2: "'kern' Horizontal Kerning lookup 15-4" uni06F8 dx=-38 dy=0 dh=-38 dv=0 dx=0 dy=0 dh=0 dv=0
EndChar

StartChar: uni06F6
Encoding: 1782 1782 92
GlifName: uni06F_6
Width: 1063
VWidth: 2311
GlyphClass: 2
Flags: HW
LayerCount: 2
Fore
SplineSet
157.38671875 933.413085938 m 0
 157.38671875 1157.69824219 320.65625 1340 593 1340 c 0
 647.802734375 1340 709.665039062 1328.50390625 777.064453125 1307.05859375 c 2
 791 1302.62402344 l 1
 791 1288 l 1
 791 1119 l 1
 791 1092.13671875 l 1
 765.264648438 1099.83984375 l 2
 700.321289062 1119.27929688 643.16796875 1128.72363281 594.057617188 1128.72363281 c 0
 462.1328125 1128.72363281 364 1051.44238281 364 948 c 0
 364 888.584960938 390.247070312 842.857421875 435.8359375 809.122070312 c 0
 495.463867188 765.697265625 547.793945312 746.411132812 602.745117188 739.190429688 c 0
 625.9140625 736.146484375 631.404296875 737.219726562 653.16015625 747.940429688 c 0
 791.104492188 815.913085938 851.754882812 845.235351562 935.418945312 879.5078125 c 2
 961.411132812 890.155273438 l 1
 962.96875 862.109375 l 1
 972.96875 682.109375 l 1
 973.83203125 666.576171875 l 5
 725 568 479 356 252.573242188 -47.1962890625 c 5
 234.830078125 -39.2548828125 l 1
 91.830078125 24.7451171875 l 1
 73.6142578125 32.8974609375 l 1
 173.8125 258.065429688 299.181640625 401.298828125 456.352539062 574.724609375 c 1
 258.844726562 630.130859375 157.38671875 771.673828125 157.38671875 933.413085938 c 0
EndSplineSet
PairPos2: "'kern' Horizontal Kerning lookup 15-4" uni06F7 dx=-40 dy=0 dh=-40 dv=0 dx=0 dy=0 dh=0 dv=0
PairPos2: "'kern' Horizontal Kerning lookup 15-4" uni06F8 dx=-40 dy=0 dh=-40 dv=0 dx=0 dy=0 dh=0 dv=0
PairPos2: "'kern' Horizontal Kerning lookup 15-4" uni06F9 dx=-30 dy=0 dh=-30 dv=0 dx=0 dy=0 dh=0 dv=0
EndChar

StartChar: uniFB8F
Encoding: 64399 64399 107
GlifName: uniF_B_8F_
Width: 2128
VWidth: 2311
GlyphClass: 2
Flags: HW
AnchorPoint: "Anchor-10" 1196.9 1381.66 basechar 0
AnchorPoint: "Anchor-7" 885.06 -181.16 basechar 0
LayerCount: 2
Fore
SplineSet
1289.54980469 1016.60253906 m 5
 1919.87109375 317.373046875 l 2
 1979 252 2036 220 2090 220 c 2
 2135 220 l 2
 2145 220 2153 166.653320312 2153 128 c 2
 2153 94 l 2
 2153 54.642578125 2145 0 2135 0 c 2
 2085.91699219 0 l 2
 1962 0 1835.60351562 88.1796875 1706.9296875 248.112304688 c 1
 1652.14257812 80.23046875 1498.3046875 0 1259 0 c 2
 907 0 l 2
 432.099609375 0 77 99.314453125 77 547 c 0
 77 620.071289062 88.3271484375 696.974609375 111.796875 777.590820312 c 2
 117.267578125 796.37890625 l 1
 136.169921875 791.3203125 l 1
 278.169921875 753.3203125 l 1
 295.3671875 748.717773438 l 1
 292.7890625 731.104492188 l 2
 280.8671875 649.639648438 275 587.250976562 275 545 c 0
 275 265.22265625 547.884765625 220 921 220 c 2
 1293 220 l 2
 1461.32128906 220 1532 275.202148438 1532 378 c 0
 1532 416.185546875 1513.33300781 458.622070312 1470.11328125 506.64453125 c 2
 1081.09179688 941.66796875 l 1
 1075.50097656 947.919921875 l 5
 1075.50097656 947.919921875 1080.6328125 1155.64257812 1132.72363281 1175.20703125 c 6
 1853 1445.73144531 l 5
 1853 1416.85742188 l 5
 1853 1241.85742188 l 5
 1853 1228 l 5
 1289.54980469 1016.60253906 l 5
EndSplineSet
EndChar

StartChar: uniFB9F
Encoding: 64415 64415 115
GlifName: uniF_B_9F_
Width: 1487
VWidth: 2311
GlyphClass: 2
Flags: HW
AnchorPoint: "Anchor-10" 393.357 777.317 basechar 0
AnchorPoint: "Anchor-7" 293.314 -719.99 basechar 0
LayerCount: 2
Fore
SplineSet
1493.80761719 0 m 6
 1441.66503906 1.0029296875 l 2
 1390.99956623 1.97744818385 1350.5078125 9.966796875 1319.87988281 27.8701171875 c 1
 1302.33203125 -333.822265625 1086.95410156 -517.01953125 690.024414062 -518 c 0
 317.025390625 -518 80 -332.260742188 80 38 c 0
 80 178.921875 110.689453125 320.8046875 173.734375 462.147460938 c 2
 181.361328125 479.24609375 l 1
 198.92578125 472.762695312 l 1
 347.92578125 417.762695312 l 1
 367.328125 410.600585938 l 1
 359.51953125 391.44921875 l 2
 307.163085938 263.026367188 281 150.375976562 281 55 c 0
 281 -187.595703125 412.38671875 -305 693 -305 c 0
 992.860351562 -305 1134 -180.30078125 1134 73 c 0
 1134 162.017578125 1099.3515625 279.595703125 1029.06152344 422.155273438 c 2
 1020.64550781 439.225585938 l 1
 1037.27734375 448.477539062 l 1
 1188.27734375 532.477539062 l 1
 1208.47753906 543.71484375 l 1
 1216.69433594 522.109375 l 1
 1297.62402344 309.29296875 l 2
 1321.30761719 250.522460938 1366.00817042 222.429746714 1441.3125 220.998046875 c 2
 1493.80761719 220 l 6
 1503 220 1511.80761719 166.653320312 1511.80761719 128 c 6
 1511.80761719 94 l 6
 1511.80761719 54.642578125 1504 -0 1493.80761719 0 c 6
EndSplineSet
EndChar

StartChar: uniFBE8
Encoding: 64488 64488 118
GlifName: uniF_B_E_8
Width: 668
VWidth: 2317
GlyphClass: 2
Flags: HW
AnchorPoint: "Anchor-10" 323.546 1100.67 basechar 0
AnchorPoint: "Anchor-7" 327.466 -96.0703 basechar 0
LayerCount: 2
Fore
SplineSet
-4 220 m 2
 119 220 l 2
 350 220 389 220.134765625 389 384 c 0
 389 506.5625 344.459960938 711.735351562 344.459960938 711.735351562 c 5
 340.498046875 729.887695312 l 1
 358.309570312 735.173828125 l 1
 513.309570312 781.173828125 l 1
 532.077148438 786.743164062 l 1
 538.048828125 768.095703125 l 2
 538.665039062 766.169921875 590 606.330078125 590 435 c 0
 590 117.545898438 464 0 115 0 c 2
 -4 0 l 2
 -35 0 -42 48.0888671875 -42 94 c 2
 -42 128 l 2
 -42 173.405273438 -35 220 -4 220 c 2
EndSplineSet
EndChar

StartChar: uniFBE9
Encoding: 64489 64489 119
GlifName: uniF_B_E_9
Width: 764
VWidth: 2311
GlyphClass: 2
Flags: HW
AnchorPoint: "Anchor-10" 297.926 1045.55 basechar 0
AnchorPoint: "Anchor-7" 265.065 -244.47 basechar 0
LayerCount: 2
Fore
SplineSet
770 0 m 6
 737 0 l 2
 633 0 565.33984375 43.0615234375 490.963867188 120.783203125 c 1
 410.234375 39.3505859375 309 0 189 0 c 2
 -4 0 l 2
 -35 0 -42 48.0888671875 -42 94 c 2
 -42 128 l 2
 -42 173.405273438 -35 220 -4 220 c 2
 193 220 l 2
 328 220 387.276367188 274.657226562 390.005859375 387.46484375 c 2
 395.005859375 602.46484375 l 1
 395.389648438 618.971679688 l 1
 411.670898438 621.720703125 l 1
 565.670898438 647.720703125 l 1
 588.135742188 651.513671875 l 1
 588.986328125 628.74609375 l 1
 597.98828125 387.6953125 l 2
 601.747070312 271.16796875 658 220 740 220 c 2
 770 220 l 6
 780 220 788 166.653320312 788 128 c 6
 788 94 l 6
 788 54.642578125 780 0 770 0 c 6
EndSplineSet
EndChar

StartChar: uniFE73
Encoding: 65139 65139 127
GlifName: uniF_E_73
Width: 672
VWidth: 2950
GlyphClass: 2
Flags: HW
AnchorPoint: "Anchor-10" 342.943 1030.47 basechar 0
AnchorPoint: "Anchor-7" 416.943 -188.304 basechar 0
LayerCount: 2
Fore
SplineSet
318.336914062 444.018554688 m 2
 318.336914062 295.189453125 410.903320312 220.342773438 618.00390625 220.342773438 c 2
 684.674804688 220.342773438 l 1
 686.674804688 220.342773438 l 1
 706.674804688 220.342773438 l 1
 706.674804688 200.342773438 l 1
 706.674804688 198.342773438 l 1
 706.674804688 23.5537109375 l 1
 706.674804688 21.5537109375 l 1
 706.674804688 1.5537109375 l 1
 686.674804688 1.5537109375 l 1
 684.674804688 1.5537109375 l 1
 607.991210938 1.5537109375 l 2
 269.403320312 1.8564453125 91.544921875 151.5703125 91.544921875 446.563476562 c 2
 91.544921875 466.69140625 l 1
 91.544921875 468.69140625 l 1
 91.544921875 488.69140625 l 1
 111.544921875 488.69140625 l 1
 113.544921875 488.69140625 l 1
 296.336914062 488.69140625 l 1
 298.336914062 488.69140625 l 1
 318.336914062 488.69140625 l 1
 318.336914062 468.69140625 l 1
 318.336914062 466.69140625 l 1
 318.336914062 444.018554688 l 2
EndSplineSet
EndChar

StartChar: uniFE8E
Encoding: 65166 65166 153
GlifName: uniF_E_8E_
Width: 527
VWidth: 2311
GlyphClass: 2
Flags: HW
AnchorPoint: "Anchor-10" 224.19 1473.38 basechar 0
AnchorPoint: "Anchor-7" 264.947 -195.71 basechar 0
LayerCount: 2
Fore
SplineSet
534 0 m 2
 514 0 l 2
 236 0 156 169 147.009765625 450.38671875 c 2
 117.530273438 1324.39550781 l 5
 131.840820312 1329.02832031 l 5
 304.840820312 1385.02832031 l 5
 331 1393.49609375 l 5
 331 1366 l 5
 331 465 l 2
 331 294 385 220 513 220 c 2
 534 220 l 2
 544 220 552 166.653320312 552 128 c 2
 552 94 l 2
 552 54.642578125 544 0 534 0 c 2
EndSplineSet
EndChar

StartChar: uniFEA2
Encoding: 65186 65186 173
GlifName: uniF_E_A_2
Width: 1333
VWidth: 2311
GlyphClass: 2
Flags: HW
AnchorPoint: "Anchor-10" 562.59 1147.96 basechar 0
AnchorPoint: "Anchor-7" 674.525 -793.648 basechar 0
LayerCount: 2
Fore
SplineSet
1340 0 m 6
 1297 0 l 2
 1026 0 867.13671875 122.333007812 848.31640625 399.489257812 c 1
 539.716796875 304.55078125 285 148.15234375 285 -119 c 0
 285 -302.701171875 485.860351562 -419 777 -419 c 0
 907.387695312 -419 1029.45019531 -403.208984375 1145.46289062 -369.782226562 c 2
 1164.75683594 -364.22265625 l 1
 1170.24023438 -383.538085938 l 1
 1214.24023438 -538.538085938 l 1
 1219.57519531 -557.333007812 l 1
 1200.91113281 -563.106445312 l 2
 1060.09375 -606.668945312 920.021484375 -628 779 -628 c 0
 399.633789062 -628 76 -451.979492188 76 -122 c 0
 76 259.364257812 410.654296875 488.513671875 795.1015625 584.046875 c 1
 767.764648438 594.657226562 741.651367188 604.755859375 691.686523438 624.384765625 c 0
 542.157226562 683.12890625 483.999023438 707 428 707 c 0
 364.216796875 707 290.7578125 659.359375 210.946289062 553.928710938 c 2
 198.745117188 537.811523438 l 1
 182.759765625 550.18359375 l 1
 67.759765625 639.18359375 l 1
 52.5537109375 650.951171875 l 1
 63.7138671875 666.608398438 l 2
 168.72265625 813.93359375 277.80078125 923 435 923 c 0
 553.380859375 923 667.33984375 862.868164062 794.375 804.288085938 c 0
 917.748046875 747.396484375 1066.96679688 669.919921875 1133.98242188 669.919921875 c 0
 1145.47558594 669.919921875 1157.0703125 670.267578125 1168.81542969 670.96484375 c 2
 1193.14648438 672.409179688 l 1
 1189.81152344 648.263671875 l 1
 1164.81152344 467.263671875 l 1
 1162.65722656 451.666015625 l 1
 1146.99023438 450.099609375 l 2
 1103.55273438 445.755859375 1066.18847656 440.411132812 1024.59570312 433.970703125 c 1
 1032.80175781 281.444335938 1107 220 1292 220 c 2
 1340 220 l 6
 1350 220 1358 166.653320312 1358 128 c 6
 1358 94 l 6
 1358 54.642578125 1350 0 1340 0 c 6
EndSplineSet
EndChar

StartChar: uniFEA3
Encoding: 65187 65187 174
GlifName: uniF_E_A_3
Width: 1371
VWidth: 2311
GlyphClass: 2
Flags: HW
AnchorPoint: "Anchor-10" 581.06 1127.73 basechar 0
AnchorPoint: "Anchor-7" 629.96 -197.83 basechar 0
LayerCount: 2
Fore
SplineSet
-4 220 m 2
 70 220 l 6
 280 220 432.291992188 238.28515625 525.194335938 271.806640625 c 4
 647.044921875 316.034179688 779.404296875 372.048828125 923.401367188 440.06640625 c 5
 852.2578125 465.279296875 806.495117188 484.293945312 706.706054688 523.376953125 c 4
 557.095703125 581.974609375 498.967773438 606 443 606 c 4
 379.216796875 606 305.7578125 558.359375 225.946289062 452.928710938 c 6
 213.745117188 436.811523438 l 5
 197.759765625 449.18359375 l 5
 82.759765625 538.18359375 l 5
 67.5537109375 549.951171875 l 5
 78.7138671875 565.608398438 l 6
 183.72265625 712.93359375 292.80078125 822 450 822 c 4
 568.525390625 822 677.765625 761.126953125 805.84375 706.5234375 c 4
 939.927734375 649.360351562 1099.24707031 563.919921875 1238.98242188 563.919921875 c 4
 1250.47558594 563.919921875 1262.0703125 564.267578125 1273.81542969 564.96484375 c 6
 1298.765625 566.4453125 l 5
 1294.73828125 541.77734375 l 5
 1270.73828125 394.77734375 l 5
 1268.29296875 379.798828125 l 5
 1253.20898438 378.122070312 l 6
 1200.87695312 372.307617188 1042.76660156 279.0234375 666.690429688 96.9873046875 c 4
 531.22265625 31.837890625 336 0 79 0 c 6
 -4 0 l 2
 -35 0 -42 48.0888671875 -42 94 c 2
 -42 128 l 2
 -42 173.405273438 -35 220 -4 220 c 2
EndSplineSet
EndChar

StartChar: uniFEA4
Encoding: 65188 65188 175
GlifName: uniF_E_A_4
Width: 1423
VWidth: 2311
GlyphClass: 2
Flags: HW
AnchorPoint: "Anchor-10" 581.06 1127.73 basechar 0
AnchorPoint: "Anchor-7" 629.96 -197.83 basechar 0
LayerCount: 2
Fore
SplineSet
1430 0 m 2
 1288 0 l 2
 1066 0 931.40625 65.794921875 875.1640625 203.22265625 c 5
 806.112304688 165.586914062 736.999023438 130.771484375 666.66796875 96.9755859375 c 4
 531.249023438 31.8505859375 336 0 79 0 c 6
 -4 0 l 2
 -35 0 -42 48.0888671875 -42 94 c 2
 -42 128 l 2
 -42 173.405273438 -35 220 -4 220 c 2
 70 220 l 6
 284 220 436.276367188 238.344726562 525.001953125 271.736328125 c 4
 653.674804688 319.42578125 787.267578125 375.658203125 923.465820312 440.043945312 c 5
 852.170898438 465.310546875 806.538085938 484.276367188 706.706054688 523.376953125 c 4
 557.095703125 581.974609375 498.967773438 606 443 606 c 4
 379.216796875 606 305.7578125 558.359375 225.946289062 452.928710938 c 6
 213.745117188 436.811523438 l 5
 197.759765625 449.18359375 l 5
 82.759765625 538.18359375 l 5
 67.5537109375 549.951171875 l 5
 78.7138671875 565.608398438 l 6
 183.72265625 712.934570312 292.799804688 822 450 822 c 4
 568.525390625 822 677.764648438 761.126953125 805.84375 706.5234375 c 4
 939.927734375 649.360351562 1099.24707031 563.919921875 1238.98242188 563.919921875 c 4
 1250.4765625 563.919921875 1262.0703125 564.268554688 1273.81542969 564.96484375 c 6
 1298.765625 566.4453125 l 5
 1294.73828125 541.77734375 l 5
 1270.73828125 394.77734375 l 5
 1268.58984375 381.618164062 l 5
 1255.6171875 378.540039062 l 6
 1202.42285156 365.91796875 1127.72949219 336.333007812 1054.32128906 291.048828125 c 5
 1071.70605469 252.998046875 1144.00341689 222.406136526 1311.13867188 221 c 2
 1430 220 l 2
 1440 220 1448 166.653320312 1448 128 c 2
 1448 94 l 2
 1448 54.642578125 1440 0 1430 0 c 2
EndSplineSet
EndChar

StartChar: uniFEAA
Encoding: 65194 65194 181
GlifName: uniF_E_A_A_
Width: 1152
VWidth: 2311
GlyphClass: 2
Flags: HW
AnchorPoint: "Anchor-10" 564.149 1209.65 basechar 0
AnchorPoint: "Anchor-7" 475.41 -226.98 basechar 0
LayerCount: 2
Fore
SplineSet
1159 0 m 6
 1128 0 l 2
 1023 0 932.91015625 43.037109375 862.696289062 125.418945312 c 1
 771.846679688 24.615234375 624.561523438 -22 406 -22 c 0
 305.544921875 -22 199.28515625 -3.54296875 89.3623046875 35.1337890625 c 2
 76 39.8349609375 l 1
 76 54 l 1
 76 242 l 1
 76 272.54296875 l 1
 103.99609375 260.33203125 l 2
 195.391601562 220.467773438 292.499023438 201 397 201 c 0
 555.703125 201 714 255.44921875 714 318 c 0
 714 332.3203125 710.112304688 349.053710938 700.047851562 369.18359375 c 2
 455.985351562 875.3125 l 1
 448.40234375 891.038085938 l 1
 462.958984375 900.676757812 l 1
 607.958984375 996.676757812 l 1
 627.319335938 1009.49414062 l 1
 637.127929688 988.44921875 l 1
 898.143554688 428.415039062 l 2
 962.881835938 288.149414062 1041.00971019 224.26841524 1131.65429688 220.989257812 c 2
 1159 220 l 6
 1169 220 1177 166.653320312 1177 128 c 6
 1177 94 l 6
 1177 54.642578125 1169 0 1159 0 c 6
EndSplineSet
EndChar

StartChar: uniFEAE
Encoding: 65198 65198 185
GlifName: uniF_E_A_E_
Width: 896
VWidth: 2317
GlyphClass: 2
Flags: HW
AnchorPoint: "Anchor-10" 533.618 877.71 basechar 0
AnchorPoint: "Anchor-7" 256.38 -618.85 basechar 0
LayerCount: 2
Fore
SplineSet
903 0 m 2
 868 0 l 2
 797 0 744.299804688 7.291015625 707.749023438 25.150390625 c 1
 644.1640625 -332.84375 371.981445312 -513.008789062 21.056640625 -514 c 2
 17.5302734375 -514.038085938 l 5
 12.458984375 -501.498046875 l 5
 -42.541015625 -365.498046875 l 5
 -52.841796875 -340.028320312 l 5
 296.756835938 -314.8125 516 -165.717199001 516 136 c 4
 516 192.817382812 494.483398438 305.56640625 450.67578125 469.846679688 c 2
 446.520507812 485.428710938 l 1
 460.866210938 492.79296875 l 1
 610.866210938 569.79296875 l 1
 632.93359375 581.120117188 l 1
 639.32421875 557.153320312 l 2
 663.407226562 466.84375 685.40625 376.837890625 707.446289062 286.674804688 c 0
 716.932617188 246.5390625 761 220 863 220 c 2
 903 220 l 2
 913 220 921 166.653320312 921 128 c 2
 921 94 l 2
 921 54.642578125 913 0 903 0 c 2
EndSplineSet
PairPos2: "'kern' Horizontal Kerning lookup 15-2" uniFB7C dx=-110 dy=0 dh=-110 dv=0 dx=0 dy=0 dh=0 dv=0
PairPos2: "'kern' Horizontal Kerning lookup 15-1" uniFEE7 dx=-178 dy=0 dh=-178 dv=0 dx=0 dy=0 dh=0 dv=0
PairPos2: "'kern' Horizontal Kerning lookup 15-2" uniFE8B dx=-178 dy=0 dh=-178 dv=0 dx=0 dy=0 dh=0 dv=0
PairPos2: "'kern' Horizontal Kerning lookup 15-2" uni0640 dx=-178 dy=0 dh=-178 dv=0 dx=0 dy=0 dh=0 dv=0
PairPos2: "'kern' Horizontal Kerning lookup 15-2" uni067E dx=-178 dy=0 dh=-178 dv=0 dx=0 dy=0 dh=0 dv=0
PairPos2: "'kern' Horizontal Kerning lookup 15-2" uni06AF dx=-226 dy=0 dh=-226 dv=0 dx=0 dy=0 dh=0 dv=0
PairPos2: "'kern' Horizontal Kerning lookup 15-2" uniFB92 dx=-226 dy=0 dh=-226 dv=0 dx=0 dy=0 dh=0 dv=0
PairPos2: "'kern' Horizontal Kerning lookup 15-2" uniFB94 dx=-226 dy=0 dh=-226 dv=0 dx=0 dy=0 dh=0 dv=0
PairPos2: "'kern' Horizontal Kerning lookup 15-2" uni0621 dx=-178 dy=0 dh=-178 dv=0 dx=0 dy=0 dh=0 dv=0
PairPos2: "'kern' Horizontal Kerning lookup 15-2" uni0622 dx=-143 dy=0 dh=-143 dv=0 dx=0 dy=0 dh=0 dv=0
PairPos2: "'kern' Horizontal Kerning lookup 15-2" uni0623 dx=-143 dy=0 dh=-143 dv=0 dx=0 dy=0 dh=0 dv=0
PairPos2: "'kern' Horizontal Kerning lookup 15-2" uni0627 dx=-143 dy=0 dh=-143 dv=0 dx=0 dy=0 dh=0 dv=0
PairPos2: "'kern' Horizontal Kerning lookup 15-2" uni0628 dx=-178 dy=0 dh=-178 dv=0 dx=0 dy=0 dh=0 dv=0
PairPos2: "'kern' Horizontal Kerning lookup 15-2" uni0629 dx=-178 dy=0 dh=-178 dv=0 dx=0 dy=0 dh=0 dv=0
PairPos2: "'kern' Horizontal Kerning lookup 15-2" uni062A dx=-178 dy=0 dh=-178 dv=0 dx=0 dy=0 dh=0 dv=0
PairPos2: "'kern' Horizontal Kerning lookup 15-2" uniFE97 dx=-178 dy=0 dh=-178 dv=0 dx=0 dy=0 dh=0 dv=0
PairPos2: "'kern' Horizontal Kerning lookup 15-2" uni062B dx=-178 dy=0 dh=-178 dv=0 dx=0 dy=0 dh=0 dv=0
PairPos2: "'kern' Horizontal Kerning lookup 15-2" uniFE9B dx=-178 dy=0 dh=-178 dv=0 dx=0 dy=0 dh=0 dv=0
PairPos2: "'kern' Horizontal Kerning lookup 15-2" uniFE9F dx=-178 dy=0 dh=-178 dv=0 dx=0 dy=0 dh=0 dv=0
PairPos2: "'kern' Horizontal Kerning lookup 15-2" uniFEA3 dx=-178 dy=0 dh=-178 dv=0 dx=0 dy=0 dh=0 dv=0
PairPos2: "'kern' Horizontal Kerning lookup 15-2" uniFEA7 dx=-178 dy=0 dh=-178 dv=0 dx=0 dy=0 dh=0 dv=0
PairPos2: "'kern' Horizontal Kerning lookup 15-2" uni062F dx=-178 dy=0 dh=-178 dv=0 dx=0 dy=0 dh=0 dv=0
PairPos2: "'kern' Horizontal Kerning lookup 15-2" uni0630 dx=-178 dy=0 dh=-178 dv=0 dx=0 dy=0 dh=0 dv=0
PairPos2: "'kern' Horizontal Kerning lookup 15-2" uni0633 dx=-178 dy=0 dh=-178 dv=0 dx=0 dy=0 dh=0 dv=0
PairPos2: "'kern' Horizontal Kerning lookup 15-2" uniFEB3 dx=-178 dy=0 dh=-178 dv=0 dx=0 dy=0 dh=0 dv=0
PairPos2: "'kern' Horizontal Kerning lookup 15-2" uni0634 dx=-178 dy=0 dh=-178 dv=0 dx=0 dy=0 dh=0 dv=0
PairPos2: "'kern' Horizontal Kerning lookup 15-2" uniFEB7 dx=-178 dy=0 dh=-178 dv=0 dx=0 dy=0 dh=0 dv=0
PairPos2: "'kern' Horizontal Kerning lookup 15-2" uni0635 dx=-178 dy=0 dh=-178 dv=0 dx=0 dy=0 dh=0 dv=0
PairPos2: "'kern' Horizontal Kerning lookup 15-2" uniFEBB dx=-178 dy=0 dh=-178 dv=0 dx=0 dy=0 dh=0 dv=0
PairPos2: "'kern' Horizontal Kerning lookup 15-2" uni0636 dx=-178 dy=0 dh=-178 dv=0 dx=0 dy=0 dh=0 dv=0
PairPos2: "'kern' Horizontal Kerning lookup 15-2" uniFEBF dx=-178 dy=0 dh=-178 dv=0 dx=0 dy=0 dh=0 dv=0
PairPos2: "'kern' Horizontal Kerning lookup 15-2" uni0637 dx=-178 dy=0 dh=-178 dv=0 dx=0 dy=0 dh=0 dv=0
PairPos2: "'kern' Horizontal Kerning lookup 15-2" uniFEC3 dx=-178 dy=0 dh=-178 dv=0 dx=0 dy=0 dh=0 dv=0
PairPos2: "'kern' Horizontal Kerning lookup 15-2" uni0638 dx=-178 dy=0 dh=-178 dv=0 dx=0 dy=0 dh=0 dv=0
PairPos2: "'kern' Horizontal Kerning lookup 15-2" uniFEC7 dx=-178 dy=0 dh=-178 dv=0 dx=0 dy=0 dh=0 dv=0
PairPos2: "'kern' Horizontal Kerning lookup 15-2" uniFECB dx=-178 dy=0 dh=-178 dv=0 dx=0 dy=0 dh=0 dv=0
PairPos2: "'kern' Horizontal Kerning lookup 15-2" uniFECF dx=-178 dy=0 dh=-178 dv=0 dx=0 dy=0 dh=0 dv=0
PairPos2: "'kern' Horizontal Kerning lookup 15-2" uni0641 dx=-178 dy=0 dh=-178 dv=0 dx=0 dy=0 dh=0 dv=0
PairPos2: "'kern' Horizontal Kerning lookup 15-2" uniFED3 dx=-178 dy=0 dh=-178 dv=0 dx=0 dy=0 dh=0 dv=0
PairPos2: "'kern' Horizontal Kerning lookup 15-2" uni0642 dx=-60 dy=0 dh=-60 dv=0 dx=0 dy=0 dh=0 dv=0
PairPos2: "'kern' Horizontal Kerning lookup 15-2" uniFED7 dx=-178 dy=0 dh=-178 dv=0 dx=0 dy=0 dh=0 dv=0
PairPos2: "'kern' Horizontal Kerning lookup 15-2" uni0643 dx=-143 dy=0 dh=-143 dv=0 dx=0 dy=0 dh=0 dv=0
PairPos2: "'kern' Horizontal Kerning lookup 15-2" uniFEDB dx=-226 dy=0 dh=-226 dv=0 dx=0 dy=0 dh=0 dv=0
PairPos2: "'kern' Horizontal Kerning lookup 15-2" uni0644 dx=-60 dy=0 dh=-60 dv=0 dx=0 dy=0 dh=0 dv=0
PairPos2: "'kern' Horizontal Kerning lookup 15-2" uniFEDF dx=-143 dy=0 dh=-143 dv=0 dx=0 dy=0 dh=0 dv=0
PairPos2: "'kern' Horizontal Kerning lookup 15-2" uniFEFB dx=-143 dy=0 dh=-143 dv=0 dx=0 dy=0 dh=0 dv=0
PairPos2: "'kern' Horizontal Kerning lookup 15-2" uni0645 dx=-178 dy=0 dh=-178 dv=0 dx=0 dy=0 dh=0 dv=0
PairPos2: "'kern' Horizontal Kerning lookup 15-2" uniFEE3 dx=-178 dy=0 dh=-178 dv=0 dx=0 dy=0 dh=0 dv=0
PairPos2: "'kern' Horizontal Kerning lookup 15-2" uni0646 dx=-60 dy=0 dh=-60 dv=0 dx=0 dy=0 dh=0 dv=0
PairPos2: "'kern' Horizontal Kerning lookup 15-2" uni0647 dx=-178 dy=0 dh=-178 dv=0 dx=0 dy=0 dh=0 dv=0
PairPos2: "'kern' Horizontal Kerning lookup 15-2" uniFEEB dx=-178 dy=0 dh=-178 dv=0 dx=0 dy=0 dh=0 dv=0
PairPos2: "'kern' Horizontal Kerning lookup 15-2" uni0649 dx=-60 dy=0 dh=-60 dv=0 dx=0 dy=0 dh=0 dv=0
PairPos2: "'kern' Horizontal Kerning lookup 15-2" uni0626 dx=-60 dy=0 dh=-60 dv=0 dx=0 dy=0 dh=0 dv=0
PairPos2: "'kern' Horizontal Kerning lookup 15-2" uni064A dx=-60 dy=0 dh=-60 dv=0 dx=0 dy=0 dh=0 dv=0
PairPos2: "'kern' Horizontal Kerning lookup 15-2" uni06A9 dx=-226 dy=0 dh=-226 dv=0 dx=0 dy=0 dh=0 dv=0
PairPos2: "'kern' Horizontal Kerning lookup 15-2" uniFB8E dx=-226 dy=0 dh=-226 dv=0 dx=0 dy=0 dh=0 dv=0
PairPos2: "'kern' Horizontal Kerning lookup 15-2" uniFB90 dx=-226 dy=0 dh=-226 dv=0 dx=0 dy=0 dh=0 dv=0
PairPos2: "'kern' Horizontal Kerning lookup 15-2" uniFBFE dx=30 dy=0 dh=30 dv=0 dx=0 dy=0 dh=0 dv=0
PairPos2: "'kern' Horizontal Kerning lookup 15-2" uni0631 dx=-30 dy=0 dh=-30 dv=0 dx=0 dy=0 dh=0 dv=0
PairPos2: "'kern' Horizontal Kerning lookup 15-2" uni0632 dx=-30 dy=0 dh=-30 dv=0 dx=0 dy=0 dh=0 dv=0
PairPos2: "'kern' Horizontal Kerning lookup 15-2" uni0624 dx=-30 dy=0 dh=-30 dv=0 dx=0 dy=0 dh=0 dv=0
PairPos2: "'kern' Horizontal Kerning lookup 15-2" uni0648 dx=-30 dy=0 dh=-30 dv=0 dx=0 dy=0 dh=0 dv=0
PairPos2: "'kern' Horizontal Kerning lookup 15-2" uni0698 dx=-40 dy=0 dh=-40 dv=0 dx=0 dy=0 dh=0 dv=0
PairPos2: "'kern' Horizontal Kerning lookup 15-5" uni06C0 dx=-178 dy=0 dh=-178 dv=0 dx=0 dy=0 dh=0 dv=0
EndChar

StartChar: uniFEB2
Encoding: 65202 65202 189
GlifName: uniF_E_B_2
Width: 2554
VWidth: 2311
GlyphClass: 2
Flags: HW
AnchorPoint: "Anchor-10" 1693.64 1026.47 basechar 0
AnchorPoint: "Anchor-7" 686.95 -694.09 basechar 0
LayerCount: 2
Fore
SplineSet
2559 0 m 6
 2507 0 l 2
 2378 0 2282.61132812 40.302734375 2227.6875 119.69140625 c 1
 2172.59472656 40.912109375 2090.3046875 0 1983 0 c 0
 1858.03613281 0 1764.22753906 44.6259765625 1708.81445312 129.024414062 c 1
 1653.72167969 44.044921875 1573.59082031 0 1474 0 c 0
 1419.96582031 0 1367.58105469 12.9736328125 1318.28710938 37.4970703125 c 1
 1304.14941406 -330.154296875 1087.67285156 -518 686 -518 c 0
 315.28515625 -518 78 -330.810546875 78 37 c 0
 78 178.911132812 108.70703125 319.828125 171.712890625 462.098632812 c 2
 179.314453125 479.263671875 l 1
 196.92578125 472.762695312 l 1
 345.92578125 417.762695312 l 1
 365.328125 410.600585938 l 1
 357.51953125 391.44921875 l 2
 305.163085938 263.026367188 279 150.375976562 279 55 c 0
 279 -186.625 410.465820312 -305 690 -305 c 0
 990.866210938 -305 1132 -180.31640625 1132 74 c 0
 1132 163.000976562 1097.37109375 279.557617188 1027.06152344 422.155273438 c 2
 1018.64550781 439.225585938 l 1
 1035.27734375 448.477539062 l 1
 1186.27734375 532.477539062 l 1
 1206.39453125 543.668945312 l 1
 1214.66503906 522.185546875 l 1
 1296.58203125 309.401367188 l 2
 1320.54785156 251.198242188 1373.40429688 220 1469 220 c 0
 1550.81640625 220 1598.56933594 271.62109375 1611.10058594 395 c 2
 1630.09863281 585.979492188 l 1
 1631.890625 604 l 1
 1650 604 l 1
 1768 604 l 1
 1785.56445312 604 l 1
 1787.83300781 586.58203125 l 1
 1812.828125 394.618164062 l 2
 1828.96484375 274.068359375 1883.98925781 220 1983 220 c 0
 2071.63574219 220 2120.5390625 271.16796875 2131.07617188 394.74609375 c 2
 2150.08105469 605.793945312 l 1
 2151.71972656 624 l 1
 2170 624 l 1
 2288 624 l 1
 2305.78027344 624 l 1
 2307.86230469 606.341796875 l 1
 2332.86035156 394.362304688 l 2
 2346.93261719 277.091796875 2405 220 2513.16992188 220 c 2
 2559 220 l 6
 2569 220 2577 166.653320312 2577 128 c 6
 2577 94 l 6
 2577 54.642578125 2569 0 2559 0 c 6
EndSplineSet
EndChar

StartChar: uniFEB3
Encoding: 65203 65203 190
GlifName: uniF_E_B_3
Width: 1592
VWidth: 2311
GlyphClass: 2
Flags: HW
AnchorPoint: "Anchor-10" 904.23 993.89 basechar 0
AnchorPoint: "Anchor-7" 805.43 -178.22 basechar 0
LayerCount: 2
Fore
SplineSet
-4 220 m 6
 63 220 l 2
 201 220 266.115234375 274.23046875 278.099609375 394.990234375 c 2
 297.099609375 584.990234375 l 1
 298.900390625 603 l 1
 317 603 l 1
 435 603 l 1
 452.552734375 603 l 1
 454.831054688 585.595703125 l 1
 479.831054688 394.59375 l 2
 495.959960938 271.251953125 550.553710938 219.98828125 660.345703125 219.98828125 c 0
 748.89453125 219.98828125 802.811523438 273.064453125 815.099609375 394.990234375 c 2
 834.099609375 584.990234375 l 1
 835.900390625 603 l 1
 854 603 l 1
 972 603 l 1
 989.564453125 603 l 1
 991.833007812 585.58203125 l 1
 1016.83300781 393.58203125 l 2
 1032.72460938 271.528320312 1088.671875 220.98828125 1178.32324219 220.98828125 c 0
 1275.01660156 220.98828125 1314 248.69140625 1314 403 c 0
 1314 476.96875 1281.33398438 633.600585938 1267.16503906 673.2734375 c 2
 1260.20117188 692.7734375 l 1
 1279.93066406 699.056640625 l 1
 1436.93066406 749.056640625 l 1
 1455.39453125 754.9375 l 1
 1461.85546875 736.66796875 l 2
 1496.67871094 638.204101562 1517 543.513671875 1517 415 c 0
 1517 159.916992188 1412.71386719 0 1186 0 c 0
 1060.48925781 0 965.974609375 43.619140625 910.801757812 129.37109375 c 1
 850.323242188 44.150390625 766.487304688 0 662 0 c 0
 530.065429688 0 429.595703125 42.2197265625 367.817382812 123.47265625 c 1
 296.297851562 40.7890625 192 0 61 0 c 2
 -4 0 l 6
 -35 0 -42 48.0888671875 -42 94 c 6
 -42 128 l 6
 -42 173.405273438 -35 220 -4 220 c 6
EndSplineSet
EndChar

StartChar: uniFEB4
Encoding: 65204 65204 191
GlifName: uniF_E_B_4
Width: 1756
VWidth: 2306
GlyphClass: 2
Flags: HW
AnchorPoint: "Anchor-7" 805.43 -178.22 basechar 0
AnchorPoint: "Anchor-10" 904.23 993.89 basechar 0
LayerCount: 2
Fore
SplineSet
1763 0 m 6
 1711 0 l 2
 1582 0 1486.75878906 38.451171875 1431.58496094 118.620117188 c 1
 1376.29394531 40.005859375 1293.12695312 0 1186 0 c 0
 1060.48925781 0 965.974609375 43.619140625 910.801757812 129.37109375 c 1
 850.323242188 44.150390625 766.487304688 0 662 0 c 0
 530.065429688 0 429.595703125 42.2197265625 367.817382812 123.47265625 c 1
 296.297851562 40.7890625 192 0 61 0 c 2
 -4 0 l 2
 -35 0 -42 48.0888671875 -42 94 c 2
 -42 128 l 2
 -42 173.405273438 -35 220 -4 220 c 2
 63 220 l 2
 201 220 266.1171875 274.248046875 278.098632812 394.982421875 c 2
 297.099609375 584.990234375 l 1
 298.900390625 603 l 1
 317 603 l 1
 435 603 l 1
 452.552734375 603 l 1
 454.831054688 585.595703125 l 1
 479.831054688 394.59375 l 2
 495.959960938 271.251953125 550.553710938 219.98828125 660.345703125 219.98828125 c 0
 748.89453125 219.98828125 802.811523438 273.064453125 815.099609375 394.990234375 c 2
 834.099609375 584.990234375 l 1
 835.900390625 603 l 1
 854 603 l 1
 972 603 l 1
 989.564453125 603 l 1
 991.833007812 585.58203125 l 1
 1016.828125 393.618164062 l 2
 1033.1015625 272.046875 1087.93652344 220.98828125 1188.32324219 220.98828125 c 0
 1275.44238281 220.98828125 1324.625 272.170898438 1335.07714844 394.750976562 c 2
 1354.08105469 604.801757812 l 1
 1355.72753906 623 l 1
 1374 623 l 1
 1492 623 l 1
 1509.78027344 623 l 1
 1511.86230469 605.341796875 l 1
 1536.85839844 393.372070312 l 2
 1550.90527344 277.256835938 1609.00792381 223.362848285 1717.38671875 220.99609375 c 2
 1763 220 l 6
 1773 220 1781 166.653320312 1781 128 c 6
 1781 94 l 6
 1781 54.642578125 1773 0 1763 0 c 6
EndSplineSet
EndChar

StartChar: uniFEBA
Encoding: 65210 65210 197
GlifName: uniF_E_B_A_
Width: 2550
VWidth: 2311
GlyphClass: 2
Flags: HW
AnchorPoint: "Anchor-10" 1955.64 1104.47 basechar 0
AnchorPoint: "Anchor-7" 686.95 -694.09 basechar 0
LayerCount: 2
Fore
SplineSet
2556 0 m 6
 2520 0 l 2
 2353 0 2264.41308594 26.373046875 2184.95410156 79.1962890625 c 1
 2056.22851562 23.35546875 1891.34375 0 1697 0 c 2
 1531 0 l 2
 1450.44238281 0 1378.68457031 13.439453125 1318.36328125 39.51171875 c 1
 1304.93652344 -329.5 1089.45507812 -517.008789062 688.024414062 -518 c 0
 315.328125 -518 78 -331.8203125 78 38 c 0
 78 178.921875 108.689453125 320.8046875 171.734375 462.147460938 c 2
 179.361328125 479.24609375 l 1
 196.92578125 472.762695312 l 1
 345.92578125 417.762695312 l 1
 365.328125 410.600585938 l 1
 357.51953125 391.44921875 l 2
 305.163085938 263.026367188 279 150.375976562 279 55 c 0
 279 -187.595703125 410.38671875 -305 691 -305 c 0
 990.860351562 -305 1132 -180.30078125 1132 73 c 0
 1132 162.017578125 1097.3515625 279.595703125 1027.06152344 422.155273438 c 2
 1018.64550781 439.225585938 l 1
 1035.27734375 448.477539062 l 1
 1186.27734375 532.477539062 l 1
 1206.47753906 543.71484375 l 1
 1214.69433594 522.109375 l 1
 1295.61621094 309.3125 l 2
 1307.42675781 280.180664062 1320.97265625 256.740234375 1333.84082031 249.131835938 c 1
 1390.04199219 327.671875 1734.45117188 798 2060 798 c 0
 2285.29589844 798 2426 652.967773438 2426 431 c 0
 2426 350.587890625 2403.94238281 277.626953125 2364.22363281 220 c 1
 2556 220 l 6
 2566 220 2574 166.653320312 2574 128 c 6
 2574 94 l 6
 2574 54.642578125 2566 0 2556 0 c 6
2219 431 m 0
 2219 525.030273438 2155.45605469 578 2060.04296875 578 c 0
 1882.68164062 577.239257812 1645.85351562 314.6015625 1568.43457031 220 c 1
 1710 220 l 2
 1985.88378906 220 2219 264 2219 431 c 0
EndSplineSet
EndChar

StartChar: uniFEBB
Encoding: 65211 65211 198
GlifName: uniF_E_B_B_
Width: 1680
VWidth: 2311
GlyphClass: 2
Flags: HW
AnchorPoint: "Anchor-10" 1120.38 1129.17 basechar 0
AnchorPoint: "Anchor-7" 780.518 -215 basechar 0
LayerCount: 2
Fore
SplineSet
-4 220 m 6
 49 220 l 2
 177 220 233.248046875 273.666992188 236.006835938 389.51953125 c 2
 242.0078125 602.563476562 l 1
 242.469726562 618.967773438 l 1
 258.649414062 621.717773438 l 1
 411.649414062 647.717773438 l 1
 434.321289062 651.5703125 l 1
 434.991210938 628.583007812 l 1
 441.993164062 388.529296875 l 2
 443.87109375 309.661132812 459.580078125 263.317382812 512.349609375 248.444335938 c 1
 566.633789062 324.426757812 912.40625 798 1239 798 c 0
 1464.29589844 798 1605 652.967773438 1605 431 c 0
 1605 115.986328125 1299.83886719 0 876 0 c 2
 710 0 l 2
 552.82421875 0 432.684570312 40.6201171875 342.010742188 123.317382812 c 1
 272.0625 40.4296875 172 0 48 0 c 2
 -4 0 l 6
 -35 0 -42 48.0888671875 -42 94 c 6
 -42 128 l 6
 -42 173.405273438 -35 220 -4 220 c 6
1398 431 m 0
 1398 525.030273438 1334.45605469 578 1239.04296875 578 c 0
 1061.68164062 577.239257812 824.853515625 314.6015625 747.434570312 220 c 1
 889 220 l 2
 1164.88378906 220 1398 264 1398 431 c 0
EndSplineSet
EndChar

StartChar: uniFEBC
Encoding: 65212 65212 199
GlifName: uniF_E_B_C_
Width: 1729
VWidth: 2311
GlyphClass: 2
Flags: HW
AnchorPoint: "Anchor-7" 780.518 -215 basechar 0
AnchorPoint: "Anchor-10" 1120.38 1129.17 basechar 0
LayerCount: 2
Fore
SplineSet
1735 0 m 6
 1699 0 l 2
 1532 0 1443.41308594 26.373046875 1363.95410156 79.1962890625 c 1
 1235.22851562 23.35546875 1070.34375 0 876 0 c 2
 710 0 l 2
 551.901367188 0 432.528320312 40.65625 342.006835938 123.3125 c 1
 272.06640625 40.4345703125 172 0 48 0 c 2
 -4 0 l 2
 -35 0 -42 48.0888671875 -42 94 c 2
 -42 128 l 2
 -42 173.405273438 -35 220 -4 220 c 2
 49 220 l 2
 177 220 233.248046875 273.666992188 236.006835938 389.51953125 c 2
 242.0078125 602.563476562 l 1
 242.469726562 618.967773438 l 1
 258.649414062 621.717773438 l 1
 411.649414062 647.717773438 l 1
 434.321289062 651.5703125 l 1
 434.991210938 628.583007812 l 1
 441.993164062 388.529296875 l 2
 443.879882812 309.268554688 458.689453125 262.612304688 512.225585938 248.271484375 c 1
 566.749023438 324.586914062 912.361328125 798 1239 798 c 0
 1464.29589844 798 1605 652.967773438 1605 431 c 0
 1605 350.587890625 1582.94238281 277.626953125 1543.22363281 220 c 1
 1735 220 l 6
 1745 220 1753 166.653320312 1753 128 c 6
 1753 94 l 6
 1753 54.642578125 1745 0 1735 0 c 6
1398 431 m 0
 1398 525.030273438 1334.45605469 578 1239.04296875 578 c 0
 1061.68164062 577.239257812 824.853515625 314.6015625 747.434570312 220 c 1
 889 220 l 2
 1164.88378906 220 1398 264 1398 431 c 0
EndSplineSet
EndChar

StartChar: uniFEC2
Encoding: 65218 65218 205
GlifName: uniF_E_C_2
Width: 1612
VWidth: 2311
GlyphClass: 2
Flags: HW
AnchorPoint: "Anchor-10" 346.043 1476.92 basechar 0
AnchorPoint: "Anchor-7" 732.918 -215.32 basechar 0
LayerCount: 2
Fore
SplineSet
1618 0 m 2
 1582 0 l 2
 1415 0 1326.41308594 26.373046875 1246.95410156 79.1962890625 c 1
 1118.22851562 23.35546875 953.34375 0 759 0 c 2
 653 0 l 2
 355.494140625 0 179.71484375 10.896484375 64.345703125 32.3369140625 c 2
 48.1123046875 35.353515625 l 1
 48 51.865234375 l 1
 47 199.865234375 l 1
 46.8642578125 220 l 1
 67 220 l 1
 274.426757812 220 l 1
 241.56640625 1333.04785156 l 5
 256.607421875 1337.25976562 l 5
 431.607421875 1386.25976562 l 5
 457 1393.36914062 l 5
 457 1367 l 5
 457 312.204101562 l 1
 553.33203125 445.049804688 833.981445312 798 1122 798 c 0
 1347.29589844 798 1488 652.967773438 1488 431 c 0
 1488 350.587890625 1465.94238281 277.626953125 1426.22363281 220 c 1
 1618 220 l 2
 1628 220 1636 166.653320312 1636 128 c 2
 1636 94 l 2
 1636 54.642578125 1628 0 1618 0 c 2
1122.04296875 578 m 0
 944.681640625 577.239257812 707.853515625 314.6015625 630.434570312 220 c 1
 772 220 l 2
 1047.88378906 220 1281 264 1281 431 c 0
 1281 525.030273438 1217.53515625 578 1122.04296875 578 c 0
EndSplineSet
EndChar

StartChar: uniFEC3
Encoding: 65219 65219 206
GlifName: uniF_E_C_3
Width: 1482
VWidth: 2311
GlyphClass: 2
Flags: HW
AnchorPoint: "Anchor-10" 261.043 1476.92 basechar 0
AnchorPoint: "Anchor-7" 615.363 -214.3 basechar 0
LayerCount: 2
Fore
SplineSet
-4 220 m 2
 189.426757812 220 l 1
 156.56640625 1333.04785156 l 5
 171.607421875 1337.25976562 l 5
 346.607421875 1386.25976562 l 5
 372 1393.36914062 l 5
 372 1367 l 5
 372 312.204101562 l 1
 469.33203125 445.049804688 749.981445312 798 1038 798 c 0
 1263.29589844 798 1404 652.967773438 1404 431 c 0
 1404 115.986328125 1099 0 675 0 c 2
 -4 0 l 2
 -35 0 -42 48.0888671875 -42 94 c 2
 -42 128 l 2
 -42 173.405273438 -35 220 -4 220 c 2
1197 431 m 0
 1197 525.030273438 1133.45605469 578 1038.04296875 578 c 0
 860.681640625 577.239257812 623.853515625 314.6015625 546.434570312 220 c 1
 688 220 l 2
 963.883789062 220 1197 264 1197 431 c 0
EndSplineSet
EndChar

StartChar: uniFEC4
Encoding: 65220 65220 207
GlifName: uniF_E_C_4
Width: 1528
VWidth: 2311
GlyphClass: 2
Flags: HW
AnchorPoint: "Anchor-10" 261.043 1476.92 basechar 0
AnchorPoint: "Anchor-7" 615.363 -214.3 basechar 0
LayerCount: 2
Fore
SplineSet
1534 0 m 2
 1498 0 l 2
 1331 0 1242.41308594 26.373046875 1162.95410156 79.1962890625 c 1
 1034.22851562 23.35546875 869 0 675 0 c 2
 -4 0 l 2
 -35 0 -42 48.0888671875 -42 94 c 2
 -42 128 l 2
 -42 173.405273438 -35 220 -4 220 c 2
 189.426757812 220 l 1
 156.56640625 1333.04785156 l 5
 171.607421875 1337.25976562 l 5
 346.607421875 1386.25976562 l 5
 372 1393.36914062 l 5
 372 1367 l 5
 372 312.204101562 l 1
 468.74609375 445.190429688 750.739257812 798 1038 798 c 0
 1263.29589844 798 1404 652.967773438 1404 431 c 0
 1404 350.587890625 1381.94238281 277.626953125 1342.22363281 220 c 1
 1534 220 l 2
 1544 220 1552 166.653320312 1552 128 c 2
 1552 94 l 2
 1552 54.642578125 1544 0 1534 0 c 2
1038.04296875 578 m 0
 861.530273438 577.239257812 624.114257812 314.567382812 546.51171875 220 c 1
 688 220 l 2
 963.883789062 220 1197 264 1197 431 c 0
 1197 525.030273438 1133.53515625 578 1038.04296875 578 c 0
EndSplineSet
EndChar

StartChar: uniFECA
Encoding: 65226 65226 213
GlifName: uniF_E_C_A_
Width: 1218
VWidth: 2311
GlyphClass: 2
Flags: HW
AnchorPoint: "Anchor-7" 614.525 -761.648 basechar 0
AnchorPoint: "Anchor-10" 603.4 1232.21 basechar 0
LayerCount: 2
Fore
SplineSet
1224.52148438 0 m 6
 1170.52636719 0.53125 l 2
 927.999187696 2.91743917456 722.7421875 94.3125 563.68359375 237.051757812 c 1
 380.366210938 122.7421875 285.005859375 24.7109375 285.005859375 -127.9140625 c 0
 285.005859375 -334.991210938 459.568359375 -419.674804688 739.012695312 -419.674804688 c 0
 833.905273438 -419.674804688 949.721679688 -405.951171875 1044.87109375 -378.947265625 c 2
 1064.12207031 -373.483398438 l 1
 1069.57421875 -392.73828125 l 1
 1113.58300781 -548.150390625 l 1
 1118.54492188 -565.671875 l 1
 1101.56445312 -572.249023438 l 2
 987.013671875 -616.623046875 843.721679688 -628.865234375 739.655273438 -628.865234375 c 0
 368.624023438 -628.865234375 76.458984375 -478.81640625 76.458984375 -124.31640625 c 0
 76.458984375 64.267578125 193.264648438 224.532226562 417.920898438 364.461914062 c 1
 245.772460938 487.567382812 156.717773438 597.912109375 156.717773438 695.944335938 c 0
 156.717773438 874.637695312 336.424804688 948.587890625 626.083007812 948.587890625 c 0
 909.6484375 948.587890625 1081.52050781 889.159179688 1081.52050781 698.458984375 c 0
 1081.52050781 583.676757812 959.885742188 454.474609375 754.44140625 340.248046875 c 1
 864.654296875 261.8984375 1001.99796268 223.883254441 1172.87011719 220.901367188 c 2
 1224.52148438 220 l 6
 1234 220 1242.52148438 166.653320312 1242.52148438 128 c 6
 1242.52148438 94 l 6
 1242.52148438 54.642578125 1235 -0 1224.52148438 0 c 6
879.19921875 691.81640625 m 0
 879.123046875 728.353515625 800.624023438 745.051757812 621.862304688 745.178710938 c 0
 443.010742188 745.178710938 366.915039062 713.473632812 366.915039062 696.893554688 c 0
 366.915039062 664.018554688 452.33984375 585.43359375 604.041015625 478.259765625 c 1
 686.78125 517.194335938 878.838867188 639.71875 879.19921875 691.81640625 c 0
EndSplineSet
EndChar

StartChar: uniFECB
Encoding: 65227 65227 214
GlifName: uniF_E_C_B_
Width: 994
VWidth: 2311
GlyphClass: 2
Flags: HW
AnchorPoint: "Anchor-10" 498.841 1150.38 basechar 0
AnchorPoint: "Anchor-7" 471.696 -215.05 basechar 0
LayerCount: 2
Fore
SplineSet
-4 220 m 2
 221.395507812 220 l 1
 157.55859375 290.701171875 126 374.510742188 126 481 c 0
 126 696.11328125 297.826171875 881 514 881 c 0
 658.822265625 881 776.685546875 821.587890625 861.206054688 704.720703125 c 2
 870.163085938 692.334960938 l 1
 860.563476562 680.439453125 l 1
 768.563476562 566.439453125 l 1
 754.486328125 548.995117188 l 1
 738.75390625 564.962890625 l 2
 675.1796875 629.486328125 596.102539062 662 523 662 c 0
 403.943359375 662 332 579.372070312 332 474 c 0
 332 364.049804688 394.958984375 309.163085938 486.859375 254.40625 c 0
 493.708007812 250.801757812 508.586914062 247 529 247 c 0
 557.431640625 247 597.619140625 252.727539062 648.778320312 263.549804688 c 2
 893.6953125 317.53125 l 1
 918 322.888671875 l 1
 918 298 l 1
 918 130 l 1
 918 114.530273438 l 1
 903.026367188 110.641601562 l 2
 616.68359375 36.29296875 354 0 117 0 c 2
 -4 0 l 2
 -35 0 -42 48.0888671875 -42 94 c 2
 -42 128 l 2
 -42 173.405273438 -35 220 -4 220 c 2
EndSplineSet
EndChar

StartChar: uniFEDA
Encoding: 65242 65242 229
GlifName: uniF_E_D_A_
Width: 1956
VWidth: 2311
GlyphClass: 2
Flags: HW
AnchorPoint: "Anchor-10" 958.52 1322.01 basechar 0
AnchorPoint: "Anchor-7" 885.06 -181.16 basechar 0
LayerCount: 2
Fore
SplineSet
717.072265625 726.892578125 m 2
 765.194335938 721.879882812 816.71875 716 860 716 c 0
 947.06640625 716 1024 752.240234375 1024 789 c 0
 1024 812.264648438 1000.38964844 823.854492188 952.919921875 831.23828125 c 0
 870.392578125 844.099609375 796 897.197265625 796 992 c 0
 796 1167.65039062 975.916015625 1206.08691406 1128.84082031 1214.96679688 c 2
 1150 1216.1953125 l 1
 1150 1195 l 1
 1150 1102 l 1
 1150 1083.19921875 l 1
 1131.234375 1082.03808594 l 2
 1028.55859375 1075.6875 932 1043.37988281 932 1000 c 0
 932 964.681640625 963.885742188 956.48046875 1026.90625 947.788085938 c 0
 1112.0859375 934.513671875 1160 882.153320312 1160 797 c 0
 1160 722.954101562 1115.5859375 662.735351562 1036.87695312 617.608398438 c 0
 985.123046875 588.497070312 922.586914062 574 848 574 c 0
 806.065429688 574 757.373046875 580.16796875 711.92578125 587.237304688 c 2
 695 589.870117188 l 1
 695 607 l 1
 695 707 l 1
 695 729.19140625 l 1
 717.072265625 726.892578125 l 2
1645.6171875 174.106445312 m 1
 1489.48242188 32.2265625 1268.09179688 1.5498046875 907.04296875 0 c 0
 432.064453125 0 77 99.314453125 77 547 c 0
 77 620.071289062 88.3271484375 696.974609375 111.796875 777.590820312 c 2
 117.267578125 796.37890625 l 1
 136.169921875 791.3203125 l 1
 278.169921875 753.3203125 l 1
 295.3671875 748.717773438 l 1
 292.7890625 731.104492188 l 2
 280.8671875 649.639648438 275 587.250976562 275 545 c 0
 275 258.235351562 548.595703125 220 921 220 c 0
 985.35546875 220 1052.45507812 220.177734375 1118.14746094 222.956054688 c 0
 1374.44238281 233.795898438 1586.61230469 283.189453125 1578.01855469 485.143554688 c 2
 1540.33300781 1334.11816406 l 5
 1555.765625 1338.30273438 l 5
 1732.765625 1386.30273438 l 5
 1758 1393.14648438 l 5
 1758 1367 l 5
 1758 454 l 2
 1758 234.344726562 1833.76171875 224.985351562 1937.76855469 220.985351562 c 2
 1964.92675781 219.940429688 l 2
 2002.37109375 218.135742188 2001 166.795898438 2001 128 c 2
 2001 94 l 2
 2001 54.642578125 2003.20507812 0 1962.74316406 0 c 2
 1923.48730469 1.0068359375 l 2
 1803.07226562 4.09375 1688.85351562 61.9931640625 1645.6171875 174.106445312 c 1
EndSplineSet
EndChar

StartChar: uniFEDB
Encoding: 65243 65243 230
GlifName: uniF_E_D_B_
Width: 894
VWidth: 2311
GlyphClass: 2
Flags: HW
AnchorPoint: "Anchor-10" 233.03 1397.54 basechar 0
AnchorPoint: "Anchor-7" 295.74 -214.64 basechar 0
LayerCount: 2
Fore
SplineSet
-4 220 m 2
 275 220 l 2
 443 220 514 275.202148438 514 378 c 0
 514 416.086914062 495.354492188 457.63671875 452.046875 506.717773438 c 2
 63.091796875 941.66796875 l 1
 57.5009765625 947.919921875 l 5
 57.5009765625 947.919921875 62.6323947723 1155.64238594 114.723632812 1175.20703125 c 6
 835 1445.73144531 l 5
 835 1416.85742188 l 5
 835 1241.85742188 l 5
 835 1228 l 5
 271.549804688 1016.60253906 l 5
 599.822265625 653.427734375 l 2
 671.581054688 574.388671875 708 485.23046875 708 389 c 0
 708 130.624023438 545 0 241 0 c 2
 -4 0 l 2
 -35 0 -42 48.0888671875 -42 94 c 2
 -42 128 l 2
 -42 173.405273438 -35 220 -4 220 c 2
EndSplineSet
EndChar

StartChar: uniFEDC
Encoding: 65244 65244 231
GlifName: uniF_E_D_C_
Width: 1110
VWidth: 2311
GlyphClass: 2
Flags: HW
AnchorPoint: "Anchor-10" 233.03 1397.54 basechar 0
AnchorPoint: "Anchor-7" 295.74 -214.64 basechar 0
LayerCount: 2
Fore
SplineSet
271.549804688 1016.60253906 m 5
 901.87109375 317.373046875 l 2
 961 252 1018 220 1072 220 c 2
 1117 220 l 2
 1127 220 1135 166.653320312 1135 128 c 2
 1135 94 l 2
 1135 54.642578125 1127 0 1117 0 c 2
 1067.91699219 0 l 2
 944 0 817.603515625 88.1796875 688.9296875 248.112304688 c 1
 634.142578125 80.23046875 480 0 241 0 c 2
 -4 0 l 2
 -35 0 -42 48.0888671875 -42 94 c 2
 -42 128 l 2
 -42 173.405273438 -35 220 -4 220 c 2
 275 220 l 2
 443 220 514 275.202148438 514 378 c 0
 514 416.185546875 495.333007812 458.622070312 452.11328125 506.64453125 c 2
 63.091796875 941.66796875 l 1
 57.5009765625 947.919921875 l 5
 57.5009765625 947.919921875 62.6328125 1155.64257812 114.723632812 1175.20703125 c 6
 835 1445.73144531 l 5
 835 1416.85742188 l 5
 835 1241.85742188 l 5
 835 1228 l 5
 271.549804688 1016.60253906 l 5
EndSplineSet
EndChar

StartChar: uniFEDE
Encoding: 65246 65246 233
GlifName: uniF_E_D_E_
Width: 1478
VWidth: 2311
GlyphClass: 2
Flags: HW
AnchorPoint: "Anchor-10" 632.91 1055.85 basechar 0
AnchorPoint: "Anchor-7" 643.612 -693.916 basechar 0
LayerCount: 2
Fore
SplineSet
1485 0 m 2
 1484.4453125 0 l 1
 1483.890625 0.03125 l 1
 1466.2890625 1.0087890625 l 2
 1367.59179688 2.798828125 1303.46386719 17.0400390625 1256.12109375 47.2158203125 c 1
 1232.72851562 -305.7109375 1033.55859375 -488 668 -488 c 0
 308.061523438 -488 78 -279.17578125 78 68 c 0
 78 193.719726562 112.922851562 335.296875 181.684570312 492.03515625 c 2
 189.252929688 509.286132812 l 1
 206.92578125 502.762695312 l 1
 355.92578125 447.762695312 l 1
 375.328125 440.600585938 l 1
 367.51953125 421.44921875 l 2
 315.163085938 293.026367188 289 180.375976562 289 85 c 0
 289 -142.2578125 425.118164062 -275 671 -275 c 0
 675.881835938 -275 680.716796875 -274.954101562 685.504882812 -274.864257812 c 0
 950.819335938 -269.837890625 1077 -130 1071.00390625 161.6015625 c 2
 1046.70019531 1329.84179688 l 5
 1061.31445312 1334.17480469 l 5
 1233.31445312 1385.17480469 l 5
 1259 1392.79101562 l 5
 1259 1366 l 5
 1259 395 l 2
 1259 252 1318.3046875 221.971679688 1463.52148438 220.997070312 c 1
 1485 220 l 2
 1495 220 1503 166.653320312 1503 128 c 2
 1503 94 l 2
 1503 54.642578125 1495 0 1485 0 c 2
EndSplineSet
EndChar

StartChar: uniFEDF
Encoding: 65247 65247 234
GlifName: uniF_E_D_F_
Width: 561
VWidth: 2311
GlyphClass: 2
Flags: HW
AnchorPoint: "Anchor-10" 334.773 1473.4 basechar 0
AnchorPoint: "Anchor-7" 247.754 -182.99 basechar 0
LayerCount: 2
Fore
SplineSet
-4 220 m 2
 38 220 l 2
 42 220 46.361328125 220.068359375 50.44140625 220.203125 c 0
 197 225.0546875 266 314 259.01171875 499.303710938 c 2
 228.486328125 1325.40820312 l 5
 242.873046875 1330.03808594 l 5
 416.873046875 1386.03808594 l 5
 443 1394.44726562 l 5
 443 1367 l 5
 443 486 l 2
 443 190 329 0 47 0 c 2
 -4 0 l 2
 -35 0 -42 48.0888671875 -42 94 c 2
 -42 128 l 2
 -42 173.405273438 -35 220 -4 220 c 2
EndSplineSet
EndChar

StartChar: uniFEE0
Encoding: 65248 65248 235
GlifName: uniF_E_E_0
Width: 638
VWidth: 2311
GlyphClass: 2
Flags: HW
AnchorPoint: "Anchor-10" 333.574 1472.16 basechar 0
AnchorPoint: "Anchor-7" 291.534 -235.99 basechar 0
LayerCount: 2
Fore
SplineSet
645 0 m 2
 633 0 l 2
 524 0 431.529296875 35.7041015625 358.284179688 105.383789062 c 1
 286.922851562 34.8388671875 196 0 87 0 c 2
 -4 0 l 2
 -35 0 -42 48.0888671875 -42 94 c 2
 -42 128 l 2
 -42 173.405273438 -35 220 -4 220 c 2
 89 220 l 2
 211 220 267.098174728 289.982332921 262.010742188 446.358398438 c 2
 230.49609375 1326.52539062 l 5
 245.008789062 1331.08203125 l 5
 417.008789062 1385.08203125 l 5
 443 1393.24121094 l 5
 443 1366 l 5
 443 448 l 2
 443 290 504 220 632 220 c 2
 645 220 l 2
 655 220 663 166.653320312 663 128 c 2
 663 94 l 2
 663 54.642578125 655 0 645 0 c 2
EndSplineSet
EndChar

StartChar: uniFEE2
Encoding: 65250 65250 237
GlifName: uniF_E_E_2
Width: 1187
VWidth: 2311
GlyphClass: 2
Flags: HW
AnchorPoint: "Anchor-10" 663.29 1033.64 basechar 0
AnchorPoint: "Anchor-7" 659.239 -292.747 basechar 0
LayerCount: 2
Fore
SplineSet
1194 0 m 2
 1164.78710938 0 l 2
 1080 0 1010.26171875 24.736328125 959.298828125 66.201171875 c 1
 917.412109375 -27.634765625 823.813476562 -87 719 -87 c 0
 490.374023438 -87 358.888671875 116.913085938 330.654296875 329.6953125 c 1
 279.759770192 285.378551745 257 179 260.98046875 44.9560546875 c 2
 277.991210938 -540.418945312 l 1
 278.39453125 -554.287109375 l 1
 265.545898438 -559.521484375 l 1
 103.545898438 -625.521484375 l 1
 76 -636.744140625 l 1
 76 -607 l 1
 76 106 l 2
 76 304.264648438 139.866210938 454.587890625 271.51953125 549.37890625 c 1
 403.696289062 639.545898438 544.653320312 688 702 688 c 0
 953.71484375 688 1020.76269531 518.323242188 1021.984375 258.206054688 c 1
 1047.25292969 230.983398438 1103 220 1170 220 c 2
 1194 220 l 2
 1204 220 1212 166.653320312 1212 128 c 2
 1212 94 l 2
 1212 54.642578125 1204 0 1194 0 c 2
505.807617188 426.69140625 m 5
 520.44140625 248.453125 602.30078125 121 718 121 c 0
 786.005859375 121 830 163.55859375 830 269 c 0
 830 397.666015625 807.814453125 478 701 478 c 0
 626.2578125 478 561.065429688 455.2265625 505.807617188 426.69140625 c 5
EndSplineSet
EndChar

StartChar: uniFEE3
Encoding: 65251 65251 238
GlifName: uniF_E_E_3
Width: 988
VWidth: 2311
GlyphClass: 2
Flags: HW
AnchorPoint: "Anchor-10" 496.711 1051.91 basechar 0
AnchorPoint: "Anchor-7" 500.552 -226.89 basechar 0
LayerCount: 2
Fore
SplineSet
-4 220 m 6
 77 220 l 2
 117 220 145.711914062 238.260742188 166.045898438 279.8125 c 0
 230.203125 410.131835938 279.198242188 504.192382812 314.838867188 564.270507812 c 0
 381.3984375 674.51171875 467.795898438 734.009765625 571.275390625 734.009765625 c 0
 778.095703125 734.009765625 910 501.19140625 910 269 c 0
 910 87.9189453125 795.852539062 -48.0498046875 613.66015625 -48.0498046875 c 0
 457.275390625 -48.0498046875 319.6875 61.322265625 276.817382812 98.3525390625 c 1
 216.313476562 37.2822265625 171 0 61 0 c 2
 -4 0 l 6
 -35 0 -42 48.0888671875 -42 94 c 6
 -42 128 l 6
 -42 173.405273438 -35 220 -4 220 c 6
605 154 m 0
 668.512695312 154 711.709960938 199.853515625 711.709960938 271.879882812 c 0
 711.709960938 366.2109375 640.921875 511.794921875 561.166015625 511.794921875 c 0
 531.181640625 511.794921875 499.313476562 490.94140625 465.959960938 437.399414062 c 0
 432.009765625 383.263671875 401.614257812 327.583984375 375.325195312 270.286132812 c 1
 467.833984375 190.5625 544.555664062 154 605 154 c 0
EndSplineSet
EndChar

StartChar: uniFEE4
Encoding: 65252 65252 239
GlifName: uniF_E_E_4
Width: 1077
VWidth: 2311
GlyphClass: 2
Flags: HW
AnchorPoint: "Anchor-7" 500.552 -226.89 basechar 0
AnchorPoint: "Anchor-10" 496.711 1051.91 basechar 0
LayerCount: 2
Fore
SplineSet
1084 0 m 6
 1064 0 l 2
 975 0 902.69921875 23.1142578125 850.739257812 67.0712890625 c 1
 798.682617188 -5.5458984375 716.568359375 -48 614 -48 c 0
 457.940429688 -48 320.006835938 61.265625 276.846679688 98.3818359375 c 1
 216.283203125 37.2529296875 171 0 61 0 c 2
 -4 0 l 2
 -35 0 -42 48.0888671875 -42 94 c 2
 -42 128 l 2
 -42 173.405273438 -35 220 -4 220 c 2
 77 220 l 2
 117 220 145.711914062 238.260742188 166.045898438 279.8125 c 0
 230.203125 410.131835938 279.198242188 504.19140625 314.838867188 564.270507812 c 0
 381.104492188 674.0234375 467.309570312 734 571 734 c 0
 750.01171875 734 873.123046875 558.288085938 902.7734375 363.00390625 c 0
 921.779296875 237.965820312 896 220 1067 220 c 2
 1084 220 l 6
 1094 220 1102 166.653320312 1102 128 c 6
 1102 94 l 6
 1102 54.642578125 1094 0 1084 0 c 6
605 154 m 0
 668.061523438 154 712 200.102539062 712 272 c 0
 712 366.649414062 641.055664062 512 561 512 c 0
 531.439453125 512 499.686523438 491.36328125 465.943359375 437.374023438 c 0
 432.03125 383.296875 401.60546875 327.565429688 375.325195312 270.286132812 c 1
 467.833984375 190.5625 544.555664062 154 605 154 c 0
EndSplineSet
EndChar

StartChar: uniFEEA
Encoding: 65258 65258 245
GlifName: uniF_E_E_A_
Width: 1084
VWidth: 2311
GlyphClass: 2
Flags: HW
AnchorPoint: "Anchor-10" 676.887 1271.14 basechar 0
AnchorPoint: "Anchor-7" 442.753 -185.98 basechar 0
LayerCount: 2
Fore
SplineSet
1091 0 m 6
 1053 0 l 2
 792 0 714.588867188 180.6875 697.165039062 238.430664062 c 1
 610.328125 225.104492188 545.6171875 219 474 219 c 0
 273.836914062 219 77 289.208984375 77 495 c 0
 77 659.979492188 238.78515625 804.272460938 615.981445312 884.829101562 c 1
 604.139648438 984.643554688 l 1
 602.034179688 1002.390625 l 1
 619.432617188 1006.47167969 l 1
 781.432617188 1044.47167969 l 1
 803.6875 1049.69140625 l 1
 805.905273438 1026.94042969 l 1
 863.889648438 432.1015625 l 2
 883.399414062 260.815429688 942 220 1054 220 c 2
 1091 220 l 6
 1101 220 1109 166.653320312 1109 128 c 6
 1109 94 l 6
 1109 54.642578125 1101 0 1091 0 c 6
668.072265625 447.981445312 m 1
 641.543945312 683.310546875 l 1
 358.50390625 627.958984375 282 559.817382812 282 508 c 0
 282 457.82421875 321.862304688 427 438 427 c 0
 532.711914062 427 600.400390625 434.778320312 668.072265625 447.981445312 c 1
EndSplineSet
EndChar

StartChar: uniFEEB
Encoding: 65259 65259 246
GlifName: uniF_E_E_B_
Width: 1260
VWidth: 2311
GlyphClass: 2
Flags: HW
AnchorPoint: "Anchor-10" 588.329 1249.2 basechar 0
AnchorPoint: "Anchor-7" 490.494 -221.623 basechar 0
LayerCount: 2
Fore
SplineSet
-4 220 m 6
 180.670898438 220 l 1
 141.663085938 279.264648438 121.97265625 342.827148438 121.97265625 408.836914062 c 0
 121.97265625 592.624023438 253.522460938 737.580078125 389.895507812 796.60546875 c 1
 376.008789062 805.28515625 l 1
 385.688476562 822.015625 l 1
 466.688476562 962.015625 l 1
 477.346679688 980.436523438 l 1
 495.0703125 968.65625 l 1
 826.090820312 748.643554688 l 2
 1064.33496094 589.479492188 1190.00585938 433.795898438 1190.00585938 278.815429688 c 0
 1190.00585938 85.0654296875 1057.8203125 -36 874 -36 c 0
 731.376953125 -36 582.380859375 -4.640625 431.326171875 56.6689453125 c 1
 314.5546875 18.0322265625 175 0 30 0 c 2
 -4 0 l 6
 -35 0 -42 48.0888671875 -42 94 c 6
 -42 128 l 6
 -42 173.405273438 -35 220 -4 220 c 6
811.385742188 517.755859375 m 1
 801.463867188 394.497070312 748.111328125 289.236328125 650.881835938 202.087890625 c 1
 729.9453125 181.131835938 795.69140625 171 848 171 c 0
 957.0234375 171 999 207.864257812 999 279 c 0
 999 338.685546875 939.368164062 421.477539062 811.385742188 517.755859375 c 1
635 553 m 0
 635 617.5234375 594.024414062 646 533 646 c 0
 433.768554688 646 326 514.961914062 326 401 c 0
 326 341.067382812 357.739257812 299.529296875 429.642578125 273.315429688 c 1
 528.104492188 313.915039062 635 451.23828125 635 553 c 0
EndSplineSet
EndChar

StartChar: uniFEEC
Encoding: 65260 65260 247
GlifName: uniF_E_E_C_
Width: 994
VWidth: 2311
GlyphClass: 2
Flags: HW
AnchorPoint: "Anchor-7" 535.493 -683.658 basechar 0
AnchorPoint: "Anchor-10" 467.766 1130.88 basechar 0
LayerCount: 2
Fore
SplineSet
1001 0 m 6
 954 0 l 2
 819 0 714.713867188 -141.400390625 652.625976562 -457.850585938 c 2
 650.834960938 -466.98046875 l 1
 642.698242188 -471.491210938 l 1
 541.698242188 -527.491210938 l 1
 531.078125 -533.379882812 l 1
 520.955078125 -526.673828125 l 2
 361.829101562 -421.265625 255.627929688 -243.270507812 212.137695312 0 c 1
 -4 0 l 2
 -35 0 -42 48.0888671875 -42 94 c 2
 -42 128 l 2
 -42 173.405273438 -35 220 -4 220 c 2
 207.056640625 220.9140625 l 1
 208.791015625 519.484375 249.826171875 840 522 840 c 0
 700.313476562 840 788 703.212890625 788 504 c 0
 788 246.432249396 650.610294995 18.1480086299 407.318359375 0.9384765625 c 1
 426.4375 -108.563476562 463.396484375 -197.397460938 522.78515625 -269.529296875 c 1
 606.7890625 50.5380859375 766 220 956 220 c 2
 1001 220 l 6
 1011 220 1019 166.653320312 1019 128 c 6
 1019 94 l 6
 1019 54.642578125 1011 0 1001 0 c 6
594 512 m 0
 594 592.305664062 576.413085938 634 525 634 c 0
 412.177734375 634 402.896484375 397.383789062 402.108398438 222.618164062 c 1
 546.609375 238.057617188 594 322.909179688 594 512 c 0
EndSplineSet
EndChar

StartChar: uniFEEE
Encoding: 65262 65262 249
GlifName: uniF_E_E_E_
Width: 895
VWidth: 2311
GlyphClass: 2
Flags: HW
AnchorPoint: "Anchor-7" 316.38 -618.85 basechar 0
AnchorPoint: "Anchor-10" 430.5 1081.72 basechar 0
LayerCount: 2
Fore
SplineSet
902 0 m 2
 782.766601562 0 l 1
 730.572265625 -274.587890625 510.474609375 -514 101 -514 c 2
 97.5146484375 -514 l 1
 92.458984375 -501.498046875 l 1
 37.458984375 -365.498046875 l 1
 26.9912109375 -339.616210938 l 5
 395.476157133 -309.619894328 545.091821193 -173.078321086 588.399414062 0 c 5
 486 0 l 2
 211.256835938 0 82 87.3447265625 82 299.095703125 c 0
 84.091796875 518.747070312 218.323242188 753 435 753 c 0
 680.426757812 753 786.731445312 510.7421875 798.361328125 220 c 1
 902 220 l 2
 912 220 920 166.653320312 920 128 c 2
 920 94 l 2
 920 54.642578125 912 0 902 0 c 2
277 329 m 0
 277 223.293945312 359.583007812 211.114257812 488.890625 211.114257812 c 0
 520.956054688 211.114257812 560.129882812 212.129882812 600.8671875 214.029296875 c 1
 597.333984375 448.836914062 534.775390625 541.005859375 427.556640625 541.005859375 c 0
 344.112304688 541.005859375 277 429.51953125 277 329 c 0
EndSplineSet
EndChar

StartChar: uniFEFB
Encoding: 65275 65275 262
GlifName: uniF_E_F_B_
Width: 1153
VWidth: 2311
GlyphClass: 3
Flags: HW
AnchorPoint: "Anchor-6" 386.36 -192.28 baselig 1
AnchorPoint: "Anchor-6" 878.871 -191.57 baselig 0
AnchorPoint: "Anchor-9" 194.739 1381.91 baselig 1
AnchorPoint: "Anchor-9" 921.751 1466.28 baselig 0
LayerCount: 2
Fore
SplineSet
671.733398438 240.502929688 m 1
 790.004882812 274.114257812 851 398 843.440429688 635.396484375 c 2
 820.614257812 1325.79492188 l 5
 834.938476562 1330.40625 l 5
 1008.75 1386.36914062 l 5
 1034.87988281 1394.78222656 l 5
 1034.87988281 1367.33203125 l 5
 1034.87988281 568.7578125 l 2
 1035 372 981.840820312 223.975585938 871.990234375 129.19921875 c 0
 771.416992188 42.310546875 633.078125 -0 459.900390625 0 c 2
 206.091796875 0 l 1
 189.369140625 0 l 1
 186.408203125 16.458984375 l 1
 156.408203125 183.208984375 l 1
 152.172851562 206.75 l 1
 176.091796875 206.75 l 1
 488.814453125 206.75 l 1
 62.1767578125 1162.34082031 l 5
 76.7802734375 1171.36328125 l 5
 223.487304688 1262.01367188 l 5
 243.825195312 1274.58105469 l 5
 671.733398438 240.502929688 l 1
EndSplineSet
PairPos2: "'kern' Horizontal Kerning lookup 15-6" uni0639 dx=-60 dy=0 dh=-60 dv=0 dx=0 dy=0 dh=0 dv=0
PairPos2: "'kern' Horizontal Kerning lookup 15-6" uni063A dx=-60 dy=0 dh=-60 dv=0 dx=0 dy=0 dh=0 dv=0
LCarets2: 1 0
Ligature2: "'rlig' Required Ligatures in Arabic lookup 16 subtable" uniFEDF uniFE8E
EndChar

StartChar: uniFEFC
Encoding: 65276 65276 263
GlifName: uniF_E_F_C_
Width: 1238
VWidth: 2311
GlyphClass: 3
Flags: HW
AnchorPoint: "Anchor-6" 386.36 -192.28 baselig 1
AnchorPoint: "Anchor-6" 878.871 -191.57 baselig 0
AnchorPoint: "Anchor-9" 194.739 1381.91 baselig 1
AnchorPoint: "Anchor-9" 915.751 1470.28 baselig 0
LayerCount: 2
Fore
SplineSet
1245 0 m 6
 1232 0 l 2
 1075 0 968.201171875 65.6220703125 928.290039062 188.671875 c 1
 829.825195312 62.521484375 671.1015625 0 460 0 c 2
 206 0 l 1
 189.272460938 0 l 1
 186.315429688 16.4638671875 l 1
 156.315429688 183.463867188 l 1
 152.086914062 207 l 1
 176 207 l 1
 488.774414062 207 l 1
 61.8837890625 1161.97363281 l 1
 76.47265625 1171.00488281 l 1
 223.47265625 1262.00488281 l 1
 243.809570312 1274.59472656 l 1
 672.255859375 240.405273438 l 1
 792.2421875 273.23828125 853 397 845.010742188 635.337890625 c 2
 820.51171875 1325.41601562 l 1
 834.873046875 1330.03808594 l 1
 1008.87304688 1386.03808594 l 1
 1035 1394.44726562 l 1
 1035 1367 l 1
 1035 569 l 2
 1035 369 1091 220 1233 220 c 2
 1245 220 l 6
 1255 220 1263 166.653320312 1263 128 c 6
 1263 94 l 6
 1263 54.642578125 1255 0 1245 0 c 6
EndSplineSet
PairPos2: "'kern' Horizontal Kerning lookup 15-6" uni0639 dx=-60 dy=0 dh=-60 dv=0 dx=0 dy=0 dh=0 dv=0
PairPos2: "'kern' Horizontal Kerning lookup 15-6" uni063A dx=-60 dy=0 dh=-60 dv=0 dx=0 dy=0 dh=0 dv=0
LCarets2: 1 0
Ligature2: "'rlig' Required Ligatures in Arabic lookup 16 subtable" uniFEE0 uniFE8E
EndChar

StartChar: arabic_dot
Encoding: 65536 -1 264
GlifName: arabic_dot
Width: 165
VWidth: 2170
GlyphClass: 2
Flags: HW
LayerCount: 2
Fore
SplineSet
83.6396294412 249.048102495 m 1
 240.357653811 92.330078125 l 1
 83.6396294412 -64.3879462453 l 1
 -73.0773423816 92.330078125 l 1
 83.6396294412 249.048102495 l 1
EndSplineSet
EndChar

StartChar: arabic_2dots
Encoding: 65537 -1 265
GlifName: arabic_2dots
Width: 485
VWidth: 2170
GlyphClass: 2
Flags: HW
LayerCount: 2
Fore
SplineSet
406.947265625 236.264648438 m 1
 545.224609375 97.9873046875 l 1
 550.880859375 92.330078125 l 1
 545.224609375 86.6728515625 l 1
 406.947265625 -51.60546875 l 1
 401.290039062 -57.26171875 l 1
 395.6328125 -51.60546875 l 1
 257.35546875 86.6728515625 l 1
 251.69921875 92.330078125 l 1
 257.35546875 97.9873046875 l 1
 395.6328125 236.264648438 l 1
 401.290039062 241.920898438 l 1
 406.947265625 236.264648438 l 1
98.046875 236.264648438 m 1
 236.325195312 97.9873046875 l 1
 241.981445312 92.330078125 l 1
 236.325195312 86.6728515625 l 1
 98.046875 -51.60546875 l 1
 92.3896484375 -57.26171875 l 1
 86.732421875 -51.60546875 l 1
 -51.544921875 86.6728515625 l 1
 -57.201171875 92.330078125 l 1
 -51.544921875 97.9873046875 l 1
 86.732421875 236.264648438 l 1
 92.3896484375 241.920898438 l 1
 98.046875 236.264648438 l 1
EndSplineSet
EndChar

StartChar: arabic_3dots
Encoding: 65538 -1 266
GlifName: arabic_3dots
Width: 488
VWidth: 2170
GlyphClass: 2
Flags: HW
LayerCount: 2
Fore
SplineSet
248.879882812 467.377929688 m 1
 391.344726562 324.911132812 l 1
 248.879882812 182.446289062 l 1
 106.415039062 324.911132812 l 1
 248.879882812 467.377929688 l 1
405.879882812 234.693359375 m 1
 544.344916378 92.2285577459 l 1
 405.879882812 -50.23828125 l 1
 263.415039062 92.228515625 l 1
 405.879882812 234.693359375 l 1
91.8798828125 234.693359375 m 1
 234.344726562 92.228515625 l 1
 91.8798828125 -50.23828125 l 1
 -50.5849609375 92.228515625 l 1
 91.8798828125 234.693359375 l 1
EndSplineSet
EndChar

StartChar: arabic_3dots_a
Encoding: 65539 -1 267
GlifName: arabic_3dots_a
Width: 487
VWidth: 2170
GlyphClass: 2
Flags: HW
LayerCount: 2
Fore
SplineSet
248.879882812 -273.538085938 m 5
 106.415039062 -131.071289062 l 5
 248.879882812 11.3935546875 l 5
 391.344726562 -131.071289062 l 5
 248.879882812 -273.538085938 l 5
405.879882812 -40.853515625 m 1
 263.415039062 101.611328125 l 1
 405.879882812 244.078125 l 1
 548.344726562 101.611328125 l 1
 405.879882812 -40.853515625 l 1
91.8798828125 -40.853515625 m 1
 -50.5849609375 101.611328125 l 1
 91.8798828125 244.078125 l 1
 234.344726562 101.611328125 l 1
 91.8798828125 -40.853515625 l 1
EndSplineSet
EndChar

StartChar: uni066E.fina
Encoding: 65540 -1 268
GlifName: uni066E_.fina
Width: 2012
VWidth: 2311
GlyphClass: 2
Flags: HW
AnchorPoint: "Anchor-10" 743.06 1147.31 basechar 0
AnchorPoint: "Anchor-7" 743.06 -166.56 basechar 0
LayerCount: 2
Fore
SplineSet
2019 0 m 6
 1956 0 l 2
 1809 0 1685.79882812 73.236328125 1612.48730469 206.928710938 c 1
 1465.76269531 72.1064453125 1245.79492188 0 907 0 c 0
 432.099609375 0 77 99.314453125 77 547 c 0
 77 620.071289062 88.3271484375 696.974609375 111.796875 777.590820312 c 2
 117.267578125 796.37890625 l 1
 136.169921875 791.3203125 l 1
 278.169921875 753.3203125 l 1
 295.3671875 748.717773438 l 1
 292.7890625 731.104492188 l 2
 280.8671875 649.639648438 275 587.250976562 275 545 c 0
 275 257.190429688 545.5234375 221 921 221 c 0
 1322.171875 221 1553.09863281 309.087890625 1589.15332031 598.47265625 c 2
 1591.33691406 616 l 1
 1609 616 l 1
 1730 616 l 1
 1748.42773438 616 l 1
 1749.93359375 597.633789062 l 2
 1759.87207031 476.377929688 1773.22949219 393.099609375 1789.6640625 350.186523438 c 0
 1823.00683594 264.051757812 1885 220 1979 220 c 2
 2019 220 l 6
 2029 220 2037 166.653320312 2037 128 c 6
 2037 94 l 6
 2037 54.642578125 2029 0 2019 0 c 6
EndSplineSet
EndChar

StartChar: uni06A1.fina
Encoding: 65543 -1 269
GlifName: uni06A_1.fina
Width: 1902
VWidth: 2311
GlyphClass: 2
Flags: HW
AnchorPoint: "Anchor-10" 562.8 1260.73 basechar 0
AnchorPoint: "Anchor-7" 675.22 -213.73 basechar 0
LayerCount: 2
Fore
SplineSet
1909 0 m 6
 1812 0 l 2
 1652 0 1519.04003906 25.7314453125 1416.41699219 97.9169921875 c 1
 1310.77734375 22.431640625 1073.46386719 0 907 0 c 0
 678.676757812 0 507.450195312 23.7998046875 391.288085938 72.546875 c 0
 187.92578125 157.1953125 78 309.729492188 78 547 c 0
 78 620.071289062 89.3271484375 696.974609375 112.796875 777.590820312 c 2
 118.267578125 796.37890625 l 1
 137.169921875 791.3203125 l 1
 279.169921875 753.3203125 l 1
 296.3671875 748.717773438 l 1
 293.7890625 731.104492188 l 2
 281.8671875 649.639648438 276 587.250976562 276 545 c 0
 276 365.411132812 380.58203125 265.999023438 597.771484375 235.806640625 c 0
 667.0390625 226.05078125 774.481445312 221 921 221 c 0
 995.110351562 221 1126.76464844 222.034179688 1191.74609375 231.926757812 c 1
 1110.65136719 299.348632812 1053 403.940429688 1053 516 c 0
 1053 718 1216.44921875 901 1416 901 c 0
 1615.55078125 901 1779 717.999023438 1779 516 c 0
 1779 402.811523438 1719.8671875 297.421875 1638.34277344 230.348632812 c 1
 1674.53222656 222.65234375 1727.99794158 221.792099588 1808 221 c 2
 1909 220 l 6
 1919 220 1927 166.653320312 1927 128 c 6
 1927 94 l 6
 1927 54.642578125 1919 0 1909 0 c 6
1416 315 m 0
 1462.67382812 315 1576 406.909179688 1576 514 c 0
 1576 608.635742188 1494.421875 690 1415 690 c 0
 1336.77050781 690 1256 608.83203125 1256 514 c 0
 1256 406.830078125 1368.32714844 315 1416 315 c 0
EndSplineSet
EndChar

StartChar: uni06A1.init
Encoding: 65544 -1 270
GlifName: uni06A_1.init
Width: 885
VWidth: 2311
GlyphClass: 2
Flags: HW
AnchorPoint: "Anchor-10" 443.042 1301.15 basechar 0
AnchorPoint: "Anchor-7" 416.542 -157.02 basechar 0
LayerCount: 2
Fore
SplineSet
-4 220 m 6
 270 221 l 2
 410 222 494.482421875 237.915039062 524.64453125 261.7265625 c 0
 567.018554688 294.856445312 591.84765625 338.147460938 600.736328125 394.189453125 c 1
 563.623046875 378.5234375 502.102539062 359 420 359 c 0
 247.104492188 359 94.9560546875 457.162109375 94.9560546875 642.374023438 c 0
 94.9560546875 874.766601562 228.55078125 1091.01171875 440.1484375 1091.01171875 c 0
 699.655273438 1091.01171875 807 806.002929688 807 557 c 0
 807 314.575195312 746.553710938 148.756835938 618.784179688 67.15625 c 0
 545.880859375 20.3681640625 427 0 264 0 c 2
 -4 0 l 6
 -35 0 -42 48.0888671875 -42 94 c 6
 -42 128 l 6
 -42 173.405273438 -35 220 -4 220 c 6
284 656 m 0
 284 599.412109375 323.89453125 568.962890625 431.124023438 568.962890625 c 0
 520.833984375 568.962890625 585.694335938 603.567382812 606.891601562 616.6640625 c 1
 603.86328125 762.391601562 542.522460938 879.012695312 441.844726562 879.012695312 c 0
 361.662109375 879.012695312 284 789.594726562 284 656 c 0
EndSplineSet
EndChar

StartChar: uni06A1.medi
Encoding: 65545 -1 271
GlifName: uni06A_1.medi
Width: 1040
VWidth: 2311
GlyphClass: 2
Flags: HW
AnchorPoint: "Anchor-10" 554.056 1090.6 basechar 0
AnchorPoint: "Anchor-7" 504.056 -157.02 basechar 0
LayerCount: 2
Fore
SplineSet
1047 0 m 6
 950 0 l 2
 791 0 658.2421875 25.21875 554.65234375 97.75 c 1
 457.7421875 23.5888671875 305 0 129 0 c 2
 -4 0 l 2
 -35 0 -42 48.0888671875 -42 94 c 2
 -42 128 l 2
 -42 173.405273438 -35 220 -4 220 c 2
 130 221 l 2
 225 222 293.932617188 222.002929688 332.565429688 229.606445312 c 1
 249.17578125 297.854492188 191 402.734375 191 516 c 0
 191 718 354.44921875 901 554 901 c 0
 753.55078125 901 917 717.999023438 917 516 c 0
 917 402.811523438 857.8671875 297.421875 776.342773438 230.348632812 c 1
 812.532226562 222.65234375 865.99794158 221.792099588 946 221 c 2
 1047 220 l 6
 1057 220 1065 166.653320312 1065 128 c 6
 1065 94 l 6
 1065 54.642578125 1057 0 1047 0 c 6
554 315 m 0
 600.673828125 315 714 406.909179688 714 514 c 0
 714 608.635742188 632.421875 690 553 690 c 0
 474.770507812 690 394 608.83203125 394 514 c 0
 394 406.830078125 506.327148438 315 554 315 c 0
EndSplineSet
EndChar

StartChar: uni066F.fina
Encoding: 65546 -1 272
GlifName: uni066F_.fina
Width: 1424
VWidth: 2311
GlyphClass: 2
Flags: HW
AnchorPoint: "Anchor-10" 897.8 969.18 basechar 0
AnchorPoint: "Anchor-7" 662.464 -642.77 basechar 0
LayerCount: 2
Fore
SplineSet
1430.84570312 0 m 6
 1320.765625 1.693359375 l 1
 1313.6875 -342.715820312 1144.46386719 -518.017578125 720.521484375 -518.017578125 c 0
 303.65234375 -518.017578125 78 -332.951171875 78 38 c 0
 78 178.921875 108.689453125 320.8046875 171.734375 462.147460938 c 2
 179.361328125 479.24609375 l 1
 196.92578125 472.762695312 l 1
 345.92578125 417.762695312 l 1
 365.328125 410.600585938 l 1
 357.51953125 391.44921875 l 2
 305.163085938 263.026367188 279 150.375976562 279 55 c 0
 279 -186.555664062 398.290039062 -305.006835938 724.640625 -305.006835938 c 0
 1043.28613281 -305.006835938 1124.47363281 -206.276367188 1130.66894531 0 c 1
 1016 0 l 2
 740.95703125 0 612 87.3603515625 612 299.095703125 c 0
 614.091796875 518.747070312 748.323242188 753 965 753 c 0
 1210.42675781 753 1316.73144531 510.7421875 1328.36132812 220 c 1
 1430.84570312 220 l 6
 1441 220 1448.84570312 166.653320312 1448.84570312 128 c 6
 1448.84570312 94 l 6
 1448.84570312 54.642578125 1441 -0 1430.84570312 0 c 6
807 329 m 0
 807 223.293945312 889.583007812 211.114257812 1018.890625 211.114257812 c 0
 1050.95605469 211.114257812 1090.12988281 212.129882812 1130.8671875 214.029296875 c 1
 1127.33398438 448.836914062 1064.77539062 541.005859375 957.556640625 541.005859375 c 0
 874.112304688 541.005859375 807 429.51953125 807 329 c 0
EndSplineSet
EndChar

StartChar: arabic_gaf_bar
Encoding: 65550 -1 273
GlifName: arabic_gaf_bar
Width: 690
VWidth: 2170
GlyphClass: 2
Flags: HW
LayerCount: 2
Fore
SplineSet
669 1679 m 1
 0 1428.16308594 l 1
 0 1544.89648438 l 5
 669 1795.73339844 l 5
 669 1679 l 1
EndSplineSet
EndChar

StartChar: guillemotleft
Encoding: 171 171 283
GlifName: guillemotleft
Width: 976
VWidth: 2170
Flags: HW
LayerCount: 2
Fore
SplineSet
291.0859375 14.326171875 m 2
 160.314453125 221.549804688 92 389.171875 92 519 c 0
 92 648.739257812 159.283203125 816.400390625 290.0859375 1023.67382812 c 2
 295.971679688 1033 l 1
 307 1033 l 1
 457 1033 l 1
 491.627929688 1033 l 1
 474.323242188 1003.00585938 l 2
 375.130859375 831.071289062 291 631.124023438 291 520 c 0
 291 404.725585938 375.737304688 209.165039062 474.405273438 34.8515625 c 2
 491.302734375 5 l 1
 457 5 l 1
 308 5 l 1
 296.971679688 5 l 1
 291.0859375 14.326171875 l 2
689.123046875 14.267578125 m 2
 557.30078125 221.561523438 490 389.254882812 490 519 c 0
 490 648.745117188 557.30078125 816.438476562 689.123046875 1023.73242188 c 2
 695.016601562 1033 l 1
 706 1033 l 1
 855 1033 l 1
 889.053710938 1033 l 1
 872.466796875 1003.25878906 l 2
 775.059570312 828.596679688 689 631.72265625 689 520 c 0
 689 405.775390625 773.834960938 208.9921875 872.405273438 34.8515625 c 2
 889.302734375 5 l 1
 855 5 l 1
 706 5 l 1
 695.016601562 5 l 1
 689.123046875 14.267578125 l 2
EndSplineSet
EndChar

StartChar: guillemotright
Encoding: 187 187 284
GlifName: guillemotright
Width: 976
VWidth: 2170
Flags: HW
LayerCount: 2
Fore
SplineSet
668 5 m 1
 519 5 l 1
 484.70703125 5 l 1
 501.592773438 34.84765625 l 2
 600.018554688 208.833984375 685 404.873046875 685 520 c 0
 685 631.1328125 600.931640625 831.29296875 501.684570312 1002.99121094 c 2
 484.338867188 1033 l 1
 519 1033 l 1
 669 1033 l 1
 680.028320312 1033 l 1
 685.9140625 1023.67382812 l 2
 816.716796875 816.400390625 884 648.739257812 884 519 c 0
 884 389.171875 815.685546875 221.549804688 684.9140625 14.326171875 c 2
 679.028320312 5 l 1
 668 5 l 1
270 5 m 1
 121 5 l 1
 86.70703125 5 l 1
 103.592773438 34.84765625 l 2
 202 208.80078125 287 405.891601562 287 520 c 0
 287 631.944335938 201.029296875 828.163085938 103.526367188 1003.27050781 c 2
 86.97265625 1033 l 1
 121 1033 l 1
 270 1033 l 1
 280.983398438 1033 l 1
 286.876953125 1023.73242188 l 2
 418.69921875 816.438476562 486 648.745117188 486 519 c 0
 486 389.254882812 418.69921875 221.561523438 286.876953125 14.267578125 c 2
 280.983398438 5 l 1
 270 5 l 1
EndSplineSet
EndChar

StartChar: NameMe.302
Encoding: 65562 -1 293
GlifName: N_ameM_e.302
Width: 578
VWidth: 2311
Flags: HW
LayerCount: 2
Fore
SplineSet
585 0 m 6
 545 0 l 2
 447 0 376.141601562 37.646484375 308.215820312 105.137695312 c 1
 239.696289062 35.796875 161 0 58 0 c 2
 -4 0 l 2
 -35 0 -42 48.0888671875 -42 94 c 2
 -42 128 l 2
 -42 173.405273438 -35 220 -4 220 c 2
 59 220 l 2
 181 220 219 293 212.01953125 446.125 c 2
 180.326171875 1108.47167969 l 1
 195.008789062 1113.08203125 l 1
 367.008789062 1167.08203125 l 1
 393 1175.24121094 l 1
 393 1148 l 1
 393 448 l 2
 393 286 434 220 554 220 c 2
 585 220 l 6
 595 220 603 166.653320312 603 128 c 6
 603 94 l 6
 603 54.642578125 595 0 585 0 c 6
EndSplineSet
EndChar

StartChar: NameMe.303
Encoding: 65563 -1 294
GlifName: N_ameM_e.303
Width: 521
VWidth: 2311
Flags: HW
LayerCount: 2
Fore
SplineSet
-4 220 m 2
 39 220 l 2
 180 220 227.164137284 307.13073147 219.013671875 499.264648438 c 2
 188.430664062 1242.38964844 l 5
 202.873046875 1247.03808594 l 5
 376.873046875 1303.03808594 l 5
 403 1311.44726562 l 5
 403 1284 l 5
 403 486 l 2
 403 206 314 0 49 0 c 2
 -4 0 l 2
 -35 0 -42 48.0888671875 -42 94 c 2
 -42 128 l 2
 -42 173.405273438 -35 220 -4 220 c 2
EndSplineSet
EndChar

StartChar: NameMe.65564
Encoding: 65564 -1 297
GlifName: N_ameM_e.65564
Width: 527
VWidth: 2311
Flags: HW
AnchorPoint: "Anchor-10" 216.907 1313.98 basechar 0
AnchorPoint: "Anchor-7" 264.947 -195.71 basechar 0
LayerCount: 2
Fore
SplineSet
534 0 m 2
 514 0 l 2
 237 0 158 166 147.013671875 450.255859375 c 2
 117.451171875 1184.37011719 l 5
 131.840820312 1189.02832031 l 5
 304.840820312 1245.02832031 l 5
 331 1253.49609375 l 5
 331 1226 l 5
 331 465 l 2
 331 294 385 220 513 220 c 2
 534 220 l 2
 544 220 552 166.653320312 552 128 c 2
 552 94 l 2
 552 54.642578125 544 0 534 0 c 2
EndSplineSet
EndChar

StartChar: NameMe.65565
Encoding: 65565 -1 298
GlifName: N_ameM_e.65565
Width: 716
VWidth: 2957
Flags: HW
LayerCount: 2
Fore
SplineSet
104.357679704 -245.392838406 m 2
 140.955144208 -253.426924259 177.593786412 -257 209.700195312 -257 c 0
 304.738780114 -257 369.544760116 -240.681387021 404.288816185 -212.886330663 c 0
 431.67424892 -190.801613469 444.200195312 -168.481704297 444.200195312 -145.799804688 c 0
 444.200195312 -136.108649503 438.250358045 -129.064835179 416.580311592 -128.198597644 c 2
 326.59891885 -126.399108304 l 2
 253.62247517 -124.550816764 215.599609375 -85.541833178 215.599609375 -11.7001953125 c 0
 215.599609375 146.613884903 375.615673097 225.39479991 557.960402235 227.199999309 c 2
 562.28943646 227.24285643 l 1
 561.99044944 222.923946751 l 1
 553.890840065 105.923946751 l 1
 553.637917524 102.270444973 l 1
 549.976331692 102.200916258 l 2
 410.385849364 99.5502759744 346.714995098 65.0604304969 335.7555146 -4.26411156184 c 1
 429.417596849 -7.7018253139 l 2
 512.006230698 -9.53692914521 562 -52.7134343003 562 -135.900390625 c 0
 562 -185.804678822 538.895466866 -234.408705835 496.148798961 -281.7029126 c 0
 435.67726163 -347.671229762 338.064764415 -380.200195312 203.400390625 -380.200195312 c 0
 166.240587993 -380.200195312 126.448272754 -376.577384935 85.7855812105 -370.252273459 c 2
 81.8692737107 -369.643088956 l 1
 82.4424381526 -365.721347926 l 1
 99.5420475276 -248.721347926 l 1
 100.163089282 -244.472017797 l 1
 104.357679704 -245.392838406 l 2
EndSplineSet
EndChar

StartChar: uni060D
Encoding: 1549 1549 299
Width: 828
VWidth: 4036
Flags: HW
LayerCount: 2
Fore
SplineSet
575.666992188 1439.92675781 m 1
 757 1385.40039062 l 1
 210.6875 -215.69921875 l 1
 29.3544921875 -161.172851562 l 5
 575.666992188 1439.92675781 l 1
EndSplineSet
EndChar

StartChar: NameMe.65541
Encoding: 65541 -1 300
Width: 598
VWidth: 2317
Flags: HW
AnchorPoint: "Anchor-10" 243.546 1100.67 basechar 0
AnchorPoint: "Anchor-7" 327.466 -96.0703 basechar 0
LayerCount: 2
Fore
SplineSet
-4 220 m 6
 49 220 l 2
 280 220 319 220.134765625 319 384 c 0
 319 506.5625 274.459960938 711.735351562 274.459960938 711.735351562 c 1
 270.498046875 729.887695312 l 1
 288.309570312 735.173828125 l 1
 443.309570312 781.173828125 l 1
 462.077148438 786.743164062 l 1
 468.048828125 768.095703125 l 2
 468.665039062 766.169921875 520 606.330078125 520 435 c 0
 520 117.545898438 394 0 45 0 c 2
 -4 0 l 6
 -35 0 -42 48.0888671875 -42 94 c 6
 -42 128 l 6
 -42 173.405273438 -35 220 -4 220 c 6
EndSplineSet
EndChar

StartChar: NameMe.65542
Encoding: 65542 -1 301
Width: 704
VWidth: 2311
Flags: HW
AnchorPoint: "Anchor-10" 309.126 1144.13 basechar 0
AnchorPoint: "Anchor-7" 339.126 -103.49 basechar 0
LayerCount: 2
Fore
SplineSet
710 0 m 6
 677 0 l 2
 573 0 505.33984375 43.0615234375 430.963867188 120.783203125 c 1
 350.234375 39.3505859375 249 0 129 0 c 2
 -4 0 l 2
 -35 0 -42 48.0888671875 -42 94 c 2
 -42 128 l 2
 -42 173.405273438 -35 220 -4 220 c 2
 133 220 l 2
 268 220 327.276367188 274.657226562 330.005859375 387.46484375 c 2
 335.005859375 602.46484375 l 1
 335.389648438 618.971679688 l 1
 351.670898438 621.720703125 l 1
 505.670898438 647.720703125 l 1
 528.135742188 651.513671875 l 1
 528.986328125 628.74609375 l 1
 537.98828125 387.6953125 l 2
 541.747070312 271.16796875 598 220 680 220 c 2
 710 220 l 6
 720 220 728 166.653320312 728 128 c 6
 728 94 l 6
 728 54.642578125 720 0 710 0 c 6
EndSplineSet
EndChar

StartChar: uniFBFD.compact
Encoding: 65575 -1 321
Width: 1411
VWidth: 2311
Flags: HW
AnchorPoint: "Anchor-10" 741.849 640.691 basechar 0
AnchorPoint: "Anchor-7" 713.391 -759.455 basechar 0
LayerCount: 2
Fore
SplineSet
1418 0 m 2
 1231.57519531 0 l 1
 1307 -30 1388 -66.060546875 1388 -156 c 0
 1388 -434.749023438 997.978515625 -524 717 -524 c 0
 331.775390625 -524 77 -328.599609375 77 36 c 0
 77 138.088867188 102.389648438 296.26953125 172.873046875 447.451171875 c 2
 180.921875 464.71484375 l 1
 198.557617188 457.516601562 l 1
 345.557617188 397.516601562 l 1
 364.616210938 389.73828125 l 1
 356.291992188 370.912109375 l 2
 292.4921875 226.626953125 283 120.309570312 283 35 c 0
 283 -185.168945312 413.834960938 -309.009765625 714.576171875 -309.009765625 c 0
 955.228515625 -309.009765625 1193.69433594 -244.469726562 1194.99902344 -166.419921875 c 0
 1191.46777344 -160.916992188 1162.06281681 -147.836675564 1127.5625 -134.567382812 c 2
 867.8203125 -34.6669921875 l 2
 830 -20 881 220 930 220 c 2
 1418 220 l 2
 1428 220 1436 166.653320312 1436 128 c 2
 1436 94 l 2
 1436 54.642578125 1428 0 1418 0 c 2
EndSplineSet
EndChar

StartChar: uniFECC.compact
Encoding: 65579 -1 324
Width: 1099
VWidth: 2311
Flags: HW
AnchorPoint: "Anchor-10" 548.215 1155.79 basechar 0
AnchorPoint: "Anchor-7" 577.375 -183.35 basechar 0
LayerCount: 2
Fore
SplineSet
1107 0 m 6
 1057.94238281 0 l 2
 885 0 732.884765625 47.7109375 608.997070312 138.0390625 c 1
 481.874023438 45.6044921875 318 0 117 0 c 2
 -4 0 l 2
 -35 0 -42 48.0888671875 -42 94 c 2
 -42 128 l 2
 -42 173.405273438 -35 220 -4 220 c 2
 123 220 l 2
 263 220 363.546875 234.095703125 422.729492188 258.334960938 c 1
 233.743164062 353.91015625 133.052734375 457.834960938 132 578.913085938 c 0
 132 771.211914062 360.153320312 842 591 842 c 2
 604 842 l 2
 813.149414062 842 1060 799.215820312 1060 590 c 0
 1060 469.948242188 964.486328125 361.641601562 791.720703125 259.875976562 c 1
 857.421875 234.013671875 947 220 1062 220 c 2
 1107 220 l 6
 1117 220 1125 166.653320312 1125 128 c 6
 1125 94 l 6
 1125 54.642578125 1117 0 1107 0 c 6
860 565 m 0
 860 603.764648438 795.571289062 631 606 631 c 2
 585 631 l 2
 394.724609375 631 330.9921875 597.56640625 330.9921875 567.91015625 c 0
 330.9921875 528.928710938 524.291992188 419.180664062 612.287109375 377.924804688 c 1
 684.975585938 410.4140625 860 515.23828125 860 565 c 0
EndSplineSet
EndChar

